<svg xmlns="http://www.w3.org/2000/svg" width="70" height="106.24" viewBox="0 0 70 106.24">
  <g id="ic-bad" transform="translate(-18630 -15768)">
    <path id="Path_2982" data-name="Path 2982" d="M-14.21-7h3.56c2.18,0,3.36.98,3.36,2.82,0,1.96-1.32,2.82-3.86,2.82h-3.06Zm0-6.2h2.28c2.38,0,4,.3,4,2.5,0,2.06-1.46,2.4-2.82,2.4h-3.46ZM-15.93,0h5.1c3.8,0,5.3-1.6,5.3-4.16A3.566,3.566,0,0,0-8.21-7.82a3.138,3.138,0,0,0,2.08-3.22c0-2.58-2.02-3.56-5.54-3.56h-4.26ZM-.29-1.04a1.579,1.579,0,0,1-1.78-1.7c0-1.5.9-1.98,3.94-2.38.02,0,.98-.14.98-.14v2.64A4.3,4.3,0,0,1-.29-1.04Zm3.18-.14L3.13,0H4.47V-7.88c0-2.4-1.66-3.1-3.78-3.1a8.524,8.524,0,0,0-3.76.82l.46,1.28A8.286,8.286,0,0,1,.73-9.6c1.48,0,2.12.68,2.12,1.98V-6.4l-1.08.12c-2.76.4-5.48.78-5.48,3.6,0,2,1.5,2.92,3.26,2.92A4.384,4.384,0,0,0,2.89-1.18Zm8.48-.04c2.2,0,3.22-1.86,3.22-4.16s-.96-4.16-3.24-4.16c-2.18,0-2.98,2.16-2.98,4.1C8.37-3.32,9.15-1.22,11.37-1.22ZM11.27.24c-2.9,0-4.58-2.38-4.58-5.72,0-3.04,1.8-5.5,4.52-5.5a3.74,3.74,0,0,1,3.38,1.82v-5.4l1.64-.18V0H14.77l-.2-1.68A3.768,3.768,0,0,1,11.27.24Z" transform="translate(18664.93 15874)"/>
    <g id="Group_460" data-name="Group 460" transform="translate(17908.717 14941.631)">
      <g id="Ellipse_101" data-name="Ellipse 101" transform="translate(721.283 826.37)">
        <circle id="Ellipse_116" data-name="Ellipse 116" cx="35" cy="35" r="35" fill="#ffe856"/>
      </g>
      <g id="Ellipse_102" data-name="Ellipse 102" transform="translate(740.792 847.025)">
        <ellipse id="Ellipse_117" data-name="Ellipse 117" cx="6.312" cy="6.979" rx="6.312" ry="6.979" transform="translate(0 0.961)" fill="#fff"/>
      </g>
      <g id="Ellipse_103" data-name="Ellipse 103" transform="translate(759.152 847.025)">
        <ellipse id="Ellipse_118" data-name="Ellipse 118" cx="6.312" cy="6.979" rx="6.312" ry="6.979" transform="translate(0 0.961)" fill="#fff"/>
      </g>
      <g id="Ellipse_104" data-name="Ellipse 104" transform="translate(744.234 852.763)">
        <ellipse id="Ellipse_119" data-name="Ellipse 119" cx="2.869" cy="4.016" rx="2.869" ry="4.016"/>
      </g>
      <g id="Ellipse_105" data-name="Ellipse 105" transform="translate(762.595 852.763)">
        <ellipse id="Ellipse_120" data-name="Ellipse 120" cx="2.869" cy="4.016" rx="2.869" ry="4.016"/>
      </g>
      <g id="Path_2925" data-name="Path 2925" transform="translate(738.529 875.203)">
        <path id="Path_2940" data-name="Path 2940" d="M768.778,871.219H750.184a1.148,1.148,0,1,1,0-2.3h18.593a1.148,1.148,0,0,1,0,2.3Z" transform="translate(-741.283 -868.924)"/>
      </g>
      <g id="Path_2928" data-name="Path 2928" transform="translate(740.209 842.676)">
        <path id="Path_2941" data-name="Path 2941" d="M738.635,843a.861.861,0,0,1-.186-1.7,30.06,30.06,0,0,1,5.916-.714,34.19,34.19,0,0,1,6.48.449.862.862,0,0,1-.285,1.7,31.809,31.809,0,0,0-6.154-.427,28.29,28.29,0,0,0-5.583.674A.869.869,0,0,1,738.635,843Z" transform="translate(-737.776 -840.579)"/>
      </g>
      <g id="Path_2936" data-name="Path 2936" transform="translate(758.57 842.951)">
        <path id="Path_2942" data-name="Path 2942" d="M766.7,843.35a.819.819,0,0,1-.217-.028,24.213,24.213,0,0,0-5.547-.771,27.067,27.067,0,0,0-6.134.518.86.86,0,1,1-.339-1.687,28.976,28.976,0,0,1,6.517-.552,25.8,25.8,0,0,1,5.934.827.86.86,0,0,1-.215,1.693Z" transform="translate(-753.776 -840.819)"/>
      </g>
    </g>
  </g>
</svg>
