<svg xmlns="http://www.w3.org/2000/svg" width="132.682" height="136.641" viewBox="0 0 132.682 136.641">
  <g id="ic-barely" transform="translate(-22634 -15524)">
    <path id="Path_2985" data-name="Path 2985" d="M-25.01-7h3.56c2.18,0,3.36.98,3.36,2.82,0,1.96-1.32,2.82-3.86,2.82h-3.06Zm0-6.2h2.28c2.38,0,4,.3,4,2.5,0,2.06-1.46,2.4-2.82,2.4h-3.46ZM-26.73,0h5.1c3.8,0,5.3-1.6,5.3-4.16a3.566,3.566,0,0,0-2.68-3.66,3.138,3.138,0,0,0,2.08-3.22c0-2.58-2.02-3.56-5.54-3.56h-4.26Zm15.64-1.04a1.579,1.579,0,0,1-1.78-1.7c0-1.5.9-1.98,3.94-2.38.02,0,.98-.14.98-.14v2.64A4.3,4.3,0,0,1-11.09-1.04Zm3.18-.14L-7.67,0h1.34V-7.88c0-2.4-1.66-3.1-3.78-3.1a8.524,8.524,0,0,0-3.76.82l.46,1.28a8.286,8.286,0,0,1,3.34-.72c1.48,0,2.12.68,2.12,1.98V-6.4l-1.08.12c-2.76.4-5.48.78-5.48,3.6,0,2,1.5,2.92,3.26,2.92A4.384,4.384,0,0,0-7.91-1.18ZM-3.67,0V-8.26c0-.84-.02-1.64-.02-2.46h1.38l.12,1.86A3.341,3.341,0,0,1,.95-10.72h.3l.12,1.5H.97a2.785,2.785,0,0,0-3,2.94V0ZM7.47.24C4.41.24,2.55-1.94,2.55-5.38c0-3.2,1.92-5.52,4.72-5.6,2.66,0,4.32,2.02,4.32,5.18,0,.16-.02.56-.02.74H4.23c0,2.42,1.42,3.9,3.3,3.9a5.9,5.9,0,0,0,3.4-1.08l.5,1.2A6.009,6.009,0,0,1,7.47.24ZM4.29-6.2h5.72c0-2.28-1.14-3.44-2.74-3.44C5.65-9.64,4.47-8.3,4.29-6.2Zm11.4-8.54-1.64.18v9.98c0,3.56.06,4.78,2.7,4.78a6.738,6.738,0,0,0,1.1-.12l-.1-1.28c-.5.04-.64.06-.88.06-1.12,0-1.18-.72-1.18-3.06Zm4.36,4.02,3.38,8.7c.84-2.56,2.82-8.7,2.82-8.7h1.74L24.09.46c-.9,2.6-1.9,4.44-4.94,4.44h-.5l-.2-1.48h.28c2.3,0,2.64-.34,3.76-3.64l-4.16-10.5ZM-62.84,20.04l2.46-6.96,2.22,6.96ZM-55.98,26h1.76l-5.14-14.6h-2.08L-66.88,26h1.76l1.74-4.62h5.8Zm10.92-.74a4.353,4.353,0,0,1-2.9.98c-3.34,0-5.16-2.62-5.16-5.6.02-2.96,1.94-5.62,5.14-5.62a4.289,4.289,0,0,1,2.92.94l-.42,1.16A4.527,4.527,0,0,0-48,16.38c-1.96,0-3.46,1.82-3.46,4.3,0,2.46,1.44,4.22,3.58,4.22a4.312,4.312,0,0,0,2.42-.8Zm1.88-13.82V26h1.64V21.5l1.16-1,4.04,5.5h2.1l-4.9-6.26,4.58-4.46h-2.22l-4.76,4.54V11.26Zm15.44,3.58a4.837,4.837,0,0,0-3.82,1.84l-.14-1.58h-1.42l.04,2.6V26h1.64V18.68a3.53,3.53,0,0,1,3.34-2.26c1.98,0,2.1,1.42,2.1,4.2V26h1.64V19.58C-24.36,16.58-25.38,15.02-27.74,15.02Zm13.72,5.64c0,2.18-.9,4.24-3.22,4.24-2.34,0-3.4-2.06-3.4-4.22,0-2.18,1.06-4.3,3.36-4.3C-14.86,16.38-14.02,18.38-14.02,20.66Zm1.7-.02c0-3.08-1.64-5.62-4.92-5.62-3.24,0-5.08,2.58-5.08,5.64,0,3.08,1.8,5.58,5.04,5.58C-14.06,26.24-12.32,23.6-12.32,20.64Zm1.16-5.36L-7.96,26H-6.3l2.98-9.06L-.46,26H1.16l3.2-10.72H2.7L.4,23.78l-2.72-8.5H-4.24l-2.84,8.54-2.38-8.54ZM7.82,11.26l-1.64.18v9.98c0,3.56.06,4.78,2.7,4.78a6.738,6.738,0,0,0,1.1-.12l-.1-1.28c-.5.04-.64.06-.88.06-1.12,0-1.18-.72-1.18-3.06ZM16.1,26.24c-3.06,0-4.92-2.18-4.92-5.62,0-3.2,1.92-5.52,4.72-5.6,2.66,0,4.32,2.02,4.32,5.18,0,.16-.02.56-.02.74H12.86c0,2.42,1.42,3.9,3.3,3.9a5.9,5.9,0,0,0,3.4-1.08l.5,1.2A6.009,6.009,0,0,1,16.1,26.24ZM12.92,19.8h5.72c0-2.28-1.14-3.44-2.74-3.44C14.28,16.36,13.1,17.7,12.92,19.8Zm13.8,4.98c2.2,0,3.22-1.86,3.22-4.16s-.96-4.16-3.24-4.16c-2.18,0-2.98,2.16-2.98,4.1C23.72,22.68,24.5,24.78,26.72,24.78Zm-.1,1.46c-2.9,0-4.58-2.38-4.58-5.72,0-3.04,1.8-5.5,4.52-5.5a3.74,3.74,0,0,1,3.38,1.82v-5.4l1.64-.18V26H30.12l-.2-1.68A3.768,3.768,0,0,1,26.62,26.24Zm9.54,4.66H37.9c5,0,5.42-2.9,5.42-5.68V15.28H41.74v1.44a3.8,3.8,0,0,0-3.24-1.7c-3.26,0-4.72,2.62-4.72,5.66,0,2.46,1.44,5.32,4.6,5.32a3.663,3.663,0,0,0,3.3-1.76v.94c0,2.7-.38,4.24-3.74,4.24h-2Zm2.46-6.3c-2.2,0-3.16-2.18-3.16-4.02,0-1.86.88-4.16,3.18-4.16,2.22,0,3.1,1.7,3.1,3.74v.8C41.74,22.88,40.92,24.6,38.62,24.6Zm11.7,1.64c-3.06,0-4.92-2.18-4.92-5.62,0-3.2,1.92-5.52,4.72-5.6,2.66,0,4.32,2.02,4.32,5.18,0,.16-.02.56-.02.74H47.08c0,2.42,1.42,3.9,3.3,3.9a5.9,5.9,0,0,0,3.4-1.08l.5,1.2A6.009,6.009,0,0,1,50.32,26.24ZM47.14,19.8h5.72c0-2.28-1.14-3.44-2.74-3.44C48.5,16.36,47.32,17.7,47.14,19.8Zm13.8,4.98c2.2,0,3.22-1.86,3.22-4.16s-.96-4.16-3.24-4.16c-2.18,0-2.98,2.16-2.98,4.1C57.94,22.68,58.72,24.78,60.94,24.78Zm-.1,1.46c-2.9,0-4.58-2.38-4.58-5.72,0-3.04,1.8-5.5,4.52-5.5a3.74,3.74,0,0,1,3.38,1.82v-5.4l1.64-.18V26H64.34l-.2-1.68A3.768,3.768,0,0,1,60.84,26.24Z" transform="translate(22700.881 15629.74)"/>
    <g id="Group_461" data-name="Group 461" transform="translate(21765.695 14777.455)">
      <path id="Path_2944" data-name="Path 2944" d="M969.277,781.468c20.406-24.443-19.464-50.94-34.147-22.843-14.564-27.923-54.264-1.911-34.347,22.608v0c2.218,2.277,32.429,33.332,34.353,35.308l34.141-35.073Z" transform="translate(0 0)" fill="#ff5679"/>
      <path id="Path_2945" data-name="Path 2945" d="M995.488,781.468v.006c-.639.651-33.454,34.365-34.142,35.071l-.006-.006V758.628C976.02,730.529,1015.891,757.024,995.488,781.468Z" transform="translate(-26.209 -0.001)"/>
    </g>
  </g>
</svg>
