<svg xmlns="http://www.w3.org/2000/svg" width="31.002" height="32.147" viewBox="0 0 31.002 32.147">
  <path id="ic-billing-details" d="M-13179.5-9605.854h0l-3-5.146-2.844,4.876A3.005,3.005,0,0,1-13186-9608v-27a3.005,3.005,0,0,1,3-3h25a3.005,3.005,0,0,1,3,3v27a3,3,0,0,1-.658,1.875l-2.844-4.876-3,5.145-3-5.145-3,5.143-3-5.143-3,5.143-3-5.143-3,5.146ZM-13161-9635a2,2,0,0,0-2,2,2,2,0,0,0,2,2,2,2,0,0,0,2-2A2,2,0,0,0-13161-9635Zm-6,0a2,2,0,0,0-2,2,2,2,0,0,0,2,2,2,2,0,0,0,2-2A2,2,0,0,0-13167-9635Zm-6,0a2,2,0,0,0-2,2,2,2,0,0,0,2,2,2,2,0,0,0,2-2A2,2,0,0,0-13173-9635Zm-6,0a2,2,0,0,0-2,2,2,2,0,0,0,2,2,2,2,0,0,0,2-2A2,2,0,0,0-13179-9635Z" transform="translate(13186.001 9638.002)" fill="#1e4421"/>
</svg>
