<svg xmlns="http://www.w3.org/2000/svg" width="89.9" height="133.175" viewBox="0 0 89.9 133.175">
  <g id="ic-cheerfully" transform="translate(-22442 -15523.065)">
    <path id="Path_2987" data-name="Path 2987" d="M-37.58-14.9c-4.5,0-6.98,3.3-6.98,7.62,0,4.14,2.42,7.5,7,7.5a6,6,0,0,0,4.2-1.26l-.56-1.42a5.685,5.685,0,0,1-3.5,1.2c-3.84,0-5.28-2.92-5.28-6.02,0-3.24,1.64-6.12,5.18-6.12a5.941,5.941,0,0,1,3.6,1.16l.62-1.32A6.472,6.472,0,0,0-37.58-14.9ZM-29.9,0h-1.64V-14.56l1.64-.18v5.48a4.715,4.715,0,0,1,3.82-1.72c2.24,0,3.26,1.68,3.26,4.5V0h-1.64V-6.02c0-2.42-.34-3.56-2.16-3.56A3.526,3.526,0,0,0-29.9-7.3Zm14.04.24c-3.06,0-4.92-2.18-4.92-5.62,0-3.2,1.92-5.52,4.72-5.6,2.66,0,4.32,2.02,4.32,5.18,0,.16-.02.56-.02.74H-19.1c0,2.42,1.42,3.9,3.3,3.9a5.9,5.9,0,0,0,3.4-1.08l.5,1.2A6.009,6.009,0,0,1-15.86.24ZM-19.04-6.2h5.72c0-2.28-1.14-3.44-2.74-3.44C-17.68-9.64-18.86-8.3-19.04-6.2ZM-5,.24c-3.06,0-4.92-2.18-4.92-5.62,0-3.2,1.92-5.52,4.72-5.6,2.66,0,4.32,2.02,4.32,5.18,0,.16-.02.56-.02.74H-8.24c0,2.42,1.42,3.9,3.3,3.9a5.9,5.9,0,0,0,3.4-1.08l.5,1.2A6.009,6.009,0,0,1-5,.24ZM-8.18-6.2h5.72c0-2.28-1.14-3.44-2.74-3.44C-6.82-9.64-8-8.3-8.18-6.2ZM1.38,0V-8.26c0-.84-.02-1.64-.02-2.46H2.74l.12,1.86A3.341,3.341,0,0,1,6-10.72h.3l.12,1.5h-.4a2.785,2.785,0,0,0-3,2.94V0ZM7.22-9.58H8.8V0h1.64V-9.58h2.42v-1.14H10.44v-.32c0-2.04.14-2.72,1.84-2.72h.92L13-15h-.72c-2.58,0-3.42.78-3.48,3.96v.32H7.22Zm7.2,6c0,2.8,2.06,3.82,4.32,3.82s4.28-1,4.28-3.82v-7.14H21.38v7.16c0,1.9-1.12,2.46-2.64,2.46-1.54,0-2.68-.54-2.68-2.46v-7.16H14.42ZM27.4-14.74l-1.64.18v9.98c0,3.56.06,4.78,2.7,4.78a6.738,6.738,0,0,0,1.1-.12l-.1-1.28c-.5.04-.64.06-.88.06-1.12,0-1.18-.72-1.18-3.06Zm5.64,0-1.64.18v9.98c0,3.56.06,4.78,2.7,4.78A6.738,6.738,0,0,0,35.2.08L35.1-1.2c-.5.04-.64.06-.88.06-1.12,0-1.18-.72-1.18-3.06Zm4.36,4.02,3.38,8.7c.84-2.56,2.82-8.7,2.82-8.7h1.74L41.44.46c-.9,2.6-1.9,4.44-4.94,4.44H36l-.2-1.48h.28c2.3,0,2.64-.34,3.76-3.64l-4.16-10.5ZM-28.06,26.22c-4.62,0-6.94-3.5-6.94-7.5,0-4.1,2.28-7.62,6.98-7.62a7,7,0,0,1,4.5,1.42l-.64,1.34a6.506,6.506,0,0,0-3.72-1.26c-3.7,0-5.26,2.9-5.26,6.12,0,3.24,1.56,6.02,5.26,6.02a7.284,7.284,0,0,0,3.3-.88V20H-28.2l.12-1.46h5V24.8A8.687,8.687,0,0,1-28.06,26.22Zm7.54-.22V17.74c0-.84-.02-1.64-.02-2.46h1.38l.12,1.86a3.341,3.341,0,0,1,3.14-1.86h.3l.12,1.5h-.4a2.785,2.785,0,0,0-3,2.94V26Zm11.14.24c-3.06,0-4.92-2.18-4.92-5.62,0-3.2,1.92-5.52,4.72-5.6,2.66,0,4.32,2.02,4.32,5.18,0,.16-.02.56-.02.74h-7.34c0,2.42,1.42,3.9,3.3,3.9a5.9,5.9,0,0,0,3.4-1.08l.5,1.2A6.009,6.009,0,0,1-9.38,26.24Zm-3.18-6.44h5.72c0-2.28-1.14-3.44-2.74-3.44C-11.2,16.36-12.38,17.7-12.56,19.8ZM1.48,26.24c-3.06,0-4.92-2.18-4.92-5.62,0-3.2,1.92-5.52,4.72-5.6,2.66,0,4.32,2.02,4.32,5.18,0,.16-.02.56-.02.74H-1.76c0,2.42,1.42,3.9,3.3,3.9a5.9,5.9,0,0,0,3.4-1.08l.5,1.2A6.009,6.009,0,0,1,1.48,26.24ZM-1.7,19.8H4.02c0-2.28-1.14-3.44-2.74-3.44C-.34,16.36-1.52,17.7-1.7,19.8Zm11.86-3.38H13V15.28H10.16V11.72l-1.22.1-.42,3.46H7.02l-.14,1.14H8.52v5.24c0,3.26.2,4.54,2.8,4.54.34,0,.64-.04,1.86-.14l-.14-1.32c-.76.06-1.16.1-1.34.1-1.3,0-1.54-.42-1.54-2.42Zm9.2,9.82c-3.06,0-4.92-2.18-4.92-5.62,0-3.2,1.92-5.52,4.72-5.6,2.66,0,4.32,2.02,4.32,5.18,0,.16-.02.56-.02.74H16.12c0,2.42,1.42,3.9,3.3,3.9a5.9,5.9,0,0,0,3.4-1.08l.5,1.2A6.009,6.009,0,0,1,19.36,26.24ZM16.18,19.8H21.9c0-2.28-1.14-3.44-2.74-3.44C17.54,16.36,16.36,17.7,16.18,19.8Zm13.8,4.98c2.2,0,3.22-1.86,3.22-4.16s-.96-4.16-3.24-4.16c-2.18,0-2.98,2.16-2.98,4.1C26.98,22.68,27.76,24.78,29.98,24.78Zm-.1,1.46c-2.9,0-4.58-2.38-4.58-5.72,0-3.04,1.8-5.5,4.52-5.5a3.74,3.74,0,0,1,3.38,1.82v-5.4l1.64-.18V26H33.38l-.2-1.68A3.768,3.768,0,0,1,29.88,26.24Z" transform="translate(22486.561 15630)"/>
    <path id="Path_2984" data-name="Path 2984" d="M969.277,781.468c20.406-24.443-19.464-50.94-34.147-22.843-14.564-27.923-54.264-1.911-34.347,22.608v0c2.218,2.277,32.429,33.332,34.353,35.308l34.141-35.073Z" transform="translate(21552.695 14776.521)" fill="#ff5679"/>
  </g>
</svg>
