<svg xmlns="http://www.w3.org/2000/svg" width="60.867" height="44.692" viewBox="0 0 60.867 44.692">
  <g id="ic-cash" transform="translate(-18588.066 -13704.653)">
    <g id="Group_459" data-name="Group 459" transform="translate(-4 -55)">
      <g id="Group_391" data-name="Group 391" transform="translate(18091 12801)">
        <rect id="Rectangle_217" data-name="Rectangle 217" width="55" height="34" rx="4" transform="matrix(0.978, -0.208, 0.208, 0.978, 501.066, 970.089)" fill="#c7dfff"/>
        <rect id="Rectangle_216" data-name="Rectangle 216" width="55" height="34" rx="4" transform="translate(503 969)" fill="#ffc7f2"/>
        <ellipse id="Ellipse_100" data-name="Ellipse 100" cx="11" cy="12" rx="11" ry="12" transform="translate(520 974)" fill="#fff"/>
        <path id="Path_2923" data-name="Path 2923" d="M-8.552-9.729h4.263a2.34,2.34,0,0,0-.233-.672,1.541,1.541,0,0,0-.457-.519,2.21,2.21,0,0,0-.729-.334,3.957,3.957,0,0,0-1.033-.119H-8.552V-12.6H-.615v1.23H-3.5a2.948,2.948,0,0,1,.417.734,3.421,3.421,0,0,1,.215.91h2.25V-8.5H-2.909a3.487,3.487,0,0,1-.866,1.8A3.529,3.529,0,0,1-5.5-5.678v.035a3.116,3.116,0,0,1,.545.325,3.756,3.756,0,0,1,.475.426,5.114,5.114,0,0,1,.453.558q.224.316.479.721L-1.31,0h-1.67l-2-3.357q-.29-.483-.549-.853a3.167,3.167,0,0,0-.554-.615,2.053,2.053,0,0,0-.65-.369,2.543,2.543,0,0,0-.831-.123h-.984v-1.2h1.8A2.506,2.506,0,0,0-5.9-6.667a2.471,2.471,0,0,0,.725-.4,2.431,2.431,0,0,0,.545-.624,2.584,2.584,0,0,0,.321-.8H-8.552Z" transform="translate(536 993)"/>
      </g>
    </g>
  </g>
</svg>
