<svg id="ic-call-server" xmlns="http://www.w3.org/2000/svg" width="28" height="28" viewBox="0 0 28 28">
  <g id="Group_216" data-name="Group 216" transform="translate(0.074 -0.285)" opacity="0.7">
    <rect id="Rectangle_94" data-name="Rectangle 94" width="28" height="28" transform="translate(-0.074 0.285)" fill="none" opacity="0"/>
    <path id="Path_2746" data-name="Path 2746" d="M728.888,535.539a1.346,1.346,0,0,1,2.693,0v6.5a.315.315,0,0,0,.629.007v-7.779a1.523,1.523,0,1,1,3.046,0v7.81a.315.315,0,0,0,.63.006V534.9a1.523,1.523,0,1,1,3.045,0v7.175c0,.013,0,.024,0,.037a.3.3,0,1,0,.589.006v-3.59a1.082,1.082,0,0,1,2.165,0v3.988c0,.009,0,.017,0,.026l-.056,5.475a3.525,3.525,0,0,1-2.969,3.442v1.561a2.6,2.6,0,0,1-2.6,2.6H734.3a2.6,2.6,0,0,1-2.6-2.6v-1.635a3.525,3.525,0,0,1-2.24-1.482l-3.876-3.876a1.472,1.472,0,0,1,2.082-2.081l1.21,1.21.029-2.836Z" transform="translate(-720.223 -530.161)"/>
  </g>
</svg>
