<svg xmlns="http://www.w3.org/2000/svg" width="36" height="36" viewBox="0 0 36 36">
  <g id="ic-chilli" transform="translate(-162 -1163)">
    <g id="Rectangle_36" data-name="Rectangle 36" transform="translate(162 1163)" fill="#fff" stroke="#707070" stroke-width="1" opacity="0">
      <rect width="36" height="36" stroke="none"/>
      <rect x="0.5" y="0.5" width="35" height="35" fill="none"/>
    </g>
    <g id="red-chili-pepper" transform="translate(153.027 1145.61)">
      <path id="Path_2677" data-name="Path 2677" d="M38.057,38.761c-1.012,2.118-7.164,7.753-13.631,9.5-6.364,2.224-13.043.559-12.713-.895,0-1.448,5.385-2.989,9.359-6.153a30.323,30.323,0,0,0,7.872-8.717c1.8-2.53,4.875-4.231,7.573-2.778,2.873,1.546,4.421,4.853,1.54,9.044Z" transform="translate(0 -2.834)" fill="#de594e"/>
      <path id="Path_2678" data-name="Path 2678" d="M39.021,50.606c-1.013,2.118-7.164,7.752-13.63,9.5-5.619,1.964-11.481.9-12.551-.379-.7.455-1.124.87-1.124,1.276-.33,1.455,6.347,3.119,12.711.895,6.468-1.743,12.622-7.379,13.633-9.5a9.929,9.929,0,0,0,1.047-1.919c-.027.044-.059.085-.086.128Z" transform="translate(-0.002 -16.471)" fill="#a64139"/>
      <path id="Path_2679" data-name="Path 2679" d="M74.589,25.55h0a.727.727,0,0,0-.491-.5,6.31,6.31,0,0,0-6.25,1.414,4.046,4.046,0,0,0-2.543-.25,12.187,12.187,0,0,0-3.952,1.909.1.1,0,0,0,.082.182,23.689,23.689,0,0,0,3.422-.553,2.467,2.467,0,0,1,2.085.138,8.013,8.013,0,0,0-1.649,3.229,6.605,6.605,0,0,1-1.8,2.5.185.185,0,0,0,.167.316c1.171-.289,3.454-.955,4.308-1.927.539-.613,1.033-1.128,1.411-1.506.442,1.088,1.162,1.737.78,2.976a4.123,4.123,0,0,0,.394,2.581c.9-.792.912-2.078,1.145-3.026a4.165,4.165,0,0,0-.524-3.08L70.87,29.5c.024-.364.246-2.671,2.022-2.892l1.082-.135a.733.733,0,0,0,.615-.926Z" transform="translate(-31.775)" fill="#4abba4"/>
    </g>
  </g>
</svg>
