<svg xmlns="http://www.w3.org/2000/svg" width="117.277" height="18.297" viewBox="0 0 117.277 18.297">
  <g id="ic-cancel" transform="translate(-20262.586 -9017.586)">
    <path id="Path_3972" data-name="Path 3972" d="M-79.564-14.736A5.879,5.879,0,0,1-75.336-13.3a5.07,5.07,0,0,1,1.67,3.262h-1.895a3.943,3.943,0,0,0-1.284-2.2,4.07,4.07,0,0,0-2.7-.811,4.33,4.33,0,0,0-3.423,1.489,6.789,6.789,0,0,0-1.3,4.565,6.631,6.631,0,0,0,1.177,4.087,4.112,4.112,0,0,0,3.511,1.567,3.709,3.709,0,0,0,3.271-1.65,6.277,6.277,0,0,0,.889-2.285h1.895a6.474,6.474,0,0,1-1.68,3.8A5.977,5.977,0,0,1-79.818.371a6.084,6.084,0,0,1-4.2-1.514q-2.236-2-2.236-6.182a7.9,7.9,0,0,1,1.68-5.205A6.135,6.135,0,0,1-79.564-14.736ZM-62.6-5.879l-2.178-6.338-2.314,6.338ZM-65.8-14.346h2.2L-58.394,0h-2.129l-1.455-4.3h-5.674L-69.2,0H-71.2Zm10.37,0h2.295l7.246,11.621V-14.346h1.846V0h-2.178l-7.354-11.611V0h-1.855Zm21.688-.391A5.879,5.879,0,0,1-29.509-13.3a5.07,5.07,0,0,1,1.67,3.262h-1.895a3.943,3.943,0,0,0-1.284-2.2,4.07,4.07,0,0,0-2.7-.811,4.33,4.33,0,0,0-3.423,1.489,6.789,6.789,0,0,0-1.3,4.565,6.631,6.631,0,0,0,1.177,4.087,4.112,4.112,0,0,0,3.511,1.567,3.709,3.709,0,0,0,3.271-1.65A6.277,6.277,0,0,0-29.6-5.273H-27.7a6.474,6.474,0,0,1-1.68,3.8A5.977,5.977,0,0,1-33.992.371a6.084,6.084,0,0,1-4.2-1.514q-2.236-2-2.236-6.182a7.9,7.9,0,0,1,1.68-5.205A6.135,6.135,0,0,1-33.738-14.736Zm9.784.391h10.459v1.758h-8.564v4.355h7.92v1.66h-7.92v4.863h8.711V0H-23.954Zm14.354,0h1.943V-1.709H-.391V0H-9.6Z" transform="translate(20380.254 9033.736)" fill="#1e4421"/>
    <g id="Group_445" data-name="Group 445" transform="translate(19639.266 8991.051)">
      <path id="Path_2977" data-name="Path 2977" d="M-2368.861,3105.949l15,15.469" transform="translate(2993.596 -3078)" fill="none" stroke="#1e4421" stroke-linecap="round" stroke-linejoin="round" stroke-width="2"/>
      <path id="Path_2978" data-name="Path 2978" d="M-2353.861,3105.949l-15,15.469" transform="translate(2993.596 -3078)" fill="none" stroke="#1e4421" stroke-linecap="round" stroke-linejoin="round" stroke-width="2"/>
    </g>
  </g>
</svg>
