<svg xmlns="http://www.w3.org/2000/svg" xmlns:xlink="http://www.w3.org/1999/xlink" width="109" height="58" viewBox="0 0 109 58">
  <defs>
    <filter id="Rectangle_129" x="0" y="0" width="109" height="58" filterUnits="userSpaceOnUse">
      <feOffset dy="3" input="SourceAlpha"/>
      <feGaussianBlur stdDeviation="3" result="blur"/>
      <feFlood flood-color="#ecd5a0" flood-opacity="0.31"/>
      <feComposite operator="in" in2="blur"/>
      <feComposite in="SourceGraphic"/>
    </filter>
  </defs>
  <g id="ic-call-server-2" transform="translate(-7416 -14147)">
    <g transform="matrix(1, 0, 0, 1, 7416, 14147)" filter="url(#Rectangle_129)">
      <rect id="Rectangle_129-2" data-name="Rectangle 129" width="91" height="40" rx="6" transform="translate(9 6)" fill="#f6e0a4" opacity="0.64"/>
    </g>
    <g id="ic-call-server" transform="translate(7431 14160)">
      <g id="Group_216" data-name="Group 216" transform="translate(0.074 -0.285)" opacity="0.7">
        <rect id="Rectangle_94" data-name="Rectangle 94" width="28" height="28" transform="translate(-0.074 0.285)" fill="none" opacity="0"/>
        <path id="Path_2746" data-name="Path 2746" d="M728.888,535.539a1.346,1.346,0,0,1,2.693,0v6.5a.315.315,0,0,0,.629.007v-7.779a1.523,1.523,0,1,1,3.046,0v7.81a.315.315,0,0,0,.63.006V534.9a1.523,1.523,0,1,1,3.045,0v7.175c0,.013,0,.024,0,.037a.3.3,0,1,0,.589.006v-3.59a1.082,1.082,0,0,1,2.165,0v3.988c0,.009,0,.017,0,.026l-.056,5.475a3.525,3.525,0,0,1-2.969,3.442v1.561a2.6,2.6,0,0,1-2.6,2.6H734.3a2.6,2.6,0,0,1-2.6-2.6v-1.635a3.525,3.525,0,0,1-2.24-1.482l-3.876-3.876a1.472,1.472,0,0,1,2.082-2.081l1.21,1.21.029-2.836Z" transform="translate(-720.223 -530.161)"/>
      </g>
    </g>
    <path id="Path_2973" data-name="Path 2973" d="M4.367-8.2C1.892-8.2.528-6.38.528-4,.528-1.727,1.859.121,4.378.121a3.3,3.3,0,0,0,2.31-.693L6.38-1.353a3.127,3.127,0,0,1-1.925.66C2.343-.693,1.551-2.3,1.551-4c0-1.782.9-3.366,2.849-3.366a3.267,3.267,0,0,1,1.98.638l.341-.726A3.56,3.56,0,0,0,4.367-8.2ZM9.834-3.278l1.353-3.828,1.221,3.828ZM13.607,0h.968L11.748-8.03H10.6L7.612,0H8.58l.957-2.541h3.19ZM16.06-8.03V0h4.422l.055-.836h-3.52V-8.03Zm5.918,0V0H26.4l.055-.836h-3.52V-8.03ZM.781,12.691a6.09,6.09,0,0,0,2.662.616c1.144,0,1.749-.506,1.749-1.6,0-.649-.264-1.089-1.287-1.342l-1.584-.4C1.21,9.7.517,9.1.517,8.038.517,6.476,1.683,5.8,3.443,5.8a4.77,4.77,0,0,1,2.409.583l-.275.748A4.951,4.951,0,0,0,3.432,6.63c-1.276,0-1.947.429-1.947,1.353,0,.627.418.968,1.188,1.155L4.18,9.5c1.2.286,1.969.869,1.969,2.178,0,1.672-1.122,2.442-2.761,2.442a5.75,5.75,0,0,1-2.882-.66Zm11.77-3.234H8.987V6.795H12.7l.066-.825H8.041V14h4.807l.088-.836H8.987V10.282h3.564Zm3.256-2.662h2.134c1.232,0,1.65.451,1.65,1.287,0,.957-.418,1.43-1.87,1.419l-1.914-.022ZM20.9,14l-1.3-2.805c-.187-.407-.6-1.089-.594-1.089A1.957,1.957,0,0,0,20.526,8.06c0-1.815-1.21-2.09-3.124-2.09H14.861V14h.946V10.282s1.331.044,1.43.044c.187,0,.77-.011.924-.022a12.764,12.764,0,0,1,.572,1.2L19.822,14Zm4.411-1.045L22.88,5.97H21.857L24.794,14h1.023l2.948-8.03h-1C26.906,8.357,25.311,12.955,25.311,12.955Zm9.35-3.5H31.1V6.795h3.718l.066-.825h-4.73V14h4.807l.088-.836H31.1V10.282h3.564Zm3.256-2.662h2.134c1.232,0,1.65.451,1.65,1.287,0,.957-.418,1.43-1.87,1.419l-1.914-.022ZM43.01,14l-1.3-2.805c-.187-.407-.6-1.089-.594-1.089A1.957,1.957,0,0,0,42.636,8.06c0-1.815-1.21-2.09-3.124-2.09H36.971V14h.946V10.282s1.331.044,1.43.044c.187,0,.77-.011.924-.022a12.764,12.764,0,0,1,.572,1.2L41.932,14Z" transform="translate(7463 14171)"/>
  </g>
</svg>
