<svg xmlns="http://www.w3.org/2000/svg" xmlns:xlink="http://www.w3.org/1999/xlink" width="166.869" height="25.483" viewBox="0 0 166.869 25.483">
  <defs>
    <clipPath id="clip-path">
      <path id="path10273" d="M1833.2-496.538c-.031,2.468,2.2,3.846,3.88,4.664,1.727.84,2.307,1.379,2.3,2.13-.013,1.15-1.377,1.657-2.654,1.677a9.262,9.262,0,0,1-4.552-1.082l-.8,3.755a13.348,13.348,0,0,0,4.93.909c4.656,0,7.7-2.3,7.719-5.862.018-4.523-6.256-4.773-6.213-6.795.015-.613.6-1.267,1.882-1.433a8.346,8.346,0,0,1,4.371.766l.779-3.633a11.882,11.882,0,0,0-4.149-.761c-4.383,0-7.465,2.33-7.49,5.664m19.127-5.351a2.021,2.021,0,0,0-1.886,1.257l-6.651,15.881h4.653l.926-2.559h5.686l.537,2.559h4.1l-3.579-17.138h-3.786m.651,4.63,1.343,6.436h-3.677l2.335-6.436m-25.419-4.63-3.668,17.138h4.434l3.666-17.138h-4.432m-6.559,0-4.615,11.665-1.867-9.919a2.067,2.067,0,0,0-2.045-1.746h-7.544l-.105.5a18.46,18.46,0,0,1,4.374,1.458,1.876,1.876,0,0,1,1.053,1.506l3.536,13.677h4.686l7.183-17.138H1821" transform="translate(-1804.822 502.203)"/>
    </clipPath>
    <linearGradient id="linear-gradient" y1="0.373" x2="0.008" y2="0.373" gradientUnits="objectBoundingBox">
      <stop offset="0" stop-color="#222357"/>
      <stop offset="1" stop-color="#254aa5"/>
    </linearGradient>
  </defs>
  <g id="ic-card-payment" transform="translate(-18482 -13460.518)">
    <g id="layer1" transform="translate(18259.297 12927.125)">
      <g id="g10267" transform="translate(334.703 537.424)">
        <g id="g10269" transform="translate(0 0)" clip-path="url(#clip-path)">
          <g id="g10275" transform="translate(-5.746 -17.793)">
            <path id="path10283" d="M0-160.8,54.061-180.7l12.3,33.4L12.3-127.4" transform="translate(0 180.705)" fill="url(#linear-gradient)"/>
          </g>
        </g>
      </g>
    </g>
    <g id="Mastercard_2019_logo" transform="translate(18532.998 13456.64)">
      <rect id="rect887" width="11.725" height="19.151" transform="translate(18.846 7.603)" fill="#ff5f00"/>
      <path id="path889" d="M20.054,17.253a12.158,12.158,0,0,1,4.652-9.574,12.179,12.179,0,1,0,0,19.151A12.158,12.158,0,0,1,20.054,17.253Z" transform="translate(0 -0.073)" fill="#eb001b"/>
      <path id="path891" d="M622.544,318.177v-.392h.169V317.7h-.4v.081h.159v.392Zm.781,0V317.7H623.2l-.142.338-.142-.338H622.8v.474h.088v-.359l.132.308h.091l.132-.308v.359Z" transform="translate(-579.296 -293.45)" fill="#f79e1b"/>
      <path id="path893" d="M344.691,17.18a12.179,12.179,0,0,1-19.706,9.574,12.179,12.179,0,0,0,0-19.151,12.179,12.179,0,0,1,19.706,9.574Z" transform="translate(-300.28)" fill="#f79e1b"/>
    </g>
    <g id="layer1-2" data-name="layer1" transform="translate(18426.5 12452.168)">
      <path id="path3078" d="M55.5,1008.35H96.051v13.671l-2.007,3.136,2.007,2.791v5.883H55.5v-13.786l1.254-1.443-1.254-1.38Z" transform="translate(0 0)" fill="#016fd0"/>
      <path id="path3082" d="M249.14,1547.2v-6.366h6.741l.723.943.747-.943h24.468v5.927a2.823,2.823,0,0,1-1.38.439H266.891l-.815-1v1H263.4v-1.713a2.243,2.243,0,0,1-1.154.239h-.91v1.474h-4.046l-.722-.963-.733.963Z" transform="translate(-185.769 -518.81)" fill="#fff"/>
      <path id="path3080" d="M55.5,1339.167l1.52-3.544h2.629l.863,1.985v-1.985h3.268l.514,1.435.5-1.435H79.46v.721a3.165,3.165,0,0,1,2.039-.721l4.76.017.848,1.959v-1.976h2.735l.753,1.125v-1.125h2.76v6.366h-2.76l-.721-1.129v1.129H85.854l-.4-1H84.37l-.4,1H81.248a2.694,2.694,0,0,1-1.788-.707v.707H75.352l-.815-1v1H59.259l-.4-1H57.779l-.4,1H55.5Z" transform="translate(0 -321.945)" fill="#fff"/>
      <path id="path3046" d="M57.743,1354.93l-2.05,4.767h1.335l.378-.954h2.2l.376.954h1.364L59.3,1354.93Zm.759,1.109.67,1.668H57.829Z" transform="translate(-0.185 -340.466)" fill="#016fd0"/>
      <path id="path3048" d="M198.223,1359.673v-4.767l1.9.007,1.1,3.074,1.077-3.081h1.882v4.767H202.99v-3.513l-1.263,3.513h-1.045l-1.267-3.513v3.513Z" transform="translate(-136.921 -340.443)" fill="#016fd0"/>
      <path id="path3050" d="M364.861,1359.673v-4.767h3.889v1.066h-2.685v.816h2.622v1h-2.622v.847h2.685v1.035Z" transform="translate(-296.785 -340.443)" fill="#016fd0"/>
      <path id="path3052" d="M477.5,1354.93v4.767h1.192V1358h.5l1.429,1.693h1.456l-1.568-1.756a1.452,1.452,0,0,0,1.307-1.464,1.542,1.542,0,0,0-1.666-1.547Zm1.192,1.066h1.362a.547.547,0,0,1,.564.5.538.538,0,0,1-.547.5h-1.38Z" transform="translate(-404.842 -340.466)" fill="#016fd0"/>
      <path id="path3054" d="M596.9,1359.673h-1.217v-4.767H596.9Z" transform="translate(-518.227 -340.443)" fill="#016fd0"/>
      <path id="path3056" d="M642.2,1359.673h-.263a2.1,2.1,0,0,1-2.042-2.364,2.184,2.184,0,0,1,2.368-2.4h1.317v1.129h-1.365a1.147,1.147,0,0,0-1.112,1.286,1.167,1.167,0,0,0,1.286,1.311h.314Z" transform="translate(-560.636 -340.443)" fill="#016fd0"/>
      <path id="path3058" d="M712,1354.93l-2.05,4.767h1.335l.378-.954h2.2l.376.954H715.6l-2.048-4.767Zm.759,1.109.67,1.668h-1.343Z" transform="translate(-627.848 -340.466)" fill="#016fd0"/>
      <path id="path3060" d="M852.433,1359.673v-4.767h1.515l1.935,3v-3h1.192v4.767h-1.466l-1.984-3.073v3.073Z" transform="translate(-764.536 -340.443)" fill="#016fd0"/>
      <path id="path3062" d="M269.2,1564.893v-4.767h3.889v1.066H270.4v.815h2.622v1H270.4v.847h2.685v1.035Z" transform="translate(-205.011 -537.321)" fill="#016fd0"/>
      <path id="path3064" d="M737.947,1564.893v-4.767h3.889v1.066h-2.685v.815h2.609v1h-2.609v.847h2.685v1.035Z" transform="translate(-654.705 -537.321)" fill="#016fd0"/>
      <path id="path3066" d="M367.51,1564.893l1.893-2.354-1.939-2.413h1.5l1.154,1.492,1.158-1.492h1.443l-1.913,2.384,1.9,2.384h-1.5l-1.121-1.468-1.094,1.468Z" transform="translate(-299.283 -537.32)" fill="#016fd0"/>
      <path id="path3068" d="M499.869,1560.14v4.767h1.223V1563.4h1.255a1.649,1.649,0,0,0,1.866-1.658,1.569,1.569,0,0,0-1.711-1.6Zm1.223,1.078h1.321a.538.538,0,0,1,.588.549.55.55,0,0,1-.592.549h-1.317Z" transform="translate(-426.305 -537.334)" fill="#016fd0"/>
      <path id="path3072" d="M619.448,1560.12v4.767h1.192v-1.693h.5l1.429,1.693h1.456l-1.568-1.756a1.452,1.452,0,0,0,1.307-1.464,1.542,1.542,0,0,0-1.666-1.547Zm1.192,1.066H622a.547.547,0,0,1,.565.5.539.539,0,0,1-.547.5h-1.38Z" transform="translate(-541.023 -537.315)" fill="#016fd0"/>
      <path id="path3074" d="M843.616,1564.893v-1.035H846c.353,0,.506-.191.506-.4s-.152-.4-.506-.4h-1.078a1.333,1.333,0,0,1-1.459-1.428c0-.764.478-1.5,1.87-1.5h2.321l-.5,1.073h-2.007c-.384,0-.5.2-.5.394a.416.416,0,0,0,.439.416h1.129a1.308,1.308,0,0,1,1.5,1.368,1.429,1.429,0,0,1-1.554,1.517Z" transform="translate(-755.933 -537.32)" fill="#016fd0"/>
      <path id="path3076" d="M951.213,1564.893v-1.035H953.6c.353,0,.506-.191.506-.4s-.152-.4-.506-.4H952.52a1.333,1.333,0,0,1-1.458-1.428c0-.764.478-1.5,1.87-1.5h2.321l-.5,1.073h-2.007c-.384,0-.5.2-.5.394a.416.416,0,0,0,.439.416h1.129a1.307,1.307,0,0,1,1.5,1.368,1.429,1.429,0,0,1-1.554,1.517Z" transform="translate(-859.156 -537.32)" fill="#016fd0"/>
    </g>
  </g>
</svg>
