<svg xmlns="http://www.w3.org/2000/svg" width="18" height="18" viewBox="0 0 18 18">
  <g id="ic-discount" transform="translate(-693 -357)">
    <path id="Polygon_5" data-name="Polygon 5" d="M12.728,0l1.618,3.654L18,5.272,16.56,9,18,12.728l-3.654,1.618L12.728,18,9,16.56,5.272,18,3.654,14.346,0,12.728,1.44,9,0,5.272,3.654,3.654,5.272,0,9,1.44Z" transform="translate(693 357)" fill="#cb8823"/>
    <path id="Path_2761" data-name="Path 2761" d="M-7.183-4.477c-.616,0-.869-.495-.869-1.188s.264-1.21.88-1.21.88.506.88,1.2S-6.567-4.477-7.183-4.477Zm4.3-3.311a.034.034,0,0,1-.011.022L-7.843.22H-6.6l4.939-7.964c.011-.011.011-.022.022-.044ZM-7.194-3.542A2.005,2.005,0,0,0-5.17-5.676v-.011a1.94,1.94,0,0,0-2-2.112A1.944,1.944,0,0,0-9.108-5.665,1.913,1.913,0,0,0-7.194-3.542Zm3.08,1.529V-2A1.937,1.937,0,0,0-2.123.088,1.953,1.953,0,0,0-.187-2.035a1.9,1.9,0,0,0-1.991-2.1,1.766,1.766,0,0,0-1.969,1.76A2.025,2.025,0,0,0-4.114-2.013ZM-2.1-.836c-.616,0-.88-.484-.88-1.166s.1-1.21.792-1.21.946.5.946,1.177S-1.485-.836-2.1-.836Z" transform="translate(707 370)" fill="#fff"/>
  </g>
</svg>
