<svg xmlns="http://www.w3.org/2000/svg" width="80.701" height="106.24" viewBox="0 0 80.701 106.24">
  <g id="ic-excellent" transform="translate(-18327 -15768)">
    <g id="Group_394" data-name="Group 394" transform="translate(17755.279 14899.708)">
      <g id="Ellipse_101" data-name="Ellipse 101" transform="translate(578.22 867.792)">
        <circle id="Ellipse_106" data-name="Ellipse 106" cx="35" cy="35" r="35" transform="translate(-0.499 0.5)" fill="#ffe856"/>
      </g>
      <g id="Ellipse_102" data-name="Ellipse 102" transform="translate(597.729 888.448)">
        <ellipse id="Ellipse_107" data-name="Ellipse 107" cx="6.5" cy="8.5" rx="6.5" ry="8.5" transform="translate(-0.008 -1.156)" fill="#fff"/>
      </g>
      <g id="Ellipse_103" data-name="Ellipse 103" transform="translate(616.089 888.448)">
        <ellipse id="Ellipse_108" data-name="Ellipse 108" cx="6.5" cy="8.5" rx="6.5" ry="8.5" transform="translate(-0.369 -1.156)" fill="#fff"/>
      </g>
      <g id="Ellipse_104" data-name="Ellipse 104" transform="translate(601.171 893.038)">
        <ellipse id="Ellipse_109" data-name="Ellipse 109" cx="3" cy="4" rx="3" ry="4" transform="translate(0.55 -0.746)"/>
      </g>
      <g id="Ellipse_105" data-name="Ellipse 105" transform="translate(619.532 893.038)">
        <ellipse id="Ellipse_110" data-name="Ellipse 110" cx="3" cy="4" rx="3" ry="4" transform="translate(-0.811 -0.746)"/>
      </g>
      <g id="Path_2925" data-name="Path 2925" transform="translate(590.703 907.03)">
        <path id="Path_2930" data-name="Path 2930" d="M611.13,919.322c-16.814,0-21.93-15.688-21.979-15.848a1.147,1.147,0,0,1,2.19-.687c.184.581,4.685,14.24,19.789,14.24,15.066,0,18.947-13.615,19.1-14.194a1.147,1.147,0,0,1,2.216.6C632.408,903.589,627.98,919.322,611.13,919.322Z" transform="translate(-589.098 -901.985)"/>
      </g>
      <g id="Path_2926" data-name="Path 2926" transform="translate(585.823 903.265)">
        <path id="Path_2931" data-name="Path 2931" d="M589.122,903.3a5.247,5.247,0,0,1-4.069-1.863.886.886,0,0,1,1.357-1.141,3.453,3.453,0,0,0,2.652,1.235h.012c1.079-.095,2.021-1.688,2.285-2.292a.887.887,0,0,1,1.627.707c-.139.322-1.432,3.15-3.834,3.355Z" transform="translate(-583.636 -898.027)"/>
        <path id="Path_2935" data-name="Path 2935" d="M588.782,903.3a5.246,5.246,0,0,0,4.068-1.863.886.886,0,1,0-1.357-1.141,3.453,3.453,0,0,1-2.652,1.235h-.012c-1.079-.095-2.021-1.688-2.285-2.293a.887.887,0,0,0-1.627.707c.139.322,1.431,3.15,3.833,3.355Z" transform="translate(-541.636 -898.027)"/>
      </g>
      <g id="Path_2928" data-name="Path 2928" transform="translate(594.74 881.408)">
        <path id="Path_2933" data-name="Path 2933" d="M593.477,886.437a.845.845,0,0,1-.319-.061.861.861,0,0,1-.481-1.117c.068-.169,1.694-4.168,5.33-5.329a10.537,10.537,0,0,1,7.615.94.86.86,0,0,1-1.071,1.347c-.032-.026-3.222-1.546-6.02-.648-2.854.911-4.243,4.293-4.256,4.327A.859.859,0,0,1,593.477,886.437Z" transform="translate(-592.616 -879.657)"/>
      </g>
      <g id="Path_2928-2" data-name="Path 2928" transform="translate(618.74 881.31)">
        <path id="Path_2933-2" data-name="Path 2933" d="M605.086,886.437a.845.845,0,0,0,.319-.061.861.861,0,0,0,.481-1.117c-.068-.169-1.694-4.168-5.33-5.329a10.536,10.536,0,0,0-7.615.94.86.86,0,0,0,1.071,1.347c.032-.026,3.222-1.546,6.02-.648,2.854.911,4.242,4.293,4.256,4.327A.859.859,0,0,0,605.086,886.437Z" transform="translate(-592.616 -879.559)"/>
      </g>
    </g>
    <path id="Path_2980" data-name="Path 2980" d="M-31.54-8.26h-6.48V-13.1h6.76l.12-1.5h-8.6V0H-31l.16-1.52h-7.18V-6.76h6.48Zm9.88-2.46-2.92,4.06-2.9-4.06h-1.88l3.82,5.3L-29.46,0h1.88l3.02-4.28L-21.54,0h1.78L-23.6-5.4l3.84-5.32ZM-10.44-.74a4.353,4.353,0,0,1-2.9.98c-3.34,0-5.16-2.62-5.16-5.6.02-2.96,1.94-5.62,5.14-5.62a4.289,4.289,0,0,1,2.92.94l-.42,1.16a4.527,4.527,0,0,0-2.52-.74c-1.96,0-3.46,1.82-3.46,4.3,0,2.46,1.44,4.22,3.58,4.22a4.312,4.312,0,0,0,2.42-.8ZM-4,.24c-3.06,0-4.92-2.18-4.92-5.62,0-3.2,1.92-5.52,4.72-5.6C-1.54-10.98.12-8.96.12-5.8c0,.16-.02.56-.02.74H-7.24c0,2.42,1.42,3.9,3.3,3.9A5.9,5.9,0,0,0-.54-2.24l.5,1.2A6.009,6.009,0,0,1-4,.24ZM-7.18-6.2h5.72c0-2.28-1.14-3.44-2.74-3.44C-5.82-9.64-7-8.3-7.18-6.2Zm11.4-8.54-1.64.18v9.98C2.58-1.02,2.64.2,5.28.2A6.738,6.738,0,0,0,6.38.08L6.28-1.2c-.5.04-.64.06-.88.06-1.12,0-1.18-.72-1.18-3.06Zm5.64,0-1.64.18v9.98c0,3.56.06,4.78,2.7,4.78a6.738,6.738,0,0,0,1.1-.12l-.1-1.28c-.5.04-.64.06-.88.06-1.12,0-1.18-.72-1.18-3.06ZM18.14.24c-3.06,0-4.92-2.18-4.92-5.62,0-3.2,1.92-5.52,4.72-5.6,2.66,0,4.32,2.02,4.32,5.18,0,.16-.02.56-.02.74H14.9c0,2.42,1.42,3.9,3.3,3.9a5.9,5.9,0,0,0,3.4-1.08l.5,1.2A6.009,6.009,0,0,1,18.14.24ZM14.96-6.2h5.72c0-2.28-1.14-3.44-2.74-3.44C16.32-9.64,15.14-8.3,14.96-6.2Zm14.82-4.78a4.837,4.837,0,0,0-3.82,1.84l-.14-1.58H24.4l.04,2.6V0h1.64V-7.32a3.53,3.53,0,0,1,3.34-2.26c1.98,0,2.1,1.42,2.1,4.2V0h1.64V-6.42C33.16-9.42,32.14-10.98,29.78-10.98Zm8.16,1.4h2.84v-1.14H37.94v-3.56l-1.22.1-.42,3.46H34.8l-.14,1.14H36.3v5.24c0,3.26.2,4.54,2.8,4.54.34,0,.64-.04,1.86-.14l-.14-1.32c-.76.06-1.16.1-1.34.1-1.3,0-1.54-.42-1.54-2.42Z" transform="translate(18366.74 15874)"/>
  </g>
</svg>
