<svg xmlns="http://www.w3.org/2000/svg" width="246.818" height="69" viewBox="0 0 246.818 69">
  <g id="ic-feedback-hotels" transform="translate(-260.401 -829)">
    <g id="indus-logo" transform="translate(260.401 829)">
      <path id="Path_2627" data-name="Path 2627" d="M44.442,0A21.613,21.613,0,0,0,40.1.4h-.033L8.193,8.394C5.25,9.062,2.575,11.7,2.575,14.848V42.5c0,3.11,2.709,5.785,5.618,6.454l2.374.6C8.828,50.6,7.123,51.7,5.451,52.9c-.334.268-.7.5-1.037.769L0,56.949l5.451.836c.334.067.669.1,1,.167,1.037.167,2.073.4,3.077.635q-.2,1.705-.3,3.411c-.033.334-.033.669-.067,1.037l-.134,4.882,3.913-2.943.8-.6c6.153-4.414,12.44-6.621,19.362-9.2l6.956,1.739H40.1a23.749,23.749,0,0,0,8.695,0h.033l6.956-1.739c6.956,2.575,13.242,4.749,19.362,9.2l.8.6,3.913,2.943L79.655,63c0-.334-.033-.669-.067-1.037q-.1-1.705-.3-3.411c1.037-.234,2.04-.435,3.077-.635.334-.067.669-.1,1-.167l5.451-.836L84.4,53.605c-.334-.268-.7-.5-1.037-.769a58.468,58.468,0,0,0-5.116-3.344l2.374-.6c2.943-.669,5.618-3.311,5.618-6.454V14.848c0-3.11-2.709-5.785-5.618-6.454L48.823.435H48.79A19.132,19.132,0,0,0,44.442,0" transform="translate(0 0)" fill="#dd137b" fill-rule="evenodd"/>
      <path id="Path_2628" data-name="Path 2628" d="M14.434,19.473c0-1.839,1.739-3.712,3.846-4.18L50.148,7.3a21.235,21.235,0,0,1,7.691,0l31.869,7.992c2.107.468,3.846,2.341,3.846,4.18V47.129c0,1.839-1.739,3.712-3.846,4.18l-6.655,1.672-.468.97A64.14,64.14,0,0,1,91.614,59.4c.334.234.669.5,1,.736-.368.067-.7.1-1.07.167a52.816,52.816,0,0,0-5.284,1.17c.268,1.772.435,3.545.535,5.284.033.334.033.669.033.97-.268-.2-.568-.4-.836-.635a53.529,53.529,0,0,0-11.3-6.253c-.167-.067-.3-.134-.468-.2a2.323,2.323,0,0,0,.167-.435l.736-1.839a53.4,53.4,0,0,0-5.785-1.94l-11.57,2.909a21.235,21.235,0,0,1-7.691,0l-11.57-2.909a58.718,58.718,0,0,0-5.785,1.94l.736,1.839a2.322,2.322,0,0,1,.167.435c-.167.067-.3.134-.468.2a55.95,55.95,0,0,0-11.3,6.253,7.853,7.853,0,0,0-.836.635c0-.334.033-.669.033-.97.1-1.739.3-3.511.535-5.284a52.816,52.816,0,0,0-5.284-1.17,10.241,10.241,0,0,0-1.07-.167c.334-.234.669-.5,1-.736a64.141,64.141,0,0,1,9.029-5.451l-.468-.97-6.655-1.672c-2.107-.468-3.846-2.341-3.846-4.18V19.473Z" transform="translate(-9.518 -4.626)" fill="#d9ba00"/>
      <path id="Path_2629" data-name="Path 2629" d="M14.7,19.473c0-1.839,1.739-3.712,3.846-4.18L50.414,7.3a21.235,21.235,0,0,1,7.691,0l31.869,7.992c2.107.468,3.846,2.341,3.846,4.18V47.129c0,1.839-1.739,3.712-3.846,4.18L58.106,59.3a21.236,21.236,0,0,1-7.691,0L18.546,51.309c-2.107-.468-3.846-2.341-3.846-4.18Z" transform="translate(-9.784 -4.626)" fill="#d9ba00"/>
      <path id="Path_2630" data-name="Path 2630" d="M61.016,63.047a15.444,15.444,0,0,1-3.077-.268L26.07,54.787a1.727,1.727,0,0,1-1.17-.9V26.363a1.823,1.823,0,0,1,1.17-.9l31.869-7.992a15.689,15.689,0,0,1,3.077-.268,16.059,16.059,0,0,1,3.11.268L95.995,25.46a1.727,1.727,0,0,1,1.17.9V53.918a1.823,1.823,0,0,1-1.17.9L64.126,62.813a19.359,19.359,0,0,1-3.11.234" transform="translate(-16.573 -11.448)" fill="#d9ba00"/>
      <path id="Path_2631" data-name="Path 2631" d="M55.957,10.686h0a16.9,16.9,0,0,0-3.444.3L20.677,18.98A2.943,2.943,0,0,0,18.3,21.32V48.976c0,.936,1.137,2.073,2.374,2.341l31.869,7.992a19.668,19.668,0,0,0,6.855,0L91.27,51.35a2.943,2.943,0,0,0,2.374-2.341V21.32c0-.936-1.137-2.073-2.374-2.341l-31.9-7.992a16.105,16.105,0,0,0-3.411-.3m0,49.893a18.557,18.557,0,0,1-3.645-.334L20.443,52.286A3.913,3.913,0,0,1,17.3,48.976V21.32c0-1.4,1.438-2.909,3.143-3.311l31.869-7.959a20.538,20.538,0,0,1,7.29,0l31.9,7.992c1.672.368,3.143,1.906,3.143,3.311V49.009c0,1.4-1.438,2.909-3.143,3.311L59.636,60.279A19.438,19.438,0,0,1,55.957,60.58Z" transform="translate(-11.515 -6.473)" fill="#032b4d"/>
      <path id="Path_2632" data-name="Path 2632" d="M194.6,150.394c1.137-2.809,2.274-5.585,3.377-8.394a63.432,63.432,0,0,1,13.978,7.825,50.143,50.143,0,0,0-5.986,1.338c.3,2.006.5,3.979.6,5.952a55.044,55.044,0,0,0-11.972-6.722" transform="translate(-129.525 -94.514)" fill="#032b4d"/>
      <path id="Path_2633" data-name="Path 2633" d="M211.925,149.427h0c-.334-.234-.669-.5-1-.736a65.275,65.275,0,0,0-13.242-7.357c-.2-.067-.368-.167-.568-.234a2.324,2.324,0,0,0-.167.435c-1.07,2.642-2.107,5.317-3.177,7.959a2.319,2.319,0,0,0-.167.435c.167.067.334.134.468.2a55.953,55.953,0,0,1,11.3,6.253c.268.2.568.4.836.635,0-.334-.033-.669-.033-.97-.1-1.739-.268-3.511-.535-5.284a52.805,52.805,0,0,1,5.284-1.17,8.966,8.966,0,0,1,1-.167m-1.271-.368a51.473,51.473,0,0,0-5.651,1.3c.3,1.906.5,3.779.635,5.651a56.093,56.093,0,0,0-11.4-6.32c1.07-2.642,2.174-5.284,3.244-7.925A63.616,63.616,0,0,1,210.655,149.059Z" transform="translate(-128.859 -93.915)" fill="#d9ba00"/>
      <path id="Path_2634" data-name="Path 2634" d="M24.684,157.115c.1-1.973.3-3.946.6-5.952-1.94-.535-3.913-.97-5.986-1.338A64.82,64.82,0,0,1,33.278,142c1.137,2.809,2.274,5.585,3.377,8.394a55.833,55.833,0,0,0-11.972,6.722" transform="translate(-12.846 -94.514)" fill="#032b4d"/>
      <path id="Path_2635" data-name="Path 2635" d="M32.214,141.1h0a4.079,4.079,0,0,0-.568.234A65.274,65.274,0,0,0,18.4,148.691c-.334.234-.669.5-1,.736.368.067.7.1,1.07.167a52.806,52.806,0,0,1,5.284,1.17c-.268,1.772-.435,3.545-.535,5.284-.033.334-.033.669-.033.97.268-.2.568-.4.836-.635a53.53,53.53,0,0,1,11.3-6.253c.167-.067.3-.134.468-.2-.067-.134-.1-.3-.167-.435-1.07-2.642-2.107-5.317-3.177-7.959-.1-.167-.167-.3-.234-.435m-.368.669c1.07,2.642,2.174,5.284,3.244,7.925a57,57,0,0,0-11.4,6.32c.134-1.873.334-3.745.635-5.651a51.465,51.465,0,0,0-5.651-1.3A65.376,65.376,0,0,1,31.846,141.769Z" transform="translate(-11.581 -93.915)" fill="#d9ba00"/>
      <path id="Path_2636" data-name="Path 2636" d="M46.75,129.974c-1.739-3.578-3.511-7.123-5.25-10.7a69.43,69.43,0,0,1,61.163,0c-1.739,3.578-3.511,7.123-5.25,10.7a57.6,57.6,0,0,0-50.662,0" transform="translate(-27.622 -74.663)" fill="#032b4d"/>
      <path id="Path_2637" data-name="Path 2637" d="M102.3,118.79h0c-.167-.1-.368-.167-.535-.268a69.748,69.748,0,0,0-60.795,0c-.2.1-.368.167-.568.268l.2.4c1.705,3.411,3.411,6.855,5.083,10.266l.2.4a3.056,3.056,0,0,0,.468-.234,57.268,57.268,0,0,1,49.994,0,3.059,3.059,0,0,1,.468.234l.2-.4c1.705-3.411,3.411-6.855,5.083-10.266l.2-.4m-.769.134c-1.672,3.444-3.344,6.889-5.016,10.3a57.691,57.691,0,0,0-50.395,0c-1.672-3.444-3.344-6.889-5.016-10.3A69.4,69.4,0,0,1,101.529,118.924Z" transform="translate(-26.89 -74.247)" fill="#d9ba00"/>
      <path id="Path_2638" data-name="Path 2638" d="M59.6,130.209c0-.033-.033-.067-.033-.134a1.553,1.553,0,0,0-.1-.3c0-.033-.033-.067-.067-.167a1.632,1.632,0,0,0-.1-.234c.568-.167,1.07-.334,1.538-.5s.9-.3,1.271-.435c.334-.1.7-.268,1.137-.4.435-.167.9-.334,1.438-.535l.769,2.207a.976.976,0,0,1-.3.067c-.1.033-.2.067-.334.1a3.48,3.48,0,0,0-.334.134,2.306,2.306,0,0,0-.268.1l-.5-1.438c-.134.067-.3.1-.435.167-.167.067-.368.134-.635.234-.134.033-.234.1-.368.134-.1.033-.234.067-.368.1l.7,1.973,1.4-.535c0,.033.033.067.033.1.067.2.1.334.134.4s.067.2.167.4a.117.117,0,0,0,.033.067l-1.438.435.769,2.274a2.943,2.943,0,0,1,.5-.167c.167-.067.3-.1.468-.167a3.584,3.584,0,0,0,.568-.2c.167-.067.334-.1.5-.167l-.6-1.705a1.033,1.033,0,0,1,.268-.067c.1-.033.2-.067.368-.134a1.718,1.718,0,0,0,.334-.134c.1-.033.167-.067.268-.1l.869,2.475c-.669.2-1.237.4-1.739.569s-.9.3-1.237.4c-.268.1-.635.234-1.037.368-.4.167-.97.368-1.672.635a.693.693,0,0,0-.067-.2c-.033-.1-.033-.167-.067-.2a.253.253,0,0,0-.067-.134,1.133,1.133,0,0,1-.1-.268l.836-.2-1.772-5.116Z" transform="translate(-39.47 -84.863)" fill="#d9ba00"/>
      <path id="Path_2639" data-name="Path 2639" d="M79.6,123.5c.368-.067.669-.1.936-.167.268-.033.5-.1.7-.134s.435-.1.7-.167.568-.134.9-.234c0,.1.033.167.033.234a1.448,1.448,0,0,0,.033.167,1.314,1.314,0,0,0,.067.2,1.313,1.313,0,0,1,.067.2l-.769.1,1.5,1.5.7-1.94-.7.2V123.4a2.492,2.492,0,0,0-.067-.368c0-.067-.033-.134-.033-.2a.475.475,0,0,0-.067-.2c.268-.033.468-.067.7-.1.2-.033.4-.067.535-.1.167-.033.368-.067.6-.134q.3-.1.7-.2a.5.5,0,0,0,.033.234c0,.067.033.134.033.2s.033.1.033.167a2.129,2.129,0,0,1,.067.234l-.736.1-1.137,2.809,2.508,2.441.736-.234a1.186,1.186,0,0,1,.033.234,1.886,1.886,0,0,0,.033.234,1.314,1.314,0,0,0,.067.2c.033.1.033.167.067.2-.334.067-.669.1-.936.167-.268.033-.535.1-.736.134s-.568.134-1.1.268a1.509,1.509,0,0,1-.435.1c0-.067-.033-.134-.033-.2s-.033-.134-.033-.234c0-.033-.033-.134-.067-.268,0-.067-.033-.1-.033-.134l.736-.067-1.672-1.639-.8,2.14.8-.234a.424.424,0,0,0,.033.2c0,.067.033.134.033.234,0,.067.033.134.033.2a.475.475,0,0,0,.067.2c-.3.033-.569.1-.8.134s-.435.067-.6.1c-.134.033-.3.067-.5.134a7.281,7.281,0,0,1-.736.2c0-.1-.033-.2-.033-.268a1.448,1.448,0,0,0-.033-.167,1.448,1.448,0,0,1-.033-.167,2.135,2.135,0,0,1-.067-.234l.769-.1,1.2-3.043L80.6,124.14l-.769.2c0-.1-.033-.167-.033-.234a1.447,1.447,0,0,0-.033-.167,1.449,1.449,0,0,1-.033-.167.5.5,0,0,1-.134-.268" transform="translate(-52.981 -81.269)" fill="#d9ba00"/>
      <path id="Path_2640" data-name="Path 2640" d="M105.141,121.663h0l.268,2.642.435-.033a1.41,1.41,0,0,0,1-.435,1.378,1.378,0,0,0,.234-1.037,1.181,1.181,0,0,0-.468-.97,1.736,1.736,0,0,0-1.237-.2Zm-2.475.3v-.435a.364.364,0,0,0-.033-.167c0-.067-.033-.134-.033-.234.368-.033.669-.033.97-.067.268-.033.535-.033.769-.067.167,0,.435-.067.836-.1.4-.067.736-.1,1-.134a2.569,2.569,0,0,1,1.772.334,2.113,2.113,0,0,1,.7,1.572,2.053,2.053,0,0,1-.4,1.639,2.7,2.7,0,0,1-1.705.7c-.134,0-.3.033-.468.033-.2,0-.4.033-.6.033l.2,1.973.836-.134v.435a.424.424,0,0,0,.033.2c0,.067.033.167.033.234-.368.033-.7.033-.97.067s-.5.033-.669.067-.4.033-.7.067-.6.1-1,.134v-.435a.364.364,0,0,0-.033-.167c0-.067-.033-.167-.033-.268l.869-.033-.535-5.384Z" transform="translate(-68.29 -80.364)" fill="#d9ba00"/>
      <path id="Path_2641" data-name="Path 2641" d="M125.508,120.569h0v2.241h.368a1.322,1.322,0,0,0,.9-.268.984.984,0,0,0,.268-.869,1.017,1.017,0,0,0-.3-.836,1.384,1.384,0,0,0-.9-.268Zm-2.475.067V120a.653.653,0,0,0-.033-.234h1.605c.234,0,.568,0,.97-.033.4,0,.7-.033.869-.033a2.8,2.8,0,0,1,1.672.4,1.708,1.708,0,0,1,.535,1.338,1.559,1.559,0,0,1-.334,1.1,1.525,1.525,0,0,1-1.07.468,2.918,2.918,0,0,1,1.471.334,1.612,1.612,0,0,1,.334,1.237v.368a1.111,1.111,0,0,0,.134.669.6.6,0,0,0,.435.2h.234v.8h-1.438a1.178,1.178,0,0,1-.869-.234,1.556,1.556,0,0,1-.234-.97v-.869c0-.5-.067-.836-.234-.936-.134-.134-.5-.167-1.037-.167h-.568l.033,2.408.869-.067v.836h-.468c-.6-.033-.97-.033-1.17-.033a5.7,5.7,0,0,0-.7.033c-.268,0-.6.033-1,.033v-.635a.5.5,0,0,0-.033-.234l.869.067-.033-5.384Z" transform="translate(-81.868 -79.672)" fill="#d9ba00"/>
      <path id="Path_2642" data-name="Path 2642" d="M145.3,120.869a.253.253,0,0,1,.033-.134,1.152,1.152,0,0,0,.033-.3V120c.569.067,1.137.134,1.605.2.5.067.936.1,1.338.134q.5.05,1.2.1c.468.033.97.067,1.538.1l-.234,2.307c-.1,0-.2-.033-.3-.033s-.2-.033-.368-.033c-.134,0-.268-.033-.368-.033h-.3l.134-1.538c-.134,0-.3-.033-.468-.033s-.368-.033-.669-.067c-.134,0-.268-.033-.368-.033-.134,0-.234-.033-.368-.033l-.2,2.073,1.5.1v.1a2.363,2.363,0,0,1-.067.4,2.6,2.6,0,0,1-.033.435v.067l-1.471-.2-.234,2.374c.167,0,.368.033.535.033s.334.033.5.033c.234.033.435.033.6.067s.334.033.535.067l.167-1.806a.926.926,0,0,0,.3.033c.1,0,.234.033.368.033s.267.033.368.033h.3l-.234,2.608c-.7-.1-1.3-.167-1.806-.234-.535-.067-.936-.1-1.3-.134q-.451-.05-1.1-.1c-.435-.033-1.037-.067-1.772-.134a.424.424,0,0,1,.033-.2.589.589,0,0,0,.033-.2v-.435l.836.167.5-5.384Z" transform="translate(-96.312 -79.871)" fill="#d9ba00"/>
      <path id="Path_2643" data-name="Path 2643" d="M169.983,124.221l.134-.6,1.3.268-.435,2.14-1.3-.268.033-.134a1.22,1.22,0,0,0-.1-1,1.137,1.137,0,0,0-.8-.468,1.154,1.154,0,0,0-.836.1.892.892,0,0,0-.435.635.914.914,0,0,0,.134.8,3.075,3.075,0,0,0,1.237.635h0a3.452,3.452,0,0,1,1.572.869,1.8,1.8,0,0,1,.334.769,2.21,2.21,0,0,1,0,.936,2.029,2.029,0,0,1-.936,1.371,2.279,2.279,0,0,1-1.772.234,2.938,2.938,0,0,1-1.037-.435,2.555,2.555,0,0,1-.736-.836l-.134.7-1.3-.268.468-2.241,1.3.268-.033.1a1.419,1.419,0,0,0,.167,1.137,1.522,1.522,0,0,0,1,.6,1.314,1.314,0,0,0,.9-.1,1.061,1.061,0,0,0,.3-1.5,3.206,3.206,0,0,0-1.237-.6,3.324,3.324,0,0,1-1.672-.97,1.918,1.918,0,0,1-.2-1.538,2.242,2.242,0,0,1,.9-1.471,2.154,2.154,0,0,1,1.672-.268,2,2,0,0,1,.936.4,1.524,1.524,0,0,1,.568.736" transform="translate(-109.757 -81.886)" fill="#d9ba00"/>
      <path id="Path_2644" data-name="Path 2644" d="M188.952,129.586l.2-.6,1.271.435-.7,2.073-1.271-.435.033-.134a1.491,1.491,0,0,0,.033-1,1.094,1.094,0,0,0-.736-.568,1.19,1.19,0,0,0-.836,0,1.1,1.1,0,0,0-.468,1.4,3.336,3.336,0,0,0,1.137.769h0a3.763,3.763,0,0,1,1.471,1.037,2.071,2.071,0,0,1,.268.8,1.832,1.832,0,0,1-.134.936,2.089,2.089,0,0,1-1.1,1.271,2.478,2.478,0,0,1-1.772.033,2.916,2.916,0,0,1-1-.568,2.582,2.582,0,0,1-.635-.9l-.234.7L183.2,134.4l.736-2.174,1.271.435-.033.1a1.463,1.463,0,0,0,.033,1.137,1.738,1.738,0,0,0,1.839.736.885.885,0,0,0,.535-.6.9.9,0,0,0-.067-.836,2.829,2.829,0,0,0-1.137-.769,3.337,3.337,0,0,1-1.538-1.17,1.866,1.866,0,0,1-.033-1.538,2.1,2.1,0,0,1,1.07-1.338,2.064,2.064,0,0,1,1.672-.067,2.894,2.894,0,0,1,.9.5,1.3,1.3,0,0,1,.5.769" transform="translate(-121.937 -85.311)" fill="#d9ba00"/>
      <path id="Path_2645" data-name="Path 2645" d="M42.013,64.337H38V64.2c.435,0,.635-.368.635-1.07V54.1c0-.7-.2-1.07-.635-1.07V52.9h4.013v.134c-.435,0-.635.334-.635,1.037v9.062c0,.7.2,1.037.635,1.037Z" transform="translate(-25.293 -35.21)" fill="#032b4d"/>
      <path id="Path_2646" data-name="Path 2646" d="M77.63,64.337H73.617V64.2c.435,0,.669-.368.669-1.07v-.2l-2.709-4.046v4.28c0,.7.234,1.037.635,1.037v.134H68.2V64.2c.435,0,.635-.368.635-1.07V54.1c0-.7-.2-1.07-.635-1.07V52.9h4.013v.134c-.435,0-.635.334-.635,1.037V54.3l2.709,4.046V54.1c0-.7-.234-1.07-.669-1.07V52.9h4.046v.134c-.435,0-.669.334-.669,1.037v9.062c0,.7.234,1.037.669,1.037v.167Z" transform="translate(-45.394 -35.21)" fill="#032b4d"/>
      <path id="Path_2647" data-name="Path 2647" d="M166.9,53.034a.588.588,0,0,0-.568.334,1.524,1.524,0,0,0-.134.736v4.849a7.828,7.828,0,0,1-.3,2.408,3.838,3.838,0,0,1-1.338,1.873,4.358,4.358,0,0,1-2.909,1.07,4.534,4.534,0,0,1-2.909-1.07A4.242,4.242,0,0,1,157.4,61.36a7.829,7.829,0,0,1-.3-2.408V54.1c0-.7-.234-1.07-.7-1.07V52.9h4.046v.134c-.435,0-.669.334-.669,1.037v5.685a1.844,1.844,0,0,0,.869,1.672,1.936,1.936,0,0,0,1,.3,1.743,1.743,0,0,0,.97-.3,1.882,1.882,0,0,0,.869-1.672V54.07c0-.669-.234-1.037-.669-1.037V52.9h4.046v.134Z" transform="translate(-104.099 -35.21)" fill="#032b4d"/>
      <path id="Path_2648" data-name="Path 2648" d="M212.325,60.727a2.977,2.977,0,0,1-1.3,2.608,4.832,4.832,0,0,1-2.842.8,5.538,5.538,0,0,1-2.508-.568.81.81,0,0,0-.435-.134c-.3,0-.468.2-.468.568h-.134v-4.18h.134v.134c0,.334.368.7,1.137,1.07a5.014,5.014,0,0,0,2.174.568q1.3,0,1.3-1c0-.368-.3-.669-.869-.936-.435-.134-.9-.3-1.371-.435a4.3,4.3,0,0,1-2.006-1.2,3.661,3.661,0,0,1-.635-2.207,2.977,2.977,0,0,1,1.3-2.608,4.832,4.832,0,0,1,2.842-.8,5.538,5.538,0,0,1,2.508.568.81.81,0,0,0,.435.134c.3,0,.468-.2.435-.568h.167v4.213h-.167V56.58c0-.334-.368-.7-1.137-1.07a5.014,5.014,0,0,0-2.174-.568q-1.3,0-1.3,1c0,.368.3.669.869.936.435.134.9.3,1.371.435a4.3,4.3,0,0,1,2.006,1.2,3.539,3.539,0,0,1,.669,2.207" transform="translate(-136.114 -34.877)" fill="#032b4d"/>
      <path id="Path_2649" data-name="Path 2649" d="M117.411,61.561h0V55.542c2.241,0,3.377,1,3.377,3.01s-1.137,3.01-3.377,3.01m6.086-3.043a5.5,5.5,0,0,0-1.538-4.046,5.742,5.742,0,0,0-4.314-1.672H114v.134c.435,0,.669.368.669,1.07v9.029c0,.7-.234,1.07-.669,1.07v.134h3.645a5.742,5.742,0,0,0,4.314-1.672,5.445,5.445,0,0,0,1.538-4.046Z" transform="translate(-75.878 -35.143)" fill="#032b4d"/>
      <line id="Line_12" data-name="Line 12" x2="63.504" transform="translate(12.707 31.367)" fill="none" stroke="#032b4d" stroke-miterlimit="2.613" stroke-width="1"/>
      <line id="Line_13" data-name="Line 13" x2="63.504" transform="translate(12.707 15.483)" fill="none" stroke="#032b4d" stroke-miterlimit="2.613" stroke-width="1"/>
    </g>
    <g id="brand-badge" transform="translate(414 832.05)">
      <path id="Path_2576" data-name="Path 2576" d="M60.2,62.762a.122.122,0,0,1,.039-.079.894.894,0,0,1,.158-.039.511.511,0,0,0,.394-.473v-7.88a.548.548,0,0,0-.394-.473.393.393,0,0,0-.158-.039L60.2,53.7h2.522a.122.122,0,0,1-.039.079.894.894,0,0,1-.158.039.511.511,0,0,0-.394.473v7.88c0,.276.2.394.394.473a.408.408,0,0,1,.158.039l.039.079Z" transform="translate(-36.482 -32.573)" fill="#241a21"/>
      <path id="Path_2577" data-name="Path 2577" d="M139.362,62.644a.511.511,0,0,1-.394-.473v-7.88a.548.548,0,0,1,.394-.473.393.393,0,0,1,.158-.039c.039,0,.039-.079.039-.079h-1.891a.122.122,0,0,0,.039.079.894.894,0,0,0,.158.039.511.511,0,0,1,.394.473V61.7c-.591-.67-6.816-7.683-6.895-7.8a.63.63,0,0,0-.394-.2H129a.122.122,0,0,0,.039.079.894.894,0,0,0,.158.039.511.511,0,0,1,.394.473v7.88c0,.276-.2.394-.394.473a.408.408,0,0,0-.158.039l-.039.079h1.891a.122.122,0,0,0-.039-.079.894.894,0,0,0-.158-.039.511.511,0,0,1-.394-.473V54.882c.315.394,6.264,7.052,6.461,7.289a1.775,1.775,0,0,0,1.34.63h1.379a.122.122,0,0,0-.039-.079c.079-.039-.039-.039-.079-.079" transform="translate(-78.175 -32.573)" fill="#241a21"/>
      <path id="Path_2578" data-name="Path 2578" d="M159.258,53.7l-.158,1.024h.079a.561.561,0,0,1,.079-.158.547.547,0,0,1,.473-.276h3.428V62.21c0,.276-.2.394-.394.473a.408.408,0,0,0-.158.039V62.8h2.522v-.079a.894.894,0,0,0-.158-.039.511.511,0,0,1-.394-.473V54.291H168a.547.547,0,0,1,.473.276l.079.158h.079l-.158-1.024h-9.219Z" transform="translate(-96.416 -32.573)" fill="#241a21"/>
      <path id="Path_2579" data-name="Path 2579" d="M105.992,62.744h0a.4.4,0,0,0-.118.039l-.039.079h1.931a.122.122,0,0,0-.039-.079c0-.039-.079-.039-.158-.039-.158-.039-.433-.158-.67-.709-.2-.433-2.758-6.383-2.994-6.974A1.7,1.7,0,0,0,102.21,53.8c-.946,0-1.458.118-1.931,1.024-.394.827-3.113,7.21-3.113,7.21a1.111,1.111,0,0,1-.67.709c-.079,0-.118.039-.158.039a.138.138,0,0,1-.039.079h2.719a.122.122,0,0,0-.039-.079.4.4,0,0,0-.118-.039c-.118-.039-.433-.118-.236-.591l.749-1.734H105.4c.394.867.67,1.576.749,1.734.276.433-.039.552-.158.591m-4.334-7.565c.158-.315.355-.709.749-.709.433,0,.63.473.827.749.158.276,1.182,2.679,1.97,4.61H99.649C99.964,59.119,101.54,55.455,101.658,55.179Z" transform="translate(-58.358 -32.633)" fill="#241a21"/>
      <path id="Path_2580" data-name="Path 2580" d="M190.153,62.744h0a.4.4,0,0,0-.118.039c-.039,0-.039.079-.039.079h1.931a.122.122,0,0,0-.039-.079c0-.039-.079-.039-.158-.039-.158-.039-.433-.158-.67-.709-.2-.433-2.758-6.383-2.994-6.974A1.7,1.7,0,0,0,186.37,53.8c-.946,0-1.458.118-1.891,1.024-.394.827-3.113,7.21-3.113,7.21-.236.552-.512.67-.67.709-.079,0-.118.039-.158.039a.138.138,0,0,1-.039.079h2.719a.122.122,0,0,0-.039-.079.4.4,0,0,0-.118-.039c-.118-.039-.433-.118-.236-.591l.749-1.734H189.6c.394.867.67,1.576.749,1.734.236.433-.079.552-.2.591m-4.334-7.565c.158-.315.355-.709.749-.709.433,0,.63.473.788.749s1.182,2.679,2.009,4.61H183.81C184.125,59.119,185.661,55.455,185.819,55.179Z" transform="translate(-109.384 -32.633)" fill="#241a21"/>
      <path id="Path_2581" data-name="Path 2581" d="M33.995,61.3c-.158.315-.394.749-.827.749s-.591-.394-.749-.709l-2.994-6.934c-.2-.433.118-.552.236-.591a.4.4,0,0,0,.118-.039.138.138,0,0,1,.039-.079H27.1a.122.122,0,0,0,.039.079c.039.039.079.039.158.039.158.039.433.158.67.709,0,0,2.719,6.383,3.113,7.21.433.946.985,1.024,1.891,1.024A1.7,1.7,0,0,0,34.665,61.5c.236-.591,2.837-6.54,2.994-6.974.236-.552.512-.67.67-.709a.3.3,0,0,1,.158-.039.138.138,0,0,1,.039-.079H36.6a.122.122,0,0,0,.039.079.2.2,0,0,1,.118.039c.118.039.433.158.236.591Z" transform="translate(-16.423 -32.573)" fill="#241a21"/>
      <path id="Path_2582" data-name="Path 2582" d="M77.355,61.3c-.158.315-.394.749-.788.749-.433,0-.63-.394-.749-.709l-2.994-6.934c-.2-.433.079-.552.236-.591a.4.4,0,0,0,.118-.039.138.138,0,0,1,.039-.079H70.5a.122.122,0,0,0,.039.079c0,.039.079.039.158.039a.962.962,0,0,1,.67.709s2.719,6.383,3.113,7.21c.433.946.985,1.024,1.891,1.024A1.7,1.7,0,0,0,78.065,61.5c.236-.591,2.837-6.54,2.994-6.974.236-.552.512-.67.67-.709a.3.3,0,0,1,.118-.039.138.138,0,0,1,.039-.079H79.956a.122.122,0,0,0,.039.079.2.2,0,0,1,.118.039c.118.039.433.158.236.591Z" transform="translate(-42.723 -32.573)" fill="#241a21"/>
      <path id="Path_2583" data-name="Path 2583" d="M93.931,107.27h0a.987.987,0,0,1,.276.158,1.044,1.044,0,0,1,.236.2.987.987,0,0,1,.158.276,1.166,1.166,0,0,1,.079.394,1.416,1.416,0,0,1-.079.433.9.9,0,0,1-.276.394,1.627,1.627,0,0,1-.433.276,1.439,1.439,0,0,1-.591.118H92v-3.9a.34.34,0,0,1,.118-.236.289.289,0,0,1,.236-.079h.827a1.4,1.4,0,0,1,.985.276,1.1,1.1,0,0,1,.315.788.9.9,0,0,1-.158.552,1.118,1.118,0,0,1-.394.355m-1.458-.039h.985c.039-.039.079-.039.158-.118a.859.859,0,0,0,.158-.2l.118-.236a.768.768,0,0,0,.039-.315.868.868,0,0,0-.039-.315.635.635,0,0,0-.158-.276c-.079-.079-.158-.118-.236-.2a.787.787,0,0,0-.355-.079H92.63a.139.139,0,0,0-.158.158Zm.709,2.009a1.165,1.165,0,0,0,.394-.079.826.826,0,0,0,.512-.512,1.165,1.165,0,0,0,.079-.394,1.15,1.15,0,0,0-.079-.355.707.707,0,0,0-.2-.276.792.792,0,0,0-.315-.158,1.15,1.15,0,0,0-.355-.079h-.709v1.773h.67Z" transform="translate(-55.753 -63.843)" fill="#fff"/>
      <path id="Path_2584" data-name="Path 2584" d="M104.67,105.3l-1.379,2.482v1.734h-.512v-1.734L101.4,105.3h.591l1.064,1.97c.039.039.039.079.079.079s.079,0,.079-.039l1.1-2.009Z" transform="translate(-61.449 -63.843)" fill="#fff"/>
      <path id="Path_2585" data-name="Path 2585" d="M118.64,105.576H117.3V105.3h3.152v.276h-1.3v3.94h-.512Z" transform="translate(-71.085 -63.843)" fill="#fff"/>
      <path id="Path_2586" data-name="Path 2586" d="M129.8,108.116h-1.852l-.433,1.34H127.2l1.3-3.822c0-.039.039-.079.039-.118a.3.3,0,0,1,.079-.158.544.544,0,0,1,.158-.118c.039-.039.118-.039.236-.039a.584.584,0,0,1,.276.039.544.544,0,0,1,.158.118c.039.039.079.079.079.118s.039.079.039.118l1.221,3.861h-.552Zm-1.734-.276h1.694l-.709-2.285c-.039-.039-.039-.079-.118-.079-.039,0-.079.039-.118.079Z" transform="translate(-77.084 -63.782)" fill="#fff"/>
      <path id="Path_2587" data-name="Path 2587" d="M138,109.595a.762.762,0,0,0,.355.2c.118.039.236.079.394.118a1.091,1.091,0,0,0,.355-.039.53.53,0,0,0,.276-.236.742.742,0,0,0,.079-.315V105.3h.512v3.94a.355.355,0,0,1-.039.2.56.56,0,0,1-.079.236.393.393,0,0,1-.158.2,1.033,1.033,0,0,1-.355.2,1.749,1.749,0,0,1-.512.079,1.4,1.4,0,0,1-.394-.079,1.92,1.92,0,0,1-.433-.158v-.315Z" transform="translate(-83.629 -63.843)" fill="#fff"/>
      <path id="Path_2588" data-name="Path 2588" d="M68.149,90.061h0c.67,0,1.024-.552,1.024-1.261a1.045,1.045,0,0,0-1.1-1.143h-.236a.1.1,0,0,0-.118.118v2.285ZM68.07,87.5c.946,0,1.458.433,1.458,1.3a1.263,1.263,0,0,1-1.34,1.418H67.4V87.7a.221.221,0,0,1,.236-.2Z" transform="translate(-40.845 -53.056)" fill="#241a21"/>
      <path id="Path_2589" data-name="Path 2589" d="M75.994,88.718l-.315,1.143a.332.332,0,0,1-.315.276.3.3,0,0,1-.315-.276L74.3,87.339h.355l.709,2.482c0,.079.079.079.118,0l.433-1.5L75.64,87.3h.355l.709,2.482c0,.079.079.079.118,0L77.57,87.3h.158l-.788,2.6a.332.332,0,0,1-.315.276.275.275,0,0,1-.315-.276Z" transform="translate(-45.026 -52.935)" fill="#241a21"/>
      <path id="Path_2590" data-name="Path 2590" d="M84.712,89.194h1.1l-.473-1.458c-.039-.079-.118-.079-.118,0Zm1.143.2H84.673l-.276.867h-.2l.827-2.482c.039-.118.079-.276.315-.276a.317.317,0,0,1,.355.276l.788,2.522h-.355Z" transform="translate(-51.026 -53.056)" fill="#241a21"/>
      <path id="Path_2591" data-name="Path 2591" d="M92.076,88.84h.591a.656.656,0,0,0,.355-.591.417.417,0,0,0-.236-.433.779.779,0,0,0-.433-.079h-.158a.1.1,0,0,0-.118.118Zm.276-1.34a1.532,1.532,0,0,1,.591.079.618.618,0,0,1,.433.63.781.781,0,0,1-.552.709l.236.394c.315.552.433.827.709.827v.118c-.552.039-.709-.276-.985-.788L92.549,89h-.433v1.261H91.8V87.736a.221.221,0,0,1,.236-.2h.315Z" transform="translate(-55.631 -53.056)" fill="#241a21"/>
      <path id="Path_2592" data-name="Path 2592" d="M99.621,89.391h0c.394.512.512.749.749.749v.118c-.552.039-.63-.158-1.024-.67l-.473-.63a.24.24,0,0,1,0-.315L99.937,87.5h.236l-1.024,1.143c-.039.079-.039.079,0,.158ZM98.715,87.5v2.719H98.4V87.5Z" transform="translate(-59.631 -53.056)" fill="#241a21"/>
      <path id="Path_2593" data-name="Path 2593" d="M105.012,89.194h1.1l-.473-1.458c-.039-.079-.118-.079-.118,0Zm1.143.2h-1.182l-.276.867h-.2l.827-2.482c.039-.118.079-.276.315-.276a.35.35,0,0,1,.355.276l.788,2.522h-.355Z" transform="translate(-63.328 -53.056)" fill="#241a21"/>
      <path id="Path_2594" data-name="Path 2594" d="M115.715,87.715c-.039-.079-.118-.039-.118.039v2.4h-.2v-2.4c0-.276.158-.355.315-.355a.324.324,0,0,1,.315.2l1.143,2.285c.039.039.118.039.118-.039v-2.4h.2v2.4c0,.276-.158.355-.315.355a.325.325,0,0,1-.315-.2Z" transform="translate(-69.933 -52.995)" fill="#241a21"/>
      <path id="Path_2595" data-name="Path 2595" d="M124.337,90.122v.2h-1.3a.221.221,0,0,1-.236-.2V87.8a.221.221,0,0,1,.236-.2h1.3v.158h-1.064a.1.1,0,0,0-.118.118v.906h1.024v.158h-1.024V90a.126.126,0,0,0,.118.118Z" transform="translate(-74.418 -53.116)" fill="#241a21"/>
      <path id="Path_2596" data-name="Path 2596" d="M129.894,88.718l-.315,1.143a.332.332,0,0,1-.315.276.3.3,0,0,1-.315-.276l-.749-2.522h.355l.709,2.482c0,.079.079.079.118,0l.433-1.5L129.54,87.3h.355l.709,2.482c0,.079.079.079.118,0l.749-2.482h.2l-.749,2.522a.332.332,0,0,1-.315.276.275.275,0,0,1-.315-.276Z" transform="translate(-77.69 -52.935)" fill="#241a21"/>
      <path id="Path_2597" data-name="Path 2597" d="M142.849,90.061h0c.67,0,1.024-.552,1.024-1.261a1.045,1.045,0,0,0-1.1-1.143h-.236a.1.1,0,0,0-.118.118v2.285ZM142.77,87.5c.946,0,1.458.433,1.458,1.3a1.263,1.263,0,0,1-1.34,1.418H142.1V87.7a.221.221,0,0,1,.236-.2Z" transform="translate(-86.114 -53.056)" fill="#241a21"/>
      <path id="Path_2598" data-name="Path 2598" d="M150.937,90.122v.2h-1.3a.221.221,0,0,1-.236-.2V87.8a.221.221,0,0,1,.236-.2h1.3v.158h-1.064a.1.1,0,0,0-.118.118v.906h1.024v.158h-1.024V90a.126.126,0,0,0,.118.118Z" transform="translate(-90.537 -53.116)" fill="#241a21"/>
      <path id="Path_2599" data-name="Path 2599" d="M156.818,90.319H155.6a.186.186,0,0,1-.2-.2V87.6h.315v2.443a.126.126,0,0,0,.118.118h1.024v.158Z" transform="translate(-94.173 -53.116)" fill="#241a21"/>
      <path id="Path_2600" data-name="Path 2600" d="M162.394,88.918h-1.379v1.34H160.7V87.5h.315v1.261h1.379V87.5h.315v2.758h-.315Z" transform="translate(-97.385 -53.056)" fill="#241a21"/>
      <rect id="Rectangle_24" data-name="Rectangle 24" width="0.315" height="2.719" transform="translate(66.23 34.444)" fill="#241a21"/>
      <path id="Path_2601" data-name="Path 2601" d="M0,14.705c0-2.128,2.049-4.373,4.531-4.925L42.078.364a25.019,25.019,0,0,1,9.062,0L88.688,9.78c2.482.552,4.531,2.758,4.531,4.925V47.288c0,2.167-2.049,4.373-4.531,4.925L51.14,61.63a25.019,25.019,0,0,1-9.062,0L4.531,52.213C2.049,51.662,0,49.455,0,47.288Z" fill="#dd137b"/>
      <path id="Path_2602" data-name="Path 2602" d="M60.2,62.762a.122.122,0,0,1,.039-.079.894.894,0,0,1,.158-.039.511.511,0,0,0,.394-.473v-7.88a.548.548,0,0,0-.394-.473.393.393,0,0,0-.158-.039L60.2,53.7h2.522a.122.122,0,0,1-.039.079.894.894,0,0,1-.158.039.511.511,0,0,0-.394.473v7.88c0,.276.2.394.394.473a.408.408,0,0,1,.158.039l.039.079Z" transform="translate(-36.482 -32.573)" fill="#1f1a17"/>
      <path id="Path_2603" data-name="Path 2603" d="M139.362,62.644a.511.511,0,0,1-.394-.473v-7.88a.548.548,0,0,1,.394-.473.393.393,0,0,1,.158-.039c.039,0,.039-.079.039-.079h-1.891a.122.122,0,0,0,.039.079.894.894,0,0,0,.158.039.511.511,0,0,1,.394.473V61.7c-.591-.67-6.816-7.683-6.895-7.8a.63.63,0,0,0-.394-.2H129a.122.122,0,0,0,.039.079.894.894,0,0,0,.158.039.511.511,0,0,1,.394.473v7.88c0,.276-.2.394-.394.473a.408.408,0,0,0-.158.039l-.039.079h1.891a.122.122,0,0,0-.039-.079.894.894,0,0,0-.158-.039.511.511,0,0,1-.394-.473V54.882c.315.394,6.264,7.052,6.461,7.289a1.775,1.775,0,0,0,1.34.63h1.379a.122.122,0,0,0-.039-.079c.079-.039-.039-.039-.079-.079" transform="translate(-78.175 -32.573)" fill="#1f1a17"/>
      <path id="Path_2604" data-name="Path 2604" d="M159.258,53.7l-.158,1.024h.079a.561.561,0,0,1,.079-.158.547.547,0,0,1,.473-.276h3.428V62.21c0,.276-.2.394-.394.473a.408.408,0,0,0-.158.039V62.8h2.522v-.079a.894.894,0,0,0-.158-.039.511.511,0,0,1-.394-.473V54.291H168a.547.547,0,0,1,.473.276l.079.158h.079l-.158-1.024h-9.219Z" transform="translate(-96.416 -32.573)" fill="#1f1a17"/>
      <path id="Path_2605" data-name="Path 2605" d="M105.992,62.744h0a.4.4,0,0,0-.118.039l-.039.079h1.931a.122.122,0,0,0-.039-.079c0-.039-.079-.039-.158-.039-.158-.039-.433-.158-.67-.709-.2-.433-2.758-6.383-2.994-6.974A1.7,1.7,0,0,0,102.21,53.8c-.946,0-1.458.118-1.931,1.024-.394.827-3.113,7.21-3.113,7.21a1.111,1.111,0,0,1-.67.709c-.079,0-.118.039-.158.039a.138.138,0,0,1-.039.079h2.719a.122.122,0,0,0-.039-.079.4.4,0,0,0-.118-.039c-.118-.039-.433-.118-.236-.591l.749-1.734H105.4c.394.867.67,1.576.749,1.734.276.433-.039.552-.158.591m-4.334-7.565c.158-.315.355-.709.749-.709.433,0,.63.473.827.749.158.276,1.182,2.679,1.97,4.61H99.649C99.964,59.119,101.54,55.455,101.658,55.179Z" transform="translate(-58.358 -32.633)" fill="#1f1a17"/>
      <path id="Path_2606" data-name="Path 2606" d="M190.153,62.744h0a.4.4,0,0,0-.118.039c-.039,0-.039.079-.039.079h1.931a.122.122,0,0,0-.039-.079c0-.039-.079-.039-.158-.039-.158-.039-.433-.158-.67-.709-.2-.433-2.758-6.383-2.994-6.974A1.7,1.7,0,0,0,186.37,53.8c-.946,0-1.458.118-1.891,1.024-.394.827-3.113,7.21-3.113,7.21-.236.552-.512.67-.67.709-.079,0-.118.039-.158.039a.138.138,0,0,1-.039.079h2.719a.122.122,0,0,0-.039-.079.4.4,0,0,0-.118-.039c-.118-.039-.433-.118-.236-.591l.749-1.734H189.6c.394.867.67,1.576.749,1.734.236.433-.079.552-.2.591m-4.334-7.565c.158-.315.355-.709.749-.709.433,0,.63.473.788.749s1.182,2.679,2.009,4.61H183.81C184.125,59.119,185.661,55.455,185.819,55.179Z" transform="translate(-109.384 -32.633)" fill="#1f1a17"/>
      <path id="Path_2607" data-name="Path 2607" d="M33.995,61.343c-.158.315-.394.749-.827.749s-.591-.394-.749-.709l-2.994-6.974c-.2-.433.118-.552.236-.591a.4.4,0,0,0,.118-.039.138.138,0,0,1,.039-.079H27.1a.122.122,0,0,0,.039.079c.039.039.079.039.158.039.158.039.433.158.67.709,0,0,2.719,6.383,3.113,7.21.433.946.985,1.024,1.891,1.024A1.7,1.7,0,0,0,34.665,61.5c.236-.591,2.837-6.54,2.994-6.974.236-.552.512-.67.67-.709a.3.3,0,0,1,.158-.039.138.138,0,0,1,.039-.079H36.6a.122.122,0,0,0,.039.079.2.2,0,0,1,.118.039c.118.039.433.158.236.591Z" transform="translate(-16.423 -32.573)" fill="#1f1a17"/>
      <path id="Path_2608" data-name="Path 2608" d="M77.355,61.4c-.158.315-.394.749-.788.749-.433,0-.63-.394-.749-.709l-2.994-6.934c-.2-.433.079-.552.236-.591a.4.4,0,0,0,.118-.039.138.138,0,0,1,.039-.079H70.5a.122.122,0,0,0,.039.079c0,.039.079.039.158.039a.962.962,0,0,1,.67.709s2.719,6.383,3.113,7.21c.433.946.985,1.024,1.891,1.024A1.7,1.7,0,0,0,78.065,61.6c.236-.591,2.837-6.54,2.994-6.974.236-.552.512-.67.67-.709a.3.3,0,0,1,.118-.039.138.138,0,0,1,.039-.079H79.956a.122.122,0,0,0,.039.079.2.2,0,0,1,.118.039c.118.039.433.158.236.591Z" transform="translate(-42.723 -32.633)" fill="#1f1a17"/>
      <path id="Path_2609" data-name="Path 2609" d="M93.931,107.27h0a.987.987,0,0,1,.276.158,1.044,1.044,0,0,1,.236.2.987.987,0,0,1,.158.276,1.166,1.166,0,0,1,.079.394,1.416,1.416,0,0,1-.079.433.9.9,0,0,1-.276.394,1.627,1.627,0,0,1-.433.276,1.439,1.439,0,0,1-.591.118H92v-3.9a.34.34,0,0,1,.118-.236.289.289,0,0,1,.236-.079h.827a1.4,1.4,0,0,1,.985.276,1.1,1.1,0,0,1,.315.788.9.9,0,0,1-.158.552,1.118,1.118,0,0,1-.394.355m-1.458-.039h.985c.039-.039.079-.039.158-.118a.859.859,0,0,0,.158-.2l.118-.236a.768.768,0,0,0,.039-.315.868.868,0,0,0-.039-.315.635.635,0,0,0-.158-.276c-.079-.079-.158-.118-.236-.2a.787.787,0,0,0-.355-.079H92.63a.139.139,0,0,0-.158.158Zm.709,2.009a1.165,1.165,0,0,0,.394-.079.826.826,0,0,0,.512-.512,1.165,1.165,0,0,0,.079-.394,1.15,1.15,0,0,0-.079-.355.707.707,0,0,0-.2-.276.792.792,0,0,0-.315-.158,1.15,1.15,0,0,0-.355-.079h-.709v1.773h.67Z" transform="translate(-55.753 -63.843)" fill="#fff"/>
      <path id="Path_2610" data-name="Path 2610" d="M104.67,105.3l-1.379,2.482v1.734h-.512v-1.734L101.4,105.3h.591l1.064,1.97c.039.039.039.079.079.079s.079,0,.079-.039l1.1-2.009Z" transform="translate(-61.449 -63.843)" fill="#fff"/>
      <path id="Path_2611" data-name="Path 2611" d="M118.64,105.576H117.3V105.3h3.152v.276h-1.3v3.94h-.512Z" transform="translate(-71.085 -63.843)" fill="#fff"/>
      <path id="Path_2612" data-name="Path 2612" d="M129.8,108.116h-1.852l-.433,1.34H127.2l1.3-3.822c0-.039.039-.079.039-.118a.3.3,0,0,1,.079-.158.544.544,0,0,1,.158-.118c.039-.039.118-.039.236-.039a.584.584,0,0,1,.276.039.544.544,0,0,1,.158.118c.039.039.079.079.079.118s.039.079.039.118l1.221,3.861h-.552Zm-1.734-.276h1.694l-.709-2.285c-.039-.039-.039-.079-.118-.079-.039,0-.079.039-.118.079Z" transform="translate(-77.084 -63.782)" fill="#fff"/>
      <path id="Path_2613" data-name="Path 2613" d="M138,109.595a.762.762,0,0,0,.355.2c.118.039.236.079.394.118a1.091,1.091,0,0,0,.355-.039.53.53,0,0,0,.276-.236.742.742,0,0,0,.079-.315V105.3h.512v3.94a.355.355,0,0,1-.039.2.56.56,0,0,1-.079.236.393.393,0,0,1-.158.2,1.033,1.033,0,0,1-.355.2,1.749,1.749,0,0,1-.512.079,1.4,1.4,0,0,1-.394-.079,1.92,1.92,0,0,1-.433-.158v-.315Z" transform="translate(-83.629 -63.843)" fill="#fff"/>
      <path id="Path_2614" data-name="Path 2614" d="M68.149,90.061h0c.67,0,1.024-.552,1.024-1.261a1.045,1.045,0,0,0-1.1-1.143h-.236a.1.1,0,0,0-.118.118v2.285ZM68.07,87.5c.946,0,1.458.433,1.458,1.3a1.263,1.263,0,0,1-1.34,1.418H67.4V87.7a.221.221,0,0,1,.236-.2Z" transform="translate(-40.845 -53.056)" fill="#1f1a17"/>
      <path id="Path_2615" data-name="Path 2615" d="M75.994,88.718l-.315,1.143a.332.332,0,0,1-.315.276.3.3,0,0,1-.315-.276L74.3,87.339h.355l.709,2.482c0,.079.079.079.118,0l.433-1.5L75.64,87.3h.355l.709,2.482c0,.079.079.079.118,0L77.57,87.3h.158l-.788,2.6a.332.332,0,0,1-.315.276.275.275,0,0,1-.315-.276Z" transform="translate(-45.026 -52.935)" fill="#1f1a17"/>
      <path id="Path_2616" data-name="Path 2616" d="M84.712,89.194h1.1l-.473-1.458c-.039-.079-.118-.079-.118,0Zm1.143.2H84.673l-.276.867h-.2l.827-2.482c.039-.118.079-.276.315-.276a.317.317,0,0,1,.355.276l.788,2.522h-.355Z" transform="translate(-51.026 -53.056)" fill="#1f1a17"/>
      <path id="Path_2617" data-name="Path 2617" d="M92.076,88.84h.591a.656.656,0,0,0,.355-.591.417.417,0,0,0-.236-.433.779.779,0,0,0-.433-.079h-.158a.1.1,0,0,0-.118.118Zm.276-1.34a1.532,1.532,0,0,1,.591.079.618.618,0,0,1,.433.63.781.781,0,0,1-.552.709l.236.394c.315.552.433.827.709.827v.118c-.552.039-.709-.276-.985-.788L92.549,89h-.433v1.261H91.8V87.736a.221.221,0,0,1,.236-.2h.315Z" transform="translate(-55.631 -53.056)" fill="#1f1a17"/>
      <path id="Path_2618" data-name="Path 2618" d="M99.621,89.391h0c.394.512.512.749.749.749v.118c-.552.039-.63-.158-1.024-.67l-.473-.63a.24.24,0,0,1,0-.315L99.937,87.5h.236l-1.024,1.143c-.039.079-.039.079,0,.158ZM98.715,87.5v2.719H98.4V87.5Z" transform="translate(-59.631 -53.056)" fill="#1f1a17"/>
      <path id="Path_2619" data-name="Path 2619" d="M105.012,89.194h1.1l-.473-1.458c-.039-.079-.118-.079-.118,0Zm1.143.2h-1.182l-.276.867h-.2l.827-2.482c.039-.118.079-.276.315-.276a.35.35,0,0,1,.355.276l.788,2.522h-.355Z" transform="translate(-63.328 -53.056)" fill="#1f1a17"/>
      <path id="Path_2620" data-name="Path 2620" d="M115.715,87.715c-.039-.079-.118-.039-.118.039v2.4h-.2v-2.4c0-.276.158-.355.315-.355a.324.324,0,0,1,.315.2l1.143,2.285c.039.039.118.039.118-.039v-2.4h.2v2.4c0,.276-.158.355-.315.355a.325.325,0,0,1-.315-.2Z" transform="translate(-69.933 -52.995)" fill="#1f1a17"/>
      <path id="Path_2621" data-name="Path 2621" d="M124.337,90.122v.2h-1.3a.221.221,0,0,1-.236-.2V87.8a.221.221,0,0,1,.236-.2h1.3v.158h-1.064a.1.1,0,0,0-.118.118v.906h1.024v.158h-1.024V90a.126.126,0,0,0,.118.118Z" transform="translate(-74.418 -53.116)" fill="#1f1a17"/>
      <path id="Path_2622" data-name="Path 2622" d="M129.894,88.718l-.315,1.143a.332.332,0,0,1-.315.276.3.3,0,0,1-.315-.276l-.749-2.522h.355l.709,2.482c0,.079.079.079.118,0l.433-1.5L129.54,87.3h.355l.709,2.482c0,.079.079.079.118,0l.749-2.482h.2l-.749,2.522a.332.332,0,0,1-.315.276.275.275,0,0,1-.315-.276Z" transform="translate(-77.69 -52.935)" fill="#1f1a17"/>
      <path id="Path_2623" data-name="Path 2623" d="M142.849,90.061h0c.67,0,1.024-.552,1.024-1.261a1.045,1.045,0,0,0-1.1-1.143h-.236a.1.1,0,0,0-.118.118v2.285ZM142.77,87.5c.946,0,1.458.433,1.458,1.3a1.263,1.263,0,0,1-1.34,1.418H142.1V87.7a.221.221,0,0,1,.236-.2Z" transform="translate(-86.114 -53.056)" fill="#1f1a17"/>
      <path id="Path_2624" data-name="Path 2624" d="M150.937,90.122v.2h-1.3a.221.221,0,0,1-.236-.2V87.8a.221.221,0,0,1,.236-.2h1.3v.158h-1.064a.1.1,0,0,0-.118.118v.906h1.024v.158h-1.024V90a.126.126,0,0,0,.118.118Z" transform="translate(-90.537 -53.116)" fill="#1f1a17"/>
      <path id="Path_2625" data-name="Path 2625" d="M156.818,90.319H155.6a.186.186,0,0,1-.2-.2V87.6h.315v2.443a.126.126,0,0,0,.118.118h1.024v.158Z" transform="translate(-94.173 -53.116)" fill="#1f1a17"/>
      <path id="Path_2626" data-name="Path 2626" d="M162.394,88.918h-1.379v1.34H160.7V87.5h.315v1.261h1.379V87.5h.315v2.758h-.315Z" transform="translate(-97.385 -53.056)" fill="#1f1a17"/>
      <rect id="Rectangle_25" data-name="Rectangle 25" width="0.315" height="2.719" transform="translate(66.23 34.444)" fill="#1f1a17"/>
    </g>
    <line id="Line_66" data-name="Line 66" y2="66" transform="translate(380.5 831.5)" fill="none" stroke="#707070" stroke-linecap="round" stroke-width="1" opacity="0.28"/>
  </g>
</svg>
