<svg xmlns="http://www.w3.org/2000/svg" width="124.787" height="18.297" viewBox="0 0 124.787 18.297">
  <g id="ic-go-back" transform="translate(-20266.5 -8937.086)">
    <path id="Path_3971" data-name="Path 3971" d="M7.725-14.717a7.369,7.369,0,0,1,3.5.781A5.1,5.1,0,0,1,13.838-10H11.914a3.494,3.494,0,0,0-1.455-2.29,5.008,5.008,0,0,0-2.783-.718,4.362,4.362,0,0,0-3.354,1.494A6.412,6.412,0,0,0,2.959-7.061,7.116,7.116,0,0,0,4.082-2.9,4.152,4.152,0,0,0,7.744-1.289a4.676,4.676,0,0,0,3.218-1.128,4.722,4.722,0,0,0,1.3-3.647H7.773V-7.676h6.3V0h-1.25l-.469-1.846a7.368,7.368,0,0,1-1.748,1.5A6.552,6.552,0,0,1,7.354.381,6.336,6.336,0,0,1,2.969-1.27a7.832,7.832,0,0,1-2-5.684A8.151,8.151,0,0,1,2.92-12.686,6.208,6.208,0,0,1,7.725-14.717Zm16.747-.02A6.568,6.568,0,0,1,30.1-12.295a7.912,7.912,0,0,1,1.426,4.873A8.527,8.527,0,0,1,29.891-2.08,6.468,6.468,0,0,1,24.432.42a6.525,6.525,0,0,1-5.205-2.187A8.26,8.26,0,0,1,17.538-7.1a8.481,8.481,0,0,1,1.445-4.98A6.262,6.262,0,0,1,24.471-14.736Zm.2,13.418a4.046,4.046,0,0,0,3.716-1.841A7.835,7.835,0,0,0,29.53-7.393a6.039,6.039,0,0,0-1.323-4.072,4.516,4.516,0,0,0-3.618-1.543,4.712,4.712,0,0,0-3.633,1.528A6.441,6.441,0,0,0,19.55-6.973a6.585,6.585,0,0,0,1.206,4.019A4.536,4.536,0,0,0,24.667-1.318ZM47.184-8.281A4.359,4.359,0,0,0,49.1-8.623a1.969,1.969,0,0,0,1.074-1.934,1.864,1.864,0,0,0-1.143-1.895,5.135,5.135,0,0,0-1.914-.273H43.649v4.443Zm.654,6.621A2.956,2.956,0,0,0,50.387-2.7a2.606,2.606,0,0,0,.479-1.582,2.1,2.1,0,0,0-1.4-2.129,5.286,5.286,0,0,0-1.963-.3H43.649V-1.66ZM41.745-14.346h6.162a4.085,4.085,0,0,1,3.584,1.5,3.475,3.475,0,0,1,.625,2.051,3.229,3.229,0,0,1-.771,2.227,3.77,3.77,0,0,1-1.152.84,4.875,4.875,0,0,1,1.65.947,3.437,3.437,0,0,1,.967,2.588,4,4,0,0,1-.869,2.51A4.895,4.895,0,0,1,47.809,0H41.745ZM63.7-5.879l-2.178-6.338L59.2-5.879ZM60.5-14.346h2.2L67.905,0H65.777L64.321-4.3H58.648L57.095,0H55.1Zm16.415-.391A5.879,5.879,0,0,1,81.146-13.3a5.07,5.07,0,0,1,1.67,3.262H80.922a3.943,3.943,0,0,0-1.284-2.2,4.07,4.07,0,0,0-2.7-.811,4.33,4.33,0,0,0-3.423,1.489,6.789,6.789,0,0,0-1.3,4.565,6.631,6.631,0,0,0,1.177,4.087A4.112,4.112,0,0,0,76.9-1.338a3.709,3.709,0,0,0,3.271-1.65,6.277,6.277,0,0,0,.889-2.285h1.895a6.474,6.474,0,0,1-1.68,3.8A5.977,5.977,0,0,1,76.664.371a6.084,6.084,0,0,1-4.2-1.514q-2.236-2-2.236-6.182a7.9,7.9,0,0,1,1.68-5.205A6.135,6.135,0,0,1,76.918-14.736Zm9.6.391h1.895v6.992L95.4-14.346h2.686L92.122-8.564,98.255,0H95.725l-5.02-7.2L88.411-5V0H86.516Z" transform="translate(20293.033 8952.736)"/>
    <path id="Path_2656" data-name="Path 2656" d="M-2353.861,3105.949l-7.735,7.735,7.735,7.735" transform="translate(22629.096 5832.551)" fill="none" stroke="#000" stroke-linecap="round" stroke-linejoin="round" stroke-width="2"/>
  </g>
</svg>
