<svg xmlns="http://www.w3.org/2000/svg" width="84.929" height="54.163" viewBox="0 0 84.929 54.163">
  <g id="ic-gray-smile" transform="translate(-144.312 -452.088)">
    <g id="Group_394" data-name="Group 394" transform="translate(144.312 452)">
      <g id="Ellipse_104" data-name="Ellipse 104" transform="translate(24.843)">
        <ellipse id="Ellipse_109" data-name="Ellipse 109" cx="5" cy="6.5" rx="5" ry="6.5" transform="translate(0.203 0.088)"/>
      </g>
      <g id="Ellipse_105" data-name="Ellipse 105" transform="translate(53.597)">
        <ellipse id="Ellipse_110" data-name="Ellipse 110" cx="5" cy="6.5" rx="5" ry="6.5" transform="translate(0.45 0.088)"/>
      </g>
      <g id="Path_2925" data-name="Path 2925" transform="translate(6.207 24.928)">
        <path id="Path_2930" data-name="Path 2930" d="M626.362,931.308c-28.439,0-37.091-26.535-37.175-26.8a1.941,1.941,0,0,1,3.7-1.163c.31.982,7.925,24.085,33.472,24.085,25.483,0,32.047-23.027,32.313-24.008a1.941,1.941,0,0,1,3.748,1.009C662.351,904.7,654.863,931.308,626.362,931.308Z" transform="translate(-589.098 -901.985)"/>
      </g>
      <g id="Path_2926" data-name="Path 2926" transform="translate(0 19.704)">
        <path id="Path_2931" data-name="Path 2931" d="M592.079,906.473a8.874,8.874,0,0,1-6.882-3.151,1.5,1.5,0,0,1,2.3-1.929,5.841,5.841,0,0,0,4.486,2.089H592c1.824-.161,3.418-2.855,3.865-3.877a1.5,1.5,0,0,1,2.751,1.2c-.235.544-2.421,5.328-6.484,5.675Z" transform="translate(-584.846 -898.704)"/>
        <path id="Path_2935" data-name="Path 2935" d="M591.5,906.474a8.873,8.873,0,0,0,6.881-3.152,1.5,1.5,0,0,0-2.3-1.93,5.84,5.84,0,0,1-4.485,2.089h-.02c-1.824-.16-3.418-2.855-3.865-3.878a1.5,1.5,0,0,0-2.751,1.2c.235.544,2.421,5.329,6.484,5.675Z" transform="translate(-513.808 -898.704)"/>
      </g>
    </g>
  </g>
</svg>
