<svg xmlns="http://www.w3.org/2000/svg" width="36" height="36" viewBox="0 0 36 36">
  <g id="ic-ginger" transform="translate(-83 -1162)">
    <g id="Rectangle_36" data-name="Rectangle 36" transform="translate(83 1162)" fill="#fff" stroke="#707070" stroke-width="1" opacity="0">
      <rect width="36" height="36" stroke="none"/>
      <rect x="0.5" y="0.5" width="35" height="35" fill="none"/>
    </g>
    <g id="ginger" transform="translate(75.028 1150.079)">
      <path id="Path_2658" data-name="Path 2658" d="M40.989,37.543v0c-.024.854-.868,1.409-1.426,2.056-.754.882-1.271,2.256-2.428,2.308a1.73,1.73,0,0,1-.875-.22q-.16-.083-.32-.186a.626.626,0,0,1-.062-.041,4.09,4.09,0,0,0-1.608-.8,6.415,6.415,0,0,1-.062,1.405,1.957,1.957,0,0,1-.871,1.471,2.931,2.931,0,0,1-1.9.158,4.042,4.042,0,0,1-1.7-.52,2.138,2.138,0,0,1-.493-.455A3.17,3.17,0,0,1,28.6,41.1a4.958,4.958,0,0,1-.034-.751c0-.055,0-.11,0-.165l.01-.227v0a0,0,0,0,1,0,0c.031-.427.09-.854.141-1.281.031-.262.062-.524.086-.789.01-.1.021-.189.028-.286.052-.544.09-1.092.114-1.639a.692.692,0,0,0,0-.083v0c.014-.307.024-.61.031-.916a2.274,2.274,0,0,0-.358-1.539,2.292,2.292,0,0,0-.964-.579l-.437-.176-.083-.031q-1.514-.6-3.031-1.205c.52.658,1.037,1.319,1.557,1.977.041.055.083.107.124.158s.065.083.1.124h0c.134.176.272.348.41.524a8.347,8.347,0,0,1,1.35,2.149,3.239,3.239,0,0,1,.217,1.088,2.812,2.812,0,0,1-4.694,2.129,2.6,2.6,0,0,1-.272-.279,19.4,19.4,0,0,1-1.178-2.073c-.048-.072-.1-.141-.148-.21l-.062-.083c-.045-.062-.093-.121-.145-.179-.444-.524-.985-.968-1.484-1.45A12.32,12.32,0,0,1,17,30.968a1.841,1.841,0,0,1-.069-.176v0c-.052-.131-.1-.262-.145-.4a.834.834,0,0,0-.355-.541c-.461-.21-.772.462-1.019.9a.833.833,0,0,1-.045.072,2.859,2.859,0,0,1-3.038.9c-1.116-.234-2.3-.985-2.356-2.125a2.02,2.02,0,0,1,.114-.727,4.783,4.783,0,0,1,.313-.723,15.792,15.792,0,0,1,1.164-1.939,5.153,5.153,0,0,0,.685-1.154,8.956,8.956,0,0,0,.258-1.243c0-.007,0-.014,0-.021.007-.024.014-.052.021-.076A9.147,9.147,0,0,1,14.49,20.28a3.242,3.242,0,0,1,4.205-.954,2.759,2.759,0,0,1,1.185,1.467c.017.041.034.079.052.121.134.32.262.647.42.947.017.034.034.065.052.1a2.091,2.091,0,0,0,1.243,1.068c.093.031.189.059.286.083.007,0,.01,0,.014,0a31.58,31.58,0,0,0,4.577.465c.041,0,.083.007.124.014l.1.01c1.219.127,2.442.251,3.661.379L30.6,24l1.1.114a12.659,12.659,0,0,1,2.442.424,1.192,1.192,0,0,1,.158.052,4.377,4.377,0,0,1,1.274.651,4.445,4.445,0,0,1,1.057,1.168,6.924,6.924,0,0,1,.706,1.519,2.378,2.378,0,0,1,.121,1.509,1.8,1.8,0,0,1-.958.992,6.039,6.039,0,0,1-1.168.413,4.223,4.223,0,0,1,1.8.393l.155.072v0a4.508,4.508,0,0,1,2.332,2.731,10.012,10.012,0,0,0,.41,1.464c.317.692.982,1.278.964,2.039Z" transform="translate(0)" fill="#feda6f"/>
      <g id="Group_47" data-name="Group 47" transform="translate(9.972 20.759)">
        <path id="Path_2659" data-name="Path 2659" d="M85.2,55.549a1.907,1.907,0,0,1-.324.785,2.577,2.577,0,0,0-.31.692,3.5,3.5,0,0,0-.1.761c-.028.524.017,1.061-.034,1.619a3.347,3.347,0,0,1-.193.827,3.077,3.077,0,0,1-.441.72,3.293,3.293,0,0,0-.427.641,1.153,1.153,0,0,0-.086.7,5.138,5.138,0,0,0,.231.748,5.723,5.723,0,0,1,.214.792,5.413,5.413,0,0,1,.076,1.106.626.626,0,0,1-.062-.041,5.805,5.805,0,0,0-.179-1.03,5.148,5.148,0,0,0-.251-.747,5.393,5.393,0,0,1-.286-.775,1.357,1.357,0,0,1,.069-.871,3.834,3.834,0,0,1,.441-.713,2.985,2.985,0,0,0,.389-.651,2.783,2.783,0,0,0,.162-.74c.055-.513.017-1.051.052-1.6a4.024,4.024,0,0,1,.138-.827,2.568,2.568,0,0,1,.379-.751,1.7,1.7,0,0,0,.331-.672c.038-.234-.038-.506-.007-.8a.36.36,0,0,1,.014-.059l.155.072v0C85.135,54.987,85.228,55.249,85.2,55.549Z" transform="translate(-57.838 -44.193)" fill="#d6b24e"/>
        <path id="Path_2660" data-name="Path 2660" d="M76.557,59.184a3.351,3.351,0,0,1-.979-1.721,3.6,3.6,0,0,1,.11-2.02,4.777,4.777,0,0,1,1.107-1.681,8.571,8.571,0,0,1,.736-.668,1.4,1.4,0,0,1,.452-.243.429.429,0,0,1,.475.1.41.41,0,0,0-.443-.016,1.271,1.271,0,0,0-.37.283c-.224.235-.444.476-.65.723a5.437,5.437,0,0,0-.982,1.617,3.789,3.789,0,0,0-.171,1.852,4.117,4.117,0,0,0,.716,1.772Z" transform="translate(-52.919 -42.984)" fill="#d6b24e"/>
        <path id="Path_2661" data-name="Path 2661" d="M69.692,77.5a.553.553,0,0,1-.417-.3,2.3,2.3,0,0,0-.289-.406,1.54,1.54,0,0,0-.847-.413,4.3,4.3,0,0,0-.989-.027l-1.026.048-.513.017a.716.716,0,0,0-.41.093,5.611,5.611,0,0,0-.73.658,7.4,7.4,0,0,0-.523.617c0-.131.007-.262.014-.393v0c.1-.138.2-.272.307-.4s.227-.265.351-.389a3.849,3.849,0,0,1,.4-.365,1.058,1.058,0,0,1,.575-.155l.513-.024,1.026-.027a3.944,3.944,0,0,1,1.057.089,1.675,1.675,0,0,1,.92.565,2.352,2.352,0,0,1,.241.472c.072.145.162.3.338.341Z" transform="translate(-45.357 -58.201)" fill="#d6b24e"/>
        <path id="Path_2662" data-name="Path 2662" d="M64.455,70.814a1.941,1.941,0,0,1,.976-1.533,3.341,3.341,0,0,1,1.828-.435,6.946,6.946,0,0,1,.932.087,1.193,1.193,0,0,1,.477.195c.139.1.247.2.358.29a2.8,2.8,0,0,0,.381.221.551.551,0,0,1,.2.2.765.765,0,0,1,.074.245c.043.3.1.6.131.905-.109-.286-.2-.577-.3-.866a.368.368,0,0,0-.217-.285,2.455,2.455,0,0,1-.425-.2c-.138-.089-.254-.187-.369-.258a.869.869,0,0,0-.367-.125,7.468,7.468,0,0,0-.882-.065,3.541,3.541,0,0,0-1.69.324A2.1,2.1,0,0,0,64.455,70.814Z" transform="translate(-45.69 -53.488)" fill="#d6b24e"/>
        <path id="Path_2663" data-name="Path 2663" d="M70.092,50.857q-.878.61-1.788,1.164a4.08,4.08,0,0,0-.837.579,2.009,2.009,0,0,0-.444.864c-.1.331-.165.682-.289,1.03a5.5,5.5,0,0,1-.455.992,5.116,5.116,0,0,1-1.212,1.405.692.692,0,0,0,0-.083s0,0,0,0a6.823,6.823,0,0,0,.971-1.447,6.243,6.243,0,0,0,.382-.964c.1-.327.169-.672.269-1.026a2.29,2.29,0,0,1,.544-1,3.793,3.793,0,0,1,.933-.586q.945-.5,1.922-.93Z" transform="translate(-46.091 -41.695)" fill="#d6b24e"/>
        <path id="Path_2664" data-name="Path 2664" d="M80.079,39.525a1.917,1.917,0,0,1-.51-1.154,8.536,8.536,0,0,1-.072-1.254,8.747,8.747,0,0,1,.217-1.891,1.192,1.192,0,0,1,.158.052c-.01.62-.028,1.226-.031,1.843-.007.406-.01.823-.007,1.226a2.7,2.7,0,0,0,.245,1.178Z" transform="translate(-55.551 -31.449)" fill="#d6b24e"/>
        <path id="Path_2665" data-name="Path 2665" d="M67.168,46.671a2.1,2.1,0,0,0-1.44.524c-.213.156-.434.315-.641.474a3.693,3.693,0,0,0-.586.511,5.058,5.058,0,0,0-1.33,2.8,3.592,3.592,0,0,1,.205-1.623,4.024,4.024,0,0,1,.877-1.413,6.243,6.243,0,0,1,1.332-.973,3.131,3.131,0,0,1,.763-.332,1.327,1.327,0,0,1,.821.033Z" transform="translate(-44.835 -38.897)" fill="#d6b24e"/>
        <path id="Path_2666" data-name="Path 2666" d="M62.553,33.628c-.017.145-.017.3-.045.455a4.16,4.16,0,0,1-.172.765,3.655,3.655,0,0,1-.823,1.34c-.355.382-.744.716-1.1,1.071a4.706,4.706,0,0,0-1.4,2.545,4.766,4.766,0,0,0-.055,1.484,4.379,4.379,0,0,0,.214,1l-.083-.031a4.7,4.7,0,0,1-.3-.944,5.1,5.1,0,0,1-.038-1.553,4.689,4.689,0,0,1,.475-1.491,4.836,4.836,0,0,1,.944-1.254,6.971,6.971,0,0,0,1.912-2.256,4.1,4.1,0,0,0,.207-.71c.024-.124.041-.245.059-.372,0-.024.007-.045.01-.069l.189.021Z" transform="translate(-41.927 -30.386)" fill="#d6b24e"/>
        <path id="Path_2667" data-name="Path 2667" d="M53.009,32.487c-.1.189-.189.375-.279.565-.183.362-.389.716-.541,1.074a2.12,2.12,0,0,0-.155.544c-.024.179-.01.382-.031.6a2.654,2.654,0,0,1-.527,1.164,6.565,6.565,0,0,0-1.161,2.046,1.839,1.839,0,0,0,.882,1.991,1.829,1.829,0,0,1-.927-.8,1.919,1.919,0,0,1-.213-1.243,5.7,5.7,0,0,1,1.133-2.19,2.421,2.421,0,0,0,.489-1.013c.028-.179.021-.386.055-.606a2.1,2.1,0,0,1,.214-.61c.3-.537.627-1.04.961-1.539l.1.01Z" transform="translate(-36.234 -29.646)" fill="#d6b24e"/>
        <path id="Path_2668" data-name="Path 2668" d="M35.2,30.853c-.283.808-.542,1.617-.746,2.44a5.615,5.615,0,0,1-.377,1.261,1.14,1.14,0,0,1-.533.5,3.478,3.478,0,0,1-.644.192,1.547,1.547,0,0,0-.538.2,3.113,3.113,0,0,0-.452.4c-.305.3-.6.6-.868.918a3.655,3.655,0,0,0-.64,1.061,2.376,2.376,0,0,0-.158,1.235,2.263,2.263,0,0,1,0-1.287,3.816,3.816,0,0,1,.59-1.17,9.466,9.466,0,0,1,.844-.984,3.145,3.145,0,0,1,.5-.453,1.868,1.868,0,0,1,.646-.26,3.244,3.244,0,0,0,.583-.163.834.834,0,0,0,.392-.355,6.946,6.946,0,0,0,.4-1.17,13.24,13.24,0,0,1,1-2.368Z" transform="translate(-23.203 -28.581)" fill="#d6b24e"/>
        <path id="Path_2669" data-name="Path 2669" d="M47.576,60.6c-.21-.038-.417-.076-.623-.11-.434-.069-.868-.141-1.3-.169a1.233,1.233,0,0,0-1.088.3,4.373,4.373,0,0,0-.606,1.112c-.1.21-.227.4-.334.586a2.947,2.947,0,0,0-.245.579,3.4,3.4,0,0,0-.121,1.026c-.065-.09-.134-.179-.207-.262a3.4,3.4,0,0,1,.072-.83,2.562,2.562,0,0,1,.234-.654c.107-.2.22-.389.3-.582a4.372,4.372,0,0,1,.651-1.209,1.271,1.271,0,0,1,.658-.369,2.153,2.153,0,0,1,.709-.024A10.5,10.5,0,0,1,47,60.223c.117.028.234.059.348.09.076.1.145.186.224.282Z" transform="translate(-31.659 -47.673)" fill="#d6b24e"/>
        <path id="Path_2670" data-name="Path 2670" d="M31.507,27.545a5.739,5.739,0,0,0-.6.079,3.284,3.284,0,0,0-1.085.344,2.7,2.7,0,0,0-1.247,1.777c-.052.182-.072.368-.134.585a1.542,1.542,0,0,1-.348.551,4.653,4.653,0,0,0-.62.958,4.5,4.5,0,0,0-.375,1.092,4.889,4.889,0,0,0-.117,1.167,4.169,4.169,0,0,1,.251-2.366,4.265,4.265,0,0,1,.61-1.057,1.206,1.206,0,0,0,.276-.444c.048-.162.072-.369.124-.568a3.442,3.442,0,0,1,.506-1.13,2.381,2.381,0,0,1,.954-.8,3.863,3.863,0,0,1,1.753-.286c.017.034.034.065.052.1Z" transform="translate(-21.076 -26.347)" fill="#d6b24e"/>
        <path id="Path_2671" data-name="Path 2671" d="M24.766,24.412q-.212.005-.424.021a7.5,7.5,0,0,0-1.15.134,4.607,4.607,0,0,0-1.081.344c-.334.152-.641.413-.988.613a17.469,17.469,0,0,0-1.956,1.281,3.43,3.43,0,0,1-1.116.468,2.187,2.187,0,0,1-.7.021c.007-.024.014-.052.021-.076a2,2,0,0,0,.641-.107,3.246,3.246,0,0,0,1.009-.527c.31-.227.61-.479.923-.723a5.9,5.9,0,0,1,1.009-.637,10.781,10.781,0,0,1,1.026-.606,4.015,4.015,0,0,1,1.171-.313,7.459,7.459,0,0,1,1.567-.014c.017.041.034.079.052.121Z" transform="translate(-14.807 -24.257)" fill="#d6b24e"/>
        <path id="Path_2672" data-name="Path 2672" d="M70.877,82.955a1.957,1.957,0,0,1-.871,1.471,2.931,2.931,0,0,1-1.9.158,4.042,4.042,0,0,1-1.7-.52,2.138,2.138,0,0,1-.493-.455c.5-1.167,1.02-2.259,2.535-2.314a2.222,2.222,0,0,1,.809.121A3.55,3.55,0,0,1,70.68,82.69c.069.086.134.172.2.265Z" transform="translate(-46.642 -61.649)" fill="#d6b24e"/>
        <path id="Path_2673" data-name="Path 2673" d="M90.676,73c-.024.854-.868,1.409-1.426,2.056-.754.882-1.271,2.256-2.428,2.308a1.73,1.73,0,0,1-.875-.22,3.991,3.991,0,0,1,.145-2.738,2.072,2.072,0,0,1,1.956-1.109c.42.028.823.182,1.243.234a1.241,1.241,0,0,0,1.15-.362.444.444,0,0,1,.155-.155A.2.2,0,0,1,90.676,73Z" transform="translate(-59.659 -56.21)" fill="#d6b24e"/>
        <path id="Path_2674" data-name="Path 2674" d="M86.273,43.684a1.8,1.8,0,0,1-.958.992.868.868,0,0,1-.668-.355,1.473,1.473,0,0,1-.193-.761c-.062-.882.1-2.394.992-2.9a6.924,6.924,0,0,1,.706,1.519A2.378,2.378,0,0,1,86.273,43.684Z" transform="translate(-58.793 -35.008)" fill="#d6b24e"/>
        <path id="Path_2675" data-name="Path 2675" d="M52.991,70.207A2.812,2.812,0,0,1,48.3,72.336a5.487,5.487,0,0,1,.4-2.063,2.292,2.292,0,0,1,.265-.5,2.123,2.123,0,0,1,1.137-.7,4.573,4.573,0,0,1,2.676.038,3.239,3.239,0,0,1,.217,1.088Z" transform="translate(-35.097 -53.523)" fill="#d6b24e"/>
        <path id="Path_2676" data-name="Path 2676" d="M15.368,49.268a2.859,2.859,0,0,1-3.038.9c-1.116-.234-2.3-.985-2.356-2.125a2.02,2.02,0,0,1,.114-.727,1.2,1.2,0,0,1,1.051-.234l.813.165a1.384,1.384,0,0,1,.486.172,1.539,1.539,0,0,1,.31.324,3.414,3.414,0,0,0,1.691,1.175,2.211,2.211,0,0,1,.93.348Z" transform="translate(-9.972 -39.201)" fill="#d6b24e"/>
      </g>
    </g>
  </g>
</svg>
