<svg xmlns="http://www.w3.org/2000/svg" width="70" height="106.24" viewBox="0 0 70 106.24">
  <g id="ic-good" transform="translate(-18483.998 -15768)">
    <path id="Path_2981" data-name="Path 2981" d="M-16.71.22c-4.62,0-6.94-3.5-6.94-7.5,0-4.1,2.28-7.62,6.98-7.62a7,7,0,0,1,4.5,1.42l-.64,1.34a6.506,6.506,0,0,0-3.72-1.26c-3.7,0-5.26,2.9-5.26,6.12,0,3.24,1.56,6.02,5.26,6.02a7.284,7.284,0,0,0,3.3-.88V-6h-3.62l.12-1.46h5V-1.2A8.687,8.687,0,0,1-16.71.22Zm15.4-5.56c0,2.18-.9,4.24-3.22,4.24-2.34,0-3.4-2.06-3.4-4.22,0-2.18,1.06-4.3,3.36-4.3C-2.15-9.62-1.31-7.62-1.31-5.34Zm1.7-.02c0-3.08-1.64-5.62-4.92-5.62-3.24,0-5.08,2.58-5.08,5.64,0,3.08,1.8,5.58,5.04,5.58C-1.35.24.39-2.4.39-5.36Zm10.08.02c0,2.18-.9,4.24-3.22,4.24-2.34,0-3.4-2.06-3.4-4.22,0-2.18,1.06-4.3,3.36-4.3C9.63-9.62,10.47-7.62,10.47-5.34Zm1.7-.02c0-3.08-1.64-5.62-4.92-5.62-3.24,0-5.08,2.58-5.08,5.64C2.17-2.26,3.97.24,7.21.24,10.43.24,12.17-2.4,12.17-5.36Zm6.46,4.14c2.2,0,3.22-1.86,3.22-4.16s-.96-4.16-3.24-4.16c-2.18,0-2.98,2.16-2.98,4.1C15.63-3.32,16.41-1.22,18.63-1.22ZM18.53.24c-2.9,0-4.58-2.38-4.58-5.72,0-3.04,1.8-5.5,4.52-5.5a3.74,3.74,0,0,1,3.38,1.82v-5.4l1.64-.18V0H22.03l-.2-1.68A3.768,3.768,0,0,1,18.53.24Z" transform="translate(18518.648 15874)"/>
    <g id="Group_395" data-name="Group 395" transform="translate(17686.188 14956.756)">
      <g id="Ellipse_101" data-name="Ellipse 101" transform="translate(797.81 811.244)">
        <circle id="Ellipse_111" data-name="Ellipse 111" cx="35" cy="35" r="35" transform="translate(0 0)" fill="#ffe856"/>
      </g>
      <g id="Ellipse_102" data-name="Ellipse 102" transform="translate(817.465 831.869)">
        <ellipse id="Ellipse_112" data-name="Ellipse 112" cx="6.5" cy="7.5" rx="6.5" ry="7.5" fill="#fff"/>
      </g>
      <g id="Ellipse_103" data-name="Ellipse 103" transform="translate(835.155 831.869)">
        <ellipse id="Ellipse_113" data-name="Ellipse 113" cx="6.5" cy="7.5" rx="6.5" ry="7.5" fill="#fff"/>
      </g>
      <g id="Ellipse_104" data-name="Ellipse 104" transform="translate(820.456 834.857)">
        <ellipse id="Ellipse_114" data-name="Ellipse 114" cx="3" cy="4.5" rx="3" ry="4.5"/>
      </g>
      <g id="Ellipse_105" data-name="Ellipse 105" transform="translate(839.164 834.857)">
        <ellipse id="Ellipse_115" data-name="Ellipse 115" cx="3" cy="4.5" rx="3" ry="4.5"/>
      </g>
      <g id="Path_2925" data-name="Path 2925" transform="translate(817.43 859.674)">
        <path id="Path_2937" data-name="Path 2937" d="M831.527,863.771c-12.037,0-15.678-7.253-15.826-7.561a1.138,1.138,0,0,1,2.047-.994c.138.274,3.262,6.278,13.779,6.278,10.482,0,13.162-5.967,13.272-6.221a1.139,1.139,0,0,1,2.1.877C846.773,856.46,843.611,863.771,831.527,863.771Z" transform="translate(-815.587 -854.577)"/>
      </g>
      <g id="Path_2928" data-name="Path 2928" transform="translate(817.021 826.131)">
        <path id="Path_2938" data-name="Path 2938" d="M815.934,830.044a.853.853,0,0,1-.709-1.326c.1-.151,2.5-3.695,6.276-4.069,3.842-.388,6.932,3.331,7.063,3.49a.854.854,0,0,1-1.317,1.087c-.027-.031-2.663-3.147-5.577-2.878-2.957.295-5,3.288-5.025,3.319A.851.851,0,0,1,815.934,830.044Z" transform="translate(-815.081 -824.62)"/>
      </g>
      <g id="Path_2936" data-name="Path 2936" transform="translate(834.936 826.115)">
        <path id="Path_2939" data-name="Path 2939" d="M843.918,830.03a.853.853,0,0,1-.71-.378c-.019-.03-2.067-3.024-5.026-3.319-2.9-.278-5.548,2.848-5.575,2.88a.854.854,0,0,1-1.317-1.088c.131-.157,3.253-3.878,7.062-3.49,3.771.375,6.177,3.918,6.276,4.069a.853.853,0,0,1-.709,1.326Z" transform="translate(-831.095 -824.606)"/>
      </g>
    </g>
  </g>
</svg>
