<svg xmlns="http://www.w3.org/2000/svg" width="46.365" height="55.121" viewBox="0 0 46.365 55.121">
  <g id="ic-kitchen-cart" transform="translate(-4990.817 -12103)">
    <g id="Group_433" data-name="Group 433">
      <g id="Rectangle_108" data-name="Rectangle 108" transform="translate(4995 12103)" fill="#fff" stroke="#707070" stroke-width="1" opacity="0">
        <rect width="38" height="38" stroke="none"/>
        <rect x="0.5" y="0.5" width="37" height="37" fill="none"/>
      </g>
      <g id="Group_77" data-name="Group 77" transform="translate(4372.957 11590.54)">
        <g id="Path_2716" data-name="Path 2716" transform="translate(628.043 533.007)">
          <path id="Path_2720" data-name="Path 2720" d="M633.667,558.6h13.762a1.272,1.272,0,0,0,1.207-.87l4.35-13.051A1.273,1.273,0,0,0,651.779,543H629.317a1.273,1.273,0,0,0-1.207,1.675l4.35,13.051A1.273,1.273,0,0,0,633.667,558.6Z" transform="translate(-628.043 -543)"/>
        </g>
        <g id="Path_2717" data-name="Path 2717" transform="translate(635.024 519.684)">
          <path id="Path_2721" data-name="Path 2721" d="M644.31,533.547H644.3c-.055,0-5.511-.281-5.511-5.524s5.456-5.521,5.511-5.524a.322.322,0,0,1,.337.311.325.325,0,0,1-.311.339c-.2.008-4.888.259-4.888,4.874s4.688,4.865,4.888,4.874a.325.325,0,0,1-.014.65Z" transform="translate(-638.786 -522.498)"/>
        </g>
        <g id="Path_2718" data-name="Path 2718" transform="translate(640.223 519.685)">
          <path id="Path_2722" data-name="Path 2722" d="M647.116,528.349h-.007a.325.325,0,0,1,0-.65h0a5.672,5.672,0,0,0,3.614-1.426,4.67,4.67,0,0,0,1.258-3.447.325.325,0,1,1,.65,0,5.293,5.293,0,0,1-1.453,3.913A6.237,6.237,0,0,1,647.116,528.349Z" transform="translate(-646.786 -522.5)"/>
        </g>
        <g id="Path_2719" data-name="Path 2719" transform="translate(637.624 514.46)">
          <path id="Path_2723" data-name="Path 2723" d="M648.33,520.335a.325.325,0,0,1-.325-.325,4.933,4.933,0,0,0-1.417-3.885,4.823,4.823,0,0,0-3.435-.991.325.325,0,0,1-.084-.645,5.406,5.406,0,0,1,3.943,1.143,5.537,5.537,0,0,1,1.643,4.378A.325.325,0,0,1,648.33,520.335Z" transform="translate(-642.787 -514.46)"/>
        </g>
      </g>
      <path id="Path_2971" data-name="Path 2971" d="M-20.839-4.29l3.289-3.74H-18.8l-3.421,3.894V-8.03h-.957V0h.957V-3.234l.627-.539L-18.375,0h1.2Zm5.951-3.74h-.946V0h.946Zm1.551.825h2.4V0h.946V-7.205h2.409V-8.03h-5.753ZM-2.58-8.2C-5.055-8.2-6.419-6.38-6.419-4c0,2.277,1.331,4.125,3.85,4.125A3.3,3.3,0,0,0-.259-.572l-.308-.781a3.127,3.127,0,0,1-1.925.66C-4.6-.693-5.4-2.3-5.4-4c0-1.782.9-3.366,2.849-3.366a3.267,3.267,0,0,1,1.98.638l.341-.726A3.56,3.56,0,0,0-2.58-8.2ZM6.76-3.74V0h.957V-8.03H6.76v3.476H2.37V-8.03H1.424V0H2.37V-3.74Zm7.7-.8H10.9V-7.205h3.718l.066-.825H9.949V0h4.807l.088-.836H10.9V-3.718h3.564ZM23.182,0V-8.03H22.3v6.666L17.814-8.03H16.769V0h.891V-6.655L22.126,0Z" transform="translate(5014 12158)"/>
    </g>
  </g>
</svg>
