<svg xmlns="http://www.w3.org/2000/svg" width="94.24" height="50.192" viewBox="0 0 94.24 50.192">
  <g id="Group_434" data-name="Group 434" transform="translate(-241.032 -730)">
    <g id="Group_299" data-name="Group 299" transform="translate(-9340 -13426)">
      <rect id="Rectangle_157" data-name="Rectangle 157" width="24" height="24" transform="translate(9616 14156)" fill="none"/>
      <path id="Path_2862" data-name="Path 2862" d="M-2352.313,3105.949l-9.282,9.2,9.282,9.2" transform="translate(11984.095 11052.551)" fill="none" stroke="#000" stroke-linecap="round" stroke-linejoin="round" stroke-width="2"/>
    </g>
    <path id="Path_2975" data-name="Path 2975" d="M-45.592-5.6h2.848c1.744,0,2.688.784,2.688,2.256,0,1.568-1.056,2.256-3.088,2.256h-2.448Zm0-4.96h1.824c1.9,0,3.2.24,3.2,2,0,1.648-1.168,1.92-2.256,1.92h-2.768ZM-46.968,0h4.08c3.04,0,4.24-1.28,4.24-3.328a2.853,2.853,0,0,0-2.144-2.928,2.51,2.51,0,0,0,1.664-2.576c0-2.064-1.616-2.848-4.432-2.848h-3.408ZM-34.52-.832a1.263,1.263,0,0,1-1.424-1.36c0-1.2.72-1.584,3.152-1.9.016,0,.784-.112.784-.112V-2.1A3.438,3.438,0,0,1-34.52-.832Zm2.544-.112.192.944h1.072V-6.3c0-1.92-1.328-2.48-3.024-2.48a6.819,6.819,0,0,0-3.008.656l.368,1.024A6.629,6.629,0,0,1-33.7-7.68c1.184,0,1.7.544,1.7,1.584v.976l-.864.1c-2.208.32-4.384.624-4.384,2.88A2.317,2.317,0,0,0-34.648.192,3.507,3.507,0,0,0-31.976-.944Zm9.424.352a3.482,3.482,0,0,1-2.32.784C-27.544.192-29-1.9-29-4.288c.016-2.368,1.552-4.5,4.112-4.5a3.431,3.431,0,0,1,2.336.752l-.336.928A3.622,3.622,0,0,0-24.9-7.7c-1.568,0-2.768,1.456-2.768,3.44,0,1.968,1.152,3.376,2.864,3.376a3.449,3.449,0,0,0,1.936-.64Zm1.44-11.056V0H-19.8V-3.6l.928-.8L-15.64,0h1.68l-3.92-5.008,3.664-3.568h-1.776L-19.8-4.944v-6.848ZM-7.656-7.664h2.272v-.912H-7.656v-2.848l-.976.08-.336,2.768h-1.2l-.112.912h1.312v4.192c0,2.608.16,3.632,2.24,3.632.272,0,.512-.032,1.488-.112l-.112-1.056c-.608.048-.928.08-1.072.08-1.04,0-1.232-.336-1.232-1.936Zm10,3.392c0,1.744-.72,3.392-2.576,3.392-1.872,0-2.72-1.648-2.72-3.376C-2.952-6-2.1-7.7-.264-7.7,1.672-7.7,2.344-6.1,2.344-4.272ZM3.7-4.288c0-2.464-1.312-4.5-3.936-4.5C-2.824-8.784-4.3-6.72-4.3-4.272-4.3-1.808-2.856.192-.264.192,2.312.192,3.7-1.92,3.7-4.288Zm6.752-4.944,3.76,7.808h1.568l3.7-7.76V0h1.3V-11.68h-1.44L15.016-2.7,10.664-11.68H9.16V0h1.3ZM26.632.192C24.184.192,22.7-1.552,22.7-4.3c0-2.56,1.536-4.416,3.776-4.48,2.128,0,3.456,1.616,3.456,4.144,0,.128-.016.448-.016.592H24.04c0,1.936,1.136,3.12,2.64,3.12a4.722,4.722,0,0,0,2.72-.864l.4.96A4.807,4.807,0,0,1,26.632.192ZM24.088-4.96h4.576c0-1.824-.912-2.752-2.192-2.752C25.176-7.712,24.232-6.64,24.088-4.96ZM35.88-8.784a3.869,3.869,0,0,0-3.056,1.472l-.112-1.264H31.576l.032,2.08V0H32.92V-5.856a2.824,2.824,0,0,1,2.672-1.808c1.584,0,1.68,1.136,1.68,3.36V0h1.312V-5.136C38.584-7.536,37.768-8.784,35.88-8.784Zm4.512,5.92c0,2.24,1.648,3.056,3.456,3.056s3.424-.8,3.424-3.056V-8.576H45.96v5.728c0,1.52-.9,1.968-2.112,1.968-1.232,0-2.144-.432-2.144-1.968V-8.576H40.392Z" transform="translate(288 780)"/>
  </g>
</svg>
