<svg id="ic-lang" xmlns="http://www.w3.org/2000/svg" width="28" height="28" viewBox="0 0 28 28">
  <g id="Group_215" data-name="Group 215" transform="translate(-11 -11)" opacity="0.7">
    <g id="Rectangle_106" data-name="Rectangle 106" transform="translate(11 11)" fill="#fff" stroke="#707070" stroke-width="1" opacity="0">
      <rect width="28" height="28" stroke="none"/>
      <rect x="0.5" y="0.5" width="27" height="27" fill="none"/>
    </g>
    <g id="Group_187" data-name="Group 187" transform="translate(12.591 13.895)">
      <path id="Path_2764" data-name="Path 2764" d="M7.506-5.626H9.58l-.3-.887L5.807-16.238H3.748L.171-6.513l-.286.887H2.05L3.207-8.888H6.349Zm-3.833-4.6,1.112-3.593,1.052,3.593Z" transform="translate(0.115 16.238)"/>
      <path id="Path_2763" data-name="Path 2763" d="M6,0H4.3L0,12.3H1.684Z" transform="translate(7.772 5.305) rotate(-7)"/>
      <path id="Path_2762" data-name="Path 2762" d="M7.65-11.978l.242.026q.11.011.25.011a3.965,3.965,0,0,0,.928-.11,3.619,3.619,0,0,0,.767-.264v-4.565h3.516v1.651h-1.6v9.292H9.837v-4.741a1.592,1.592,0,0,1-.228.088q-.139.044-.3.081t-.341.059a2.724,2.724,0,0,1-.338.022q.037.183.059.33a2.3,2.3,0,0,1,.022.338,2.727,2.727,0,0,1-.25,1.185,2.582,2.582,0,0,1-.686.888,3.106,3.106,0,0,1-1.028.558,4.025,4.025,0,0,1-1.266.194,3.862,3.862,0,0,1-1.27-.2,3.971,3.971,0,0,1-1.042-.539,4.537,4.537,0,0,1-.848-.8,7.289,7.289,0,0,1-.683-.995,9.688,9.688,0,0,1-.543-1.108q-.239-.576-.429-1.141L2.3-12.382q.132.418.3.859a8.608,8.608,0,0,0,.374.855,6.4,6.4,0,0,0,.462.778,3.73,3.73,0,0,0,.558.639,2.484,2.484,0,0,0,.661.433,1.889,1.889,0,0,0,.774.158,1.268,1.268,0,0,0,.987-.374,1.435,1.435,0,0,0,.341-1.006,1.627,1.627,0,0,0-.125-.668,1.263,1.263,0,0,0-.345-.462,1.388,1.388,0,0,0-.521-.268,2.412,2.412,0,0,0-.653-.084q-.073,0-.176,0t-.213.011l-.22.015-.191.015V-13.13a1.229,1.229,0,0,0,.136.007h.136a4.07,4.07,0,0,0,.712-.059,1.7,1.7,0,0,0,.572-.2,1.048,1.048,0,0,0,.382-.385,1.191,1.191,0,0,0,.139-.6.948.948,0,0,0-.323-.8,1.393,1.393,0,0,0-.873-.25,2.912,2.912,0,0,0-.807.114,6.4,6.4,0,0,0-.771.275l-.44-1.6a4.965,4.965,0,0,1,1.083-.382,4.829,4.829,0,0,1,1.061-.125,3.607,3.607,0,0,1,1.222.2,2.936,2.936,0,0,1,.95.543,2.457,2.457,0,0,1,.617.811,2.316,2.316,0,0,1,.22,1A2.322,2.322,0,0,1,8-13.384a2.973,2.973,0,0,1-.972.972l.007.037a2.617,2.617,0,0,1,.323.183Q7.51-12.088,7.65-11.978Z" transform="translate(11.609 28.247)"/>
    </g>
  </g>
</svg>
