<svg xmlns="http://www.w3.org/2000/svg" width="36" height="36" viewBox="0 0 36 36">
  <g id="ic-methi" transform="translate(-425 -1163)">
    <g id="Rectangle_36" data-name="Rectangle 36" transform="translate(425 1163)" fill="#fff" stroke="#707070" stroke-width="1" opacity="0">
      <rect width="36" height="36" stroke="none"/>
      <rect x="0.5" y="0.5" width="35" height="35" fill="none"/>
    </g>
    <g id="_228-oak_leaf" data-name="228-oak leaf" transform="translate(409.637 1148.311)">
      <path id="Path_2712" data-name="Path 2712" d="M39.872,34.712c1.215-.143,3.878-2.108,3.878-2.108,1.768-1.489.5-2.8.5-2.8l1.483-.742a2.1,2.1,0,0,0,.7-3.008c2.019-1.689,1.112-3.338,1.112-3.338a2.494,2.494,0,0,0-.5-.847,2.17,2.17,0,0,0-2.922-2.89,2.694,2.694,0,0,0-.66-.345s-1.649-.907-3.338,1.112a2.1,2.1,0,0,0-3.008.7l-.742,1.483s-1.309-1.269-2.8.5c0,0-1.965,2.662-2.108,3.878,0,0-2.578-.29-3.291,1.5,0,0-2.292,4.553-2.155,8.266s-7.591,9.942-7.591,9.942l.865.865.865.865s6.229-7.728,9.942-7.591S38.373,38,38.373,38c1.789-.713,1.5-3.291,1.5-3.291Z" transform="translate(0 0)" fill="#4abba4"/>
      <path id="Path_2713" data-name="Path 2713" d="M39.128,37c.605-.146,1.206-.308,1.8-.5a15.481,15.481,0,0,0,1.764-.653,15.468,15.468,0,0,0-1.868.222c-.616.1-1.225.231-1.83.377s-1.206.309-1.8.5q-.369.116-.734.245c1.352-1.374,2.706-2.747,4.038-4.141.439-.043.874-.106,1.305-.179.616-.1,1.225-.231,1.83-.376s1.206-.308,1.8-.5A15.482,15.482,0,0,0,47.2,31.34a15.466,15.466,0,0,0-1.868.222c-.616.1-1.225.231-1.83.377s-1.206.309-1.8.5c-.305.1-.609.2-.911.307l.113-.117,2.94-3.122c.956-1.065,1.935-2.107,2.871-3.191-1.084.936-2.127,1.915-3.191,2.871L40.4,32.125l-.117.112c.111-.3.212-.606.307-.911.19-.595.352-1.2.5-1.8s.275-1.214.377-1.83a15.465,15.465,0,0,0,.222-1.868,15.48,15.48,0,0,0-.653,1.764c-.19.595-.352,1.2-.5,1.8s-.274,1.215-.376,1.83c-.074.432-.137.866-.18,1.305-1.394,1.333-2.767,2.686-4.141,4.038q.129-.366.245-.734c.19-.595.352-1.2.5-1.8s.275-1.214.377-1.83a15.467,15.467,0,0,0,.222-1.868,15.48,15.48,0,0,0-.653,1.764c-.19.595-.352,1.2-.5,1.8s-.274,1.215-.376,1.83c-.067.392-.124.785-.166,1.183q-.612.6-1.225,1.2-1.087,1.117-2.183,2.226.133-.374.251-.752c.19-.595.352-1.2.5-1.8s.275-1.214.377-1.83a15.467,15.467,0,0,0,.222-1.868,15.48,15.48,0,0,0-.653,1.764c-.19.595-.352,1.2-.5,1.8S32,38.866,31.9,39.482c-.068.4-.127.8-.169,1.21-1.159,1.178-2.317,2.358-3.454,3.558l-2.94,3.122c-.956,1.064-1.935,2.106-2.872,3.19,1.084-.937,2.126-1.915,3.19-2.872l3.122-2.94c1.2-1.138,2.38-2.3,3.558-3.454.407-.042.81-.1,1.21-.169.616-.1,1.225-.231,1.83-.376s1.206-.308,1.8-.5a15.481,15.481,0,0,0,1.764-.653,15.467,15.467,0,0,0-1.868.222c-.616.1-1.225.231-1.83.377s-1.206.309-1.8.5q-.378.118-.752.251,1.111-1.094,2.226-2.183.6-.614,1.2-1.225c.4-.042.791-.1,1.183-.166.616-.1,1.225-.231,1.83-.376Z" transform="translate(-2.414 -4.43)" fill="#338270"/>
    </g>
  </g>
</svg>
