<svg id="ic-menu" xmlns="http://www.w3.org/2000/svg" width="28" height="28" viewBox="0 0 28 28">
  <g id="Group_212" data-name="Group 212" transform="translate(-611.127 -590.779)" opacity="0.7">
    <rect id="Rectangle_115" data-name="Rectangle 115" width="28" height="28" transform="translate(611.127 590.779)" fill="none"/>
    <g id="Group_207" data-name="Group 207">
      <g id="Group_203" data-name="Group 203" transform="translate(613.489 595.199)">
        <path id="Path_2766" data-name="Path 2766" d="M635.3,596.044h-21.03a1.167,1.167,0,0,1,0-2.333H635.3a1.167,1.167,0,0,1,0,2.333Z" transform="translate(-613.152 -593.711)"/>
      </g>
      <g id="Group_204" data-name="Group 204" transform="translate(613.15 603.289)">
        <path id="Path_2767" data-name="Path 2767" d="M635.867,604.022h-21.84a1.167,1.167,0,0,1,0-2.333h21.84a1.167,1.167,0,0,1,0,2.333Z" transform="translate(-612.861 -601.689)"/>
      </g>
      <g id="Group_205" data-name="Group 205" transform="translate(613.489 611.569)">
        <path id="Path_2768" data-name="Path 2768" d="M635.3,612.188h-21.03a1.168,1.168,0,0,1,0-2.333H635.3a1.167,1.167,0,0,1,0,2.333Z" transform="translate(-613.152 -609.855)"/>
      </g>
    </g>
  </g>
</svg>
