<svg xmlns="http://www.w3.org/2000/svg" width="16" height="16" viewBox="0 0 16 16">
  <g id="ic-nuts" transform="translate(-4029 -8490)">
    <g id="Group_166" data-name="Group 166" transform="translate(3327.305 7767.913)">
      <g id="Group_109" data-name="Group 109" transform="translate(703.089 722.641)">
        <path id="Path_2740" data-name="Path 2740" d="M714.991,726.278a2.286,2.286,0,0,0-3.235-.34,2.4,2.4,0,0,0-.273,3.414c.27.342.333,1.677-.882,2.894a2.682,2.682,0,0,1-2.887.9,2.486,2.486,0,0,0-3.428.292,2.278,2.278,0,0,0,.325,3.174,7.046,7.046,0,0,0,4.954,2.031,7.57,7.57,0,0,0,2.971-.62A7.16,7.16,0,0,0,717,731.309,7.26,7.26,0,0,0,714.991,726.278Z" transform="translate(-703.786 -723.752)" fill="#a2750a"/>
        <path id="Path_2741" data-name="Path 2741" d="M707.742,729.842a1.092,1.092,0,0,0,1.372-.73,1.148,1.148,0,0,0-.8-1.425c-.2-.063-.54-.479-.384-1.285.138-.712.561-1.216.862-1.225a1.189,1.189,0,0,0,1.279-1.033,1.088,1.088,0,0,0-.977-1.17,3.366,3.366,0,0,0-2.5.521,3.616,3.616,0,0,0-1.011,1.039,3.422,3.422,0,0,0,.029,3.853A3.471,3.471,0,0,0,707.742,729.842Z" transform="translate(-704.189 -722.918)" fill="#a2750a"/>
      </g>
      <rect id="Rectangle_80" data-name="Rectangle 80" width="16" height="16" transform="translate(701.695 722.087)" fill="none" opacity="0"/>
    </g>
  </g>
</svg>
