<svg xmlns="http://www.w3.org/2000/svg" width="79.668" height="132.774" viewBox="0 0 79.668 132.774">
  <g id="ic-no-greet" transform="translate(-22876 -15523.065)">
    <path id="Path_2986" data-name="Path 2986" d="M-3.56,0V-14.6h-1.6V-2.48L-13.32-14.6h-1.9V0h1.62V-12.1L-5.48,0ZM7.2-5.34c0,2.18-.9,4.24-3.22,4.24C1.64-1.1.58-3.16.58-5.32c0-2.18,1.06-4.3,3.36-4.3C6.36-9.62,7.2-7.62,7.2-5.34Zm1.7-.02c0-3.08-1.64-5.62-4.92-5.62C.74-10.98-1.1-8.4-1.1-5.34-1.1-2.26.7.24,3.94.24,7.16.24,8.9-2.4,8.9-5.36Zm4.52-4.22h2.84v-1.14H13.42v-3.56l-1.22.1-.42,3.46h-1.5l-.14,1.14h1.64v5.24c0,3.26.2,4.54,2.8,4.54.34,0,.64-.04,1.86-.14L16.3-1.26c-.76.06-1.16.1-1.34.1-1.3,0-1.54-.42-1.54-2.42Zm-41.48,35.8c-4.62,0-6.94-3.5-6.94-7.5,0-4.1,2.28-7.62,6.98-7.62a7,7,0,0,1,4.5,1.42l-.64,1.34a6.506,6.506,0,0,0-3.72-1.26c-3.7,0-5.26,2.9-5.26,6.12,0,3.24,1.56,6.02,5.26,6.02a7.284,7.284,0,0,0,3.3-.88V20H-28.2l.12-1.46h5V24.8A8.687,8.687,0,0,1-28.06,26.22Zm7.54-.22V17.74c0-.84-.02-1.64-.02-2.46h1.38l.12,1.86a3.341,3.341,0,0,1,3.14-1.86h.3l.12,1.5h-.4a2.785,2.785,0,0,0-3,2.94V26Zm11.14.24c-3.06,0-4.92-2.18-4.92-5.62,0-3.2,1.92-5.52,4.72-5.6,2.66,0,4.32,2.02,4.32,5.18,0,.16-.02.56-.02.74h-7.34c0,2.42,1.42,3.9,3.3,3.9a5.9,5.9,0,0,0,3.4-1.08l.5,1.2A6.009,6.009,0,0,1-9.38,26.24Zm-3.18-6.44h5.72c0-2.28-1.14-3.44-2.74-3.44C-11.2,16.36-12.38,17.7-12.56,19.8ZM1.48,26.24c-3.06,0-4.92-2.18-4.92-5.62,0-3.2,1.92-5.52,4.72-5.6,2.66,0,4.32,2.02,4.32,5.18,0,.16-.02.56-.02.74H-1.76c0,2.42,1.42,3.9,3.3,3.9a5.9,5.9,0,0,0,3.4-1.08l.5,1.2A6.009,6.009,0,0,1,1.48,26.24ZM-1.7,19.8H4.02c0-2.28-1.14-3.44-2.74-3.44C-.34,16.36-1.52,17.7-1.7,19.8Zm11.86-3.38H13V15.28H10.16V11.72l-1.22.1-.42,3.46H7.02l-.14,1.14H8.52v5.24c0,3.26.2,4.54,2.8,4.54.34,0,.64-.04,1.86-.14l-.14-1.32c-.76.06-1.16.1-1.34.1-1.3,0-1.54-.42-1.54-2.42Zm9.2,9.82c-3.06,0-4.92-2.18-4.92-5.62,0-3.2,1.92-5.52,4.72-5.6,2.66,0,4.32,2.02,4.32,5.18,0,.16-.02.56-.02.74H16.12c0,2.42,1.42,3.9,3.3,3.9a5.9,5.9,0,0,0,3.4-1.08l.5,1.2A6.009,6.009,0,0,1,19.36,26.24ZM16.18,19.8H21.9c0-2.28-1.14-3.44-2.74-3.44C17.54,16.36,16.36,17.7,16.18,19.8Zm13.8,4.98c2.2,0,3.22-1.86,3.22-4.16s-.96-4.16-3.24-4.16c-2.18,0-2.98,2.16-2.98,4.1C26.98,22.68,27.76,24.78,29.98,24.78Zm-.1,1.46c-2.9,0-4.58-2.38-4.58-5.72,0-3.04,1.8-5.5,4.52-5.5a3.74,3.74,0,0,1,3.38,1.82v-5.4l1.64-.18V26H33.38l-.2-1.68A3.768,3.768,0,0,1,29.88,26.24Z" transform="translate(22915 15629.6)"/>
    <path id="Path_2983" data-name="Path 2983" d="M969.277,781.468c20.406-24.443-19.464-50.94-34.147-22.843-14.564-27.923-54.264-1.911-34.347,22.608v0c2.218,2.277,32.429,33.332,34.353,35.308l34.141-35.073Z" transform="translate(21980.695 14776.521)"/>
  </g>
</svg>
