<svg xmlns="http://www.w3.org/2000/svg" width="36" height="36" viewBox="0 0 36 36">
  <g id="ic-oli" transform="translate(-349 -1154)">
    <g id="Rectangle_36" data-name="Rectangle 36" transform="translate(349 1154)" fill="#fff" stroke="#707070" stroke-width="1" opacity="0">
      <rect width="36" height="36" stroke="none"/>
      <rect x="0.5" y="0.5" width="35" height="35" fill="none"/>
    </g>
    <g id="_042-olive_oil" data-name="042-olive oil" transform="translate(328.546 1151.255)">
      <path id="Path_2696" data-name="Path 2696" d="M45.558,5.649H41.71a.454.454,0,0,0-.452.5l.407,4.016a.454.454,0,0,0,.452.408h3.033a.454.454,0,0,0,.452-.408l.407-4.016a.454.454,0,0,0-.452-.5Z" transform="translate(-7.477)" fill="#bb9b45"/>
      <path id="Path_2697" data-name="Path 2697" d="M46.461,5.649H43.667c-.2,0-.348.232-.328.5l.3,4.016c.017.232.159.408.328.408h2.2c.169,0,.311-.177.328-.408l.3-4.016C46.809,5.882,46.656,5.649,46.461,5.649Z" transform="translate(-8.907)" fill="#d6b24e"/>
      <path id="Path_2698" data-name="Path 2698" d="M41.939,33.016c-.088,2.59-2.417,7.335-2.417,7.335v.357a1.111,1.111,0,0,1-.765,1.057,7.542,7.542,0,0,1-2.6.311,7.542,7.542,0,0,1-2.6-.311,1.107,1.107,0,0,1-.761-1.057v-.357s-2.332-4.745-2.417-7.335A18.732,18.732,0,0,1,33.01,23.83c1.16-1.9.8-7.05.8-7.05a1.506,1.506,0,0,1-.411-1.84.99.99,0,0,1,.876-.519h3.773a.982.982,0,0,1,.876.519,1.5,1.5,0,0,1-.411,1.84s-.361,5.152.8,7.05a18.732,18.732,0,0,1,2.632,9.187Z" transform="translate(0 -6.025)" fill="#ededed"/>
      <path id="Path_2699" data-name="Path 2699" d="M33.321,50.314a17.825,17.825,0,0,0-1.716,7.35c.081,2.474,2.351,7.127,2.374,7.177l.038.073a11.373,11.373,0,0,0,5.963,0l.038-.077c.023-.05,2.294-4.7,2.378-7.177a17.88,17.88,0,0,0-1.72-7.35H33.321Z" transform="translate(-0.843 -30.685)" fill="#feda6f"/>
      <path id="Path_2700" data-name="Path 2700" d="M45.2,14.939a.982.982,0,0,0-.876-.519H40.551a.99.99,0,0,0-.876.519,1.506,1.506,0,0,0,.411,1.84h4.7a1.5,1.5,0,0,0,.411-1.84Z" transform="translate(-6.282 -6.025)" fill="#ededed"/>
      <path id="Path_2701" data-name="Path 2701" d="M40.775,49.6a14.946,14.946,0,0,0-3.677.224,14.4,14.4,0,0,0,3.677.242,14.431,14.431,0,0,0,3.68-.242A14.98,14.98,0,0,0,40.775,49.6Z" transform="translate(-4.62 -30.193)" fill="#fed35b"/>
      <path id="Path_2702" data-name="Path 2702" d="M38.808,41.765a2.062,2.062,0,0,0,1.087.319,3.1,3.1,0,0,1-1.425-.319,1.18,1.18,0,0,1-.484-1.057v-.357a36.69,36.69,0,0,1-1.537-7.335,27.3,27.3,0,0,1,1.675-9.187c.738-1.9.5-7.05.5-7.05a2.159,2.159,0,0,1-.261-1.84c.108-.323.327-.519.557-.519h.246c-.181,0-.357.2-.442.519a2.647,2.647,0,0,0,.207,1.84s.184,5.152-.4,7.05a33.7,33.7,0,0,0-1.329,9.187,45.039,45.039,0,0,0,1.218,7.335v.357a1.313,1.313,0,0,0,.384,1.057Z" transform="translate(-4.172 -6.026)" fill="#fff" opacity="0.15"/>
      <path id="Path_2703" data-name="Path 2703" d="M50.917,33.016a36.979,36.979,0,0,1-1.537,7.335v.357a1.182,1.182,0,0,1-.488,1.057,3.088,3.088,0,0,1-1.425.319,2.062,2.062,0,0,0,1.087-.319,1.313,1.313,0,0,0,.388-1.057v-.357a45.04,45.04,0,0,0,1.218-7.335,33.7,33.7,0,0,0-1.329-9.187c-.584-1.9-.4-7.05-.4-7.05a2.6,2.6,0,0,0,.207-1.84c-.081-.323-.257-.519-.442-.519h.246a.648.648,0,0,1,.557.519,2.145,2.145,0,0,1-.261,1.84s-.231,5.152.507,7.05a27.3,27.3,0,0,1,1.675,9.187Z" transform="translate(-11.744 -6.025)" fill="#fff" opacity="0.15"/>
      <ellipse id="Ellipse_50" data-name="Ellipse 50" cx="2.043" cy="2.366" rx="2.043" ry="2.366" transform="translate(41.702 30.881)" fill="#293b44"/>
      <ellipse id="Ellipse_51" data-name="Ellipse 51" cx="0.547" cy="0.287" rx="0.547" ry="0.287" transform="translate(43.198 31.235)" fill="#19282f"/>
      <path id="Path_2704" data-name="Path 2704" d="M68.3,92.513a2.392,2.392,0,0,1,0-2.395l.093.057a2.28,2.28,0,0,0,0,2.278Z" transform="translate(-25.83 -58.031)" fill="#ededed"/>
      <ellipse id="Ellipse_52" data-name="Ellipse 52" cx="2.043" cy="2.366" rx="2.043" ry="2.366" transform="translate(38.848 31.808)" fill="#344d5b"/>
      <ellipse id="Ellipse_53" data-name="Ellipse 53" cx="0.547" cy="0.287" rx="0.547" ry="0.287" transform="translate(40.344 32.162)" fill="#19282f"/>
      <path id="Path_2705" data-name="Path 2705" d="M59.185,95.476a2.392,2.392,0,0,1,0-2.395l.093.057a2.28,2.28,0,0,0,0,2.278Z" transform="translate(-19.565 -60.067)" fill="#ededed"/>
      <path id="Path_2706" data-name="Path 2706" d="M63.418,78.907a.164.164,0,0,1-.161-.136,5.051,5.051,0,0,0-4.11-4.058.164.164,0,0,1,.05-.324,5.471,5.471,0,0,1,4.383,4.327.164.164,0,0,1-.134.189l-.028,0Z" transform="translate(-19.673 -47.224)" fill="#41a38e"/>
      <path id="Path_2707" data-name="Path 2707" d="M63.5,79.36a.164.164,0,0,1-.162-.138c-.006-.039-.595-3.948,2.128-5.4a.164.164,0,0,1,.155.289c-2.516,1.345-1.964,5.026-1.959,5.063a.164.164,0,0,1-.136.188l-.026,0Z" transform="translate(-22.606 -46.819)" fill="#4abba4"/>
      <path id="Path_2708" data-name="Path 2708" d="M58.076,81.877a2.212,2.212,0,0,0-2.306.817,3.428,3.428,0,0,0-.714,1.9,3.171,3.171,0,0,0,2.224-.675A3.22,3.22,0,0,0,58.076,81.877Z" transform="translate(-16.958 -52.325)" fill="#4abba4"/>
      <path id="Path_2709" data-name="Path 2709" d="M59.167,82.021A5.206,5.206,0,0,0,56.644,84.3S58.206,82.876,59.167,82.021Z" transform="translate(-18.049 -52.468)" fill="#41a38e"/>
      <path id="Path_2710" data-name="Path 2710" d="M70.223,80.86a1.181,1.181,0,0,1,1.282-.256,1.832,1.832,0,0,1,.847.675,1.694,1.694,0,0,1-1.2.3,1.72,1.72,0,0,1-.923-.718Z" transform="translate(-27.378 -51.433)" fill="#4abba4"/>
      <path id="Path_2711" data-name="Path 2711" d="M70.223,81.56a2.781,2.781,0,0,1,1.782.357S70.9,81.69,70.223,81.56Z" transform="translate(-27.378 -52.133)" fill="#41a38e"/>
    </g>
  </g>
</svg>
