<svg xmlns="http://www.w3.org/2000/svg" width="16" height="16" viewBox="0 0 16 16">
  <g id="ic-pork" transform="translate(-4147 -8490)">
    <g id="Group_168" data-name="Group 168" transform="translate(3419.223 7782.57)">
      <path id="Path_2744" data-name="Path 2744" d="M742.782,719.65a.987.987,0,0,0-1.4,0,.976.976,0,0,0-.183.275l-1.158-1.158c.008-.907-.073-3.421-1.154-4.5-1.332-1.332-4.106-4.481-4.705-4.705a3.228,3.228,0,0,0-3.506.792,3.167,3.167,0,0,0-.792,3.506c.273.662,3.384,3.384,4.705,4.705,1.08,1.08,3.622,1.16,4.517,1.153l1.155,1.156a.964.964,0,0,0-.27.179.987.987,0,1,0,1.416.029l.011-.011a.983.983,0,0,0,1.361-1.419Z" transform="translate(-0.627 -0.639)" fill="#964122"/>
      <rect id="Rectangle_83" data-name="Rectangle 83" width="16" height="16" transform="translate(727.778 707.43)" fill="none"/>
    </g>
  </g>
</svg>
