<svg xmlns="http://www.w3.org/2000/svg" width="36" height="36" viewBox="0 0 36 36">
  <g id="ic-panner" transform="translate(-268 -1167)">
    <g id="Rectangle_36" data-name="Rectangle 36" transform="translate(268 1167)" fill="#fff" stroke="#707070" stroke-width="1" opacity="0">
      <rect width="36" height="36" stroke="none"/>
      <rect x="0.5" y="0.5" width="35" height="35" fill="none"/>
    </g>
    <g id="_148-cheese" data-name="148-cheese" transform="translate(255.297 1153.831)">
      <path id="Path_2680" data-name="Path 2680" d="M44.073,27.848l-.032,11.147L17.115,44.153l.032-11.143,8.82-15.615a34.45,34.45,0,0,1,11.357,3.8,17.342,17.342,0,0,1,6.749,6.653Z" transform="translate(-0.002)" fill="#feda6f"/>
      <path id="Path_2681" data-name="Path 2681" d="M44.072,46.777,44.04,57.922l-26.929,5.16.032-11.145Z" transform="translate(0 -18.928)" fill="#fed35b"/>
      <path id="Path_2682" data-name="Path 2682" d="M52.4,68.408a1.471,1.471,0,0,1-1.264,1.327,1.18,1.18,0,0,1-.912-.19.875.875,0,0,1-.359-.715A1.46,1.46,0,0,1,51.125,67.5a1.037,1.037,0,0,1,1.232.64.951.951,0,0,1,.039.265Z" transform="translate(-21.098 -32.268)" fill="#bb9b45"/>
      <path id="Path_2683" data-name="Path 2683" d="M52.983,69.23a1.471,1.471,0,0,1-1.264,1.327,1.18,1.18,0,0,1-.912-.19.944.944,0,0,1-.036-.261,1.46,1.46,0,0,1,1.264-1.327,1.19,1.19,0,0,1,.908.186.951.951,0,0,1,.039.265Z" transform="translate(-21.684 -33.09)" fill="#d6b24e"/>
      <path id="Path_2684" data-name="Path 2684" d="M29.027,79.314a1.471,1.471,0,0,1-1.264,1.327,1.18,1.18,0,0,1-.912-.19.875.875,0,0,1-.359-.715,1.46,1.46,0,0,1,1.264-1.327,1.037,1.037,0,0,1,1.232.64.951.951,0,0,1,.039.265Z" transform="translate(-6.043 -39.294)" fill="#bb9b45"/>
      <path id="Path_2685" data-name="Path 2685" d="M29.614,80.136a1.471,1.471,0,0,1-1.264,1.327,1.18,1.18,0,0,1-.912-.19.944.944,0,0,1-.036-.261,1.46,1.46,0,0,1,1.264-1.327,1.19,1.19,0,0,1,.908.186A.951.951,0,0,1,29.614,80.136Z" transform="translate(-6.629 -40.116)" fill="#d6b24e"/>
      <path id="Path_2686" data-name="Path 2686" d="M79.325,54.43a2.219,2.219,0,0,1-1.906,2,1.78,1.78,0,0,1-1.376-.286,1.32,1.32,0,0,1-.542-1.078,2.2,2.2,0,0,1,1.906-2,1.565,1.565,0,0,1,1.859.965A1.435,1.435,0,0,1,79.325,54.43Z" transform="translate(-37.615 -22.961)" fill="#bb9b45"/>
      <path id="Path_2687" data-name="Path 2687" d="M80.209,55.67a2.219,2.219,0,0,1-1.906,2,1.78,1.78,0,0,1-1.376-.286,1.424,1.424,0,0,1-.054-.393,2.2,2.2,0,0,1,1.906-2,1.8,1.8,0,0,1,1.37.28,1.435,1.435,0,0,1,.06.4Z" transform="translate(-38.499 -24.201)" fill="#d6b24e"/>
      <path id="Path_2688" data-name="Path 2688" d="M68.986,72.339a1.63,1.63,0,0,1-1.4,1.471,1.308,1.308,0,0,1-1.011-.21.97.97,0,0,1-.4-.792,1.618,1.618,0,0,1,1.4-1.471,1.15,1.15,0,0,1,1.366.709A1.054,1.054,0,0,1,68.986,72.339Z" transform="translate(-31.608 -34.736)" fill="#bb9b45"/>
      <path id="Path_2689" data-name="Path 2689" d="M69.636,73.25a1.63,1.63,0,0,1-1.4,1.471,1.308,1.308,0,0,1-1.011-.21,1.047,1.047,0,0,1-.039-.289,1.618,1.618,0,0,1,1.4-1.471,1.319,1.319,0,0,1,1.007.206A1.054,1.054,0,0,1,69.636,73.25Z" transform="translate(-32.258 -35.647)" fill="#d6b24e"/>
      <path id="Path_2690" data-name="Path 2690" d="M32.865,56.3a1.63,1.63,0,0,1-1.4,1.471,1.308,1.308,0,0,1-1.011-.21.97.97,0,0,1-.4-.792,1.618,1.618,0,0,1,1.4-1.471,1.15,1.15,0,0,1,1.366.709A1.055,1.055,0,0,1,32.865,56.3Z" transform="translate(-8.338 -24.403)" fill="#bb9b45"/>
      <path id="Path_2691" data-name="Path 2691" d="M33.515,57.211a1.63,1.63,0,0,1-1.4,1.471,1.308,1.308,0,0,1-1.011-.21,1.047,1.047,0,0,1-.039-.289,1.618,1.618,0,0,1,1.4-1.471,1.319,1.319,0,0,1,1.007.206,1.055,1.055,0,0,1,.044.293Z" transform="translate(-8.988 -25.314)" fill="#d6b24e"/>
      <path id="Path_2692" data-name="Path 2692" d="M55.651,35.356a2.157,2.157,0,0,1-2.614.624,1.73,1.73,0,0,1-.971-.961,1.284,1.284,0,0,1,.128-1.166,2.14,2.14,0,0,1,2.614-.624A1.521,1.521,0,0,1,55.813,35,1.4,1.4,0,0,1,55.651,35.356Z" transform="translate(-22.464 -10.075)" fill="#bb9b45"/>
      <path id="Path_2693" data-name="Path 2693" d="M55.8,36.836a2.157,2.157,0,0,1-2.614.624,1.73,1.73,0,0,1-.971-.961,1.385,1.385,0,0,1,.164-.349A2.14,2.14,0,0,1,55,35.526a1.745,1.745,0,0,1,.969.953,1.4,1.4,0,0,1-.163.357Z" transform="translate(-22.616 -11.554)" fill="#d6b24e"/>
      <path id="Path_2694" data-name="Path 2694" d="M42.666,27.163a1.188,1.188,0,0,1-1.44.344.953.953,0,0,1-.535-.53.707.707,0,0,1,.071-.643,1.179,1.179,0,0,1,1.44-.344.838.838,0,0,1,.554.975.768.768,0,0,1-.09.2Z" transform="translate(-15.16 -5.468)" fill="#bb9b45"/>
      <path id="Path_2695" data-name="Path 2695" d="M42.75,27.978a1.188,1.188,0,0,1-1.44.344.953.953,0,0,1-.535-.53.763.763,0,0,1,.091-.192,1.179,1.179,0,0,1,1.44-.344.961.961,0,0,1,.534.525A.769.769,0,0,1,42.75,27.978Z" transform="translate(-15.244 -6.283)" fill="#d6b24e"/>
    </g>
  </g>
</svg>
