<svg xmlns="http://www.w3.org/2000/svg" width="87.992" height="24" viewBox="0 0 87.992 24">
  <g id="ic-remove" transform="translate(-587 -634)">
    <path id="Path_2976" data-name="Path 2976" d="M2.528-10.48h3.1c1.792,0,2.4.656,2.4,1.872,0,1.392-.608,2.08-2.72,2.064L2.528-6.576ZM9.936,0,8.048-4.08c-.272-.592-.88-1.584-.864-1.584A2.847,2.847,0,0,0,9.392-8.64c0-2.64-1.76-3.04-4.544-3.04h-3.7V0H2.528V-5.408s1.936.064,2.08.064c.272,0,1.12-.016,1.344-.032a18.567,18.567,0,0,1,.832,1.744L8.368,0Zm5.28.192c-2.448,0-3.936-1.744-3.936-4.5,0-2.56,1.536-4.416,3.776-4.48,2.128,0,3.456,1.616,3.456,4.144,0,.128-.016.448-.016.592H12.624c0,1.936,1.136,3.12,2.64,3.12a4.722,4.722,0,0,0,2.72-.864l.4.96A4.807,4.807,0,0,1,15.216.192ZM12.672-4.96h4.576c0-1.824-.912-2.752-2.192-2.752C13.76-7.712,12.816-6.64,12.672-4.96ZM20.256,0V-6.4c0-.72-.032-1.92-.032-2.176H21.36l.112,1.28a3.558,3.558,0,0,1,2.9-1.488A2.247,2.247,0,0,1,26.784-7.2a3.272,3.272,0,0,1,2.96-1.584c1.936,0,2.64,1.344,2.64,3.344V0H31.072V-4.48c0-1.936-.08-3.168-1.536-3.168A2.649,2.649,0,0,0,27.12-5.712V0H25.808V-4.752c0-1.744-.3-2.9-1.6-2.9a2.816,2.816,0,0,0-2.64,1.792V0ZM40.672-4.272c0,1.744-.72,3.392-2.576,3.392-1.872,0-2.72-1.648-2.72-3.376,0-1.744.848-3.44,2.688-3.44C40-7.7,40.672-6.1,40.672-4.272Zm1.36-.016c0-2.464-1.312-4.5-3.936-4.5-2.592,0-4.064,2.064-4.064,4.512,0,2.464,1.44,4.464,4.032,4.464C40.64.192,42.032-1.92,42.032-4.288ZM46.224,0h1.328L50.9-8.576H49.5L46.944-1.44l-2.7-7.136H42.848ZM55.7.192c-2.448,0-3.936-1.744-3.936-4.5,0-2.56,1.536-4.416,3.776-4.48,2.128,0,3.456,1.616,3.456,4.144,0,.128-.016.448-.016.592H53.1c0,1.936,1.136,3.12,2.64,3.12a4.722,4.722,0,0,0,2.72-.864l.4.96A4.807,4.807,0,0,1,55.7.192ZM53.152-4.96h4.576c0-1.824-.912-2.752-2.192-2.752C54.24-7.712,53.3-6.64,53.152-4.96Z" transform="translate(616 653)" fill="#b23c3c"/>
    <g id="Group_434" data-name="Group 434" transform="translate(75.281 39.577)">
      <g id="Group_433" data-name="Group 433" transform="translate(515.897 595.918)">
        <path id="Path_2971" data-name="Path 2971" d="M516.65,599.859h14.144a.75.75,0,0,0,0-1.5h-6.322v-1.691a.75.75,0,0,0-1.5,0v1.691H516.65a.75.75,0,0,0,0,1.5Z" transform="translate(-515.9 -595.918)" fill="#b23c3c"/>
        <path id="Path_2972" data-name="Path 2972" d="M530.794,601.47a.75.75,0,0,0-.75.75v13.209H517.4V602.22a.75.75,0,0,0-1.5,0v13.959a.75.75,0,0,0,.75.75h14.144a.75.75,0,0,0,.75-.75V602.22A.75.75,0,0,0,530.794,601.47Z" transform="translate(-515.9 -595.918)" fill="#b23c3c"/>
        <path id="Path_2973" data-name="Path 2973" d="M522.972,603.681v9.573a.75.75,0,0,0,1.5,0v-9.573a.75.75,0,0,0-1.5,0Z" transform="translate(-515.9 -595.924)" fill="#b23c3c"/>
        <path id="Path_2974" data-name="Path 2974" d="M519.436,603.681v9.573a.75.75,0,0,0,1.5,0v-9.573a.75.75,0,0,0-1.5,0Z" transform="translate(-515.9 -595.924)" fill="#b23c3c"/>
        <path id="Path_2975" data-name="Path 2975" d="M526.508,603.681v9.573a.75.75,0,0,0,1.5,0v-9.573a.75.75,0,0,0-1.5,0Z" transform="translate(-515.9 -595.924)" fill="#b23c3c"/>
      </g>
      <rect id="Rectangle_247" data-name="Rectangle 247" width="24" height="24" transform="translate(511.719 594.423)" fill="none"/>
    </g>
  </g>
</svg>
