<svg xmlns="http://www.w3.org/2000/svg" width="90.836" height="104.662" viewBox="0 0 90.836 104.662">
  <g id="ic-slow" transform="translate(-18741 -17092.578)">
    <path id="Path_3067" data-name="Path 3067" d="M-21.32-2.38a11.074,11.074,0,0,0,4.84,1.12c2.08,0,3.18-.92,3.18-2.9,0-1.18-.48-1.98-2.34-2.44l-2.88-.72c-2.02-.5-3.28-1.58-3.28-3.52,0-2.84,2.12-4.06,5.32-4.06a8.673,8.673,0,0,1,4.38,1.06l-.5,1.36a9,9,0,0,0-3.9-.92c-2.32,0-3.54.78-3.54,2.46,0,1.14.76,1.76,2.16,2.1l2.74.66c2.18.52,3.58,1.58,3.58,3.96,0,3.04-2.04,4.44-5.02,4.44a10.454,10.454,0,0,1-5.24-1.2ZM-7.44-14.74l-1.64.18v9.98c0,3.56.06,4.78,2.7,4.78A6.738,6.738,0,0,0-5.28.08l-.1-1.28c-.5.04-.64.06-.88.06-1.12,0-1.18-.72-1.18-3.06ZM4.22-5.34C4.22-3.16,3.32-1.1,1-1.1c-2.34,0-3.4-2.06-3.4-4.22,0-2.18,1.06-4.3,3.36-4.3C3.38-9.62,4.22-7.62,4.22-5.34Zm1.7-.02c0-3.08-1.64-5.62-4.92-5.62-3.24,0-5.08,2.58-5.08,5.64C-4.08-2.26-2.28.24.96.24,4.18.24,5.92-2.4,5.92-5.36Zm1.16-5.36L10.28,0h1.66l2.98-9.06L17.78,0H19.4l3.2-10.72H20.94l-2.3,8.5-2.72-8.5H14L11.16-2.18,8.78-10.72Z" transform="translate(18785.82 17197)"/>
    <g id="ic-slow-2" data-name="ic-slow" transform="translate(18001.217 16152.829)">
      <g id="Group_410" data-name="Group 410" transform="translate(739.783 967.702)">
        <path id="Path_2959" data-name="Path 2959" d="M758.752,1001.04a18.969,18.969,0,1,1,18.969-18.969A18.992,18.992,0,0,1,758.752,1001.04Zm0-34.346a15.378,15.378,0,1,0,15.378,15.377A15.4,15.4,0,0,0,758.752,966.694Z" transform="translate(-739.783 -963.103)"/>
      </g>
      <g id="Group_411" data-name="Group 411" transform="translate(758.154 969.497)">
        <rect id="Rectangle_236" data-name="Rectangle 236" width="1.197" height="34.347"/>
      </g>
      <g id="Group_412" data-name="Group 412" transform="translate(741.579 986.072)">
        <rect id="Rectangle_237" data-name="Rectangle 237" width="34.348" height="1.197"/>
      </g>
      <g id="Group_413" data-name="Group 413" transform="translate(746.185 974.104)">
        <rect id="Rectangle_238" data-name="Rectangle 238" width="34.347" height="1.197" transform="translate(0 24.287) rotate(-45)"/>
      </g>
      <g id="Group_414" data-name="Group 414" transform="translate(746.185 974.104)">
        <rect id="Rectangle_239" data-name="Rectangle 239" width="1.197" height="34.347" transform="translate(0 0.846) rotate(-45)"/>
      </g>
      <g id="Group_415" data-name="Group 415" transform="translate(792.681 967.702)">
        <path id="Path_2960" data-name="Path 2960" d="M802.945,1001.04a18.969,18.969,0,1,1,18.969-18.969A18.991,18.991,0,0,1,802.945,1001.04Zm0-34.346a15.378,15.378,0,1,0,15.378,15.377A15.394,15.394,0,0,0,802.945,966.694Z" transform="translate(-783.977 -963.103)"/>
      </g>
      <g id="Group_416" data-name="Group 416" transform="translate(811.051 969.497)">
        <rect id="Rectangle_240" data-name="Rectangle 240" width="1.197" height="34.347"/>
      </g>
      <g id="Group_417" data-name="Group 417" transform="translate(794.476 986.072)">
        <rect id="Rectangle_241" data-name="Rectangle 241" width="34.347" height="1.197"/>
      </g>
      <g id="Group_418" data-name="Group 418" transform="translate(799.082 974.104)">
        <rect id="Rectangle_242" data-name="Rectangle 242" width="34.347" height="1.197" transform="translate(0 24.287) rotate(-45)"/>
      </g>
      <g id="Group_419" data-name="Group 419" transform="translate(799.082 974.104)">
        <rect id="Rectangle_243" data-name="Rectangle 243" width="1.197" height="34.347" transform="translate(0 0.846) rotate(-45)"/>
      </g>
      <g id="Group_420" data-name="Group 420" transform="translate(742.334 963.949)">
        <path id="Path_2961" data-name="Path 2961" d="M773.573,968.693a1.2,1.2,0,0,1-.849-.353,20.319,20.319,0,0,0-28.766-.024,1.2,1.2,0,0,1-1.695-1.69,22.711,22.711,0,0,1,32.158.026,1.2,1.2,0,0,1-.849,2.041Z" transform="translate(-741.914 -959.967)" fill="#07b22f"/>
      </g>
      <g id="Group_421" data-name="Group 421" transform="translate(795.335 963.949)">
        <path id="Path_2962" data-name="Path 2962" d="M817.854,968.788a1.2,1.2,0,0,1-.853-.357,20.334,20.334,0,0,0-28.769-.217,1.2,1.2,0,1,1-1.683-1.7,22.729,22.729,0,0,1,32.157.239,1.2,1.2,0,0,1-.852,2.037Z" transform="translate(-786.194 -959.967)" fill="#07b22f"/>
      </g>
      <g id="Group_422" data-name="Group 422" transform="translate(757.559 943.281)">
        <path id="Path_2963" data-name="Path 2963" d="M755.831,965.762a1.2,1.2,0,0,1-1.2-1.2V943.9a1.2,1.2,0,0,1,2.394,0v20.668A1.2,1.2,0,0,1,755.831,965.762Z" transform="translate(-754.634 -942.7)" fill="#07b22f"/>
      </g>
      <g id="Group_423" data-name="Group 423" transform="translate(810.452 954.249)">
        <path id="Path_2964" data-name="Path 2964" d="M800.021,963.957a1.2,1.2,0,0,1-1.2-1.2v-9.7a1.2,1.2,0,1,1,2.394,0v9.7A1.2,1.2,0,0,1,800.021,963.957Z" transform="translate(-798.824 -951.863)" fill="#07b22f"/>
      </g>
      <g id="Group_424" data-name="Group 424" transform="translate(757.555 954.249)">
        <path id="Path_2965" data-name="Path 2965" d="M819.966,954.257H755.828a1.2,1.2,0,0,1,0-2.394h64.138a1.2,1.2,0,1,1,0,2.394Z" transform="translate(-754.631 -951.863)" fill="#07b22f"/>
      </g>
      <g id="Group_425" data-name="Group 425" transform="translate(754.407 982.375)">
        <path id="Path_2966" data-name="Path 2966" d="M756.321,984a4.32,4.32,0,1,1,4.321-4.32A4.325,4.325,0,0,1,756.321,984Zm0-7.444a3.123,3.123,0,1,0,3.124,3.124A3.128,3.128,0,0,0,756.321,976.558Z" transform="translate(-752.001 -975.361)"/>
      </g>
      <g id="Group_426" data-name="Group 426" transform="translate(804.781 979.851)">
        <path id="Path_2967" data-name="Path 2967" d="M800.93,986.94a6.844,6.844,0,1,1,6.843-6.843A6.851,6.851,0,0,1,800.93,986.94Zm0-12.49a5.647,5.647,0,1,0,5.646,5.647A5.653,5.653,0,0,0,800.93,974.45Z" transform="translate(-794.086 -973.253)"/>
      </g>
      <g id="Group_427" data-name="Group 427" transform="translate(758.129 979.848)">
        <path id="Path_2968" data-name="Path 2968" d="M755.708,976.974a.6.6,0,0,1-.028-1.2l52.9-2.523a.575.575,0,0,1,.626.568.6.6,0,0,1-.57.626l-52.9,2.523Z" transform="translate(-755.11 -973.25)"/>
      </g>
      <g id="Group_428" data-name="Group 428" transform="translate(758.129 989.818)">
        <path id="Path_2969" data-name="Path 2969" d="M808.606,985.3h-.029l-52.9-2.524a.6.6,0,1,1,.056-1.195l52.9,2.523a.6.6,0,0,1-.028,1.2Z" transform="translate(-755.11 -981.58)"/>
      </g>
      <g id="Group_429" data-name="Group 429" transform="translate(796.257 947.405)">
        <rect id="Rectangle_244" data-name="Rectangle 244" width="21.935" height="7.406" rx="3.094"/>
      </g>
      <g id="Group_430" data-name="Group 430" transform="translate(752.036 939.75)">
        <path id="Path_2970" data-name="Path 2970" d="M751.217,951.008a1.2,1.2,0,0,1-.831-2.059l9.217-8.866a1.2,1.2,0,0,1,1.66,1.726l-9.217,8.865A1.194,1.194,0,0,1,751.217,951.008Z" transform="translate(-750.02 -939.75)" fill="#07b22f"/>
      </g>
    </g>
  </g>
</svg>
