<svg xmlns="http://www.w3.org/2000/svg" xmlns:xlink="http://www.w3.org/1999/xlink" width="114.081" height="26" viewBox="0 0 114.081 26">
  <defs>
    <linearGradient id="linear-gradient" y1="0.582" x2="0.991" y2="0.607" gradientUnits="objectBoundingBox">
      <stop offset="0" stop-color="#1e4421"/>
      <stop offset="0.347" stop-color="#2a742f"/>
      <stop offset="0.51" stop-color="#2f8b36"/>
      <stop offset="0.657" stop-color="#1e4421"/>
      <stop offset="1" stop-color="#1e4421"/>
    </linearGradient>
  </defs>
  <g id="ic-special-ofer" transform="translate(-5352 14966)">
    <path id="Subtraction_23" data-name="Subtraction 23" d="M112.744,26H2a2,2,0,0,1-2-2V2A2,2,0,0,1,2,0H112.744a2,2,0,0,1,1.338.514L97.962,13l16.119,12.487A2,2,0,0,1,112.744,26Z" transform="translate(5351.999 -14966.001)" fill="url(#linear-gradient)"/>
    <path id="Path_4090" data-name="Path 4090" d="M.852-1.428a6.644,6.644,0,0,0,2.9.672C5-.756,5.664-1.308,5.664-2.5c0-.708-.288-1.188-1.4-1.464L2.532-4.392C1.32-4.692.564-5.34.564-6.5c0-1.7,1.272-2.436,3.192-2.436A5.2,5.2,0,0,1,6.384-8.3l-.3.816a5.4,5.4,0,0,0-2.34-.552c-1.392,0-2.124.468-2.124,1.476,0,.684.456,1.056,1.3,1.26l1.644.4c1.308.312,2.148.948,2.148,2.376C6.708-.708,5.484.132,3.7.132A6.272,6.272,0,0,1,.552-.588ZM10.968-4.56c-.4,0-1.524-.012-1.524-.012V-7.836h1.812c1.08,0,1.86.42,1.86,1.452C13.116-5.508,12.96-4.56,10.968-4.56ZM9.444,0V-3.744c.444.036,1.068.084,1.428.084,2.592,0,3.3-1.116,3.3-2.748,0-1.692-1.272-2.352-2.94-2.352H8.4V0ZM20.472-4.956H16.584v-2.9H20.64l.072-.9h-5.16V0H20.8l.1-.912H16.584V-4.056h3.888Zm6.06-3.984c-2.7,0-4.188,1.98-4.188,4.572,0,2.484,1.452,4.5,4.2,4.5a3.6,3.6,0,0,0,2.52-.756l-.336-.852a3.411,3.411,0,0,1-2.1.72c-2.3,0-3.168-1.752-3.168-3.612,0-1.944.984-3.672,3.108-3.672a3.564,3.564,0,0,1,2.16.7l.372-.792A3.883,3.883,0,0,0,26.532-8.94Zm5.136.18H30.636V0h1.032Zm3.8,5.184,1.476-4.176L38.28-3.576ZM39.588,0h1.056L37.56-8.76H36.312L33.048,0H34.1l1.044-2.772h3.48ZM41.9-8.76V0h4.824l.06-.912h-3.84V-8.76Zm12.984.72c2.112,0,3.156,1.488,3.156,3.672,0,2.016-.948,3.612-3.156,3.612s-3.168-1.6-3.168-3.612C51.72-6.576,52.776-8.04,54.888-8.04Zm0,8.172c2.808,0,4.272-1.932,4.272-4.5,0-2.724-1.56-4.572-4.272-4.572S50.6-7.092,50.6-4.368C50.6-1.8,52.08.132,54.888.132ZM65.6-4.908H61.992V-7.86h3.732l.084-.9H60.96V0h1.032V-4.068H65.6Zm6.36,0H68.352V-7.86h3.732l.084-.9H67.32V0h1.032V-4.068h3.612ZM78.6-4.956H74.712v-2.9h4.056l.072-.9H73.68V0h5.244l.1-.912H74.712V-4.056H78.6Zm3.192-2.9H84.12c1.344,0,1.8.492,1.8,1.4,0,1.044-.456,1.56-2.04,1.548l-2.088-.024ZM87.348,0,85.932-3.06c-.2-.444-.66-1.188-.648-1.188A2.135,2.135,0,0,0,86.94-6.48c0-1.98-1.32-2.28-3.408-2.28H80.76V0h1.032V-4.056s1.452.048,1.56.048c.2,0,.84-.012,1.008-.024a13.924,13.924,0,0,1,.624,1.308L86.172,0Z" transform="translate(5356 -14949.06)" fill="#fff" stroke="rgba(0,0,0,0)" stroke-width="1"/>
  </g>
</svg>
