<svg xmlns="http://www.w3.org/2000/svg" width="16" height="16" viewBox="0 0 16 16">
  <g id="ic-spicy" transform="translate(-3956 -8490)">
    <g id="Group_165" data-name="Group 165" transform="translate(3386.602 7849.217)">
      <path id="Path_2737" data-name="Path 2737" d="M582.334,642.678a.535.535,0,0,0-.685-.409.682.682,0,0,0-.371.806,2.957,2.957,0,0,1-.477,1.84,2.293,2.293,0,0,0-3.4.82c-.427.957-.141,2.669-1.129,4.314s-4.32,5.345-3.941,5.788,3.672-1.379,6.239-3.142a8.947,8.947,0,0,0,2.9-3.222,3.915,3.915,0,0,0,.138-3.653A4.389,4.389,0,0,0,582.334,642.678Z" transform="translate(0.048 -0.289)" fill="#940000"/>
      <rect id="Rectangle_78" data-name="Rectangle 78" width="16" height="16" transform="translate(569.398 640.783)" fill="none" opacity="0"/>
    </g>
  </g>
</svg>
