<svg xmlns="http://www.w3.org/2000/svg" width="114.48" height="53.92" viewBox="0 0 114.48 53.92">
  <g id="Group_435" data-name="Group 435" transform="translate(-427.84 -730)">
    <g id="Group_300" data-name="Group 300" transform="translate(-138.127 139.221)">
      <rect id="Rectangle_158" data-name="Rectangle 158" width="24" height="24" transform="translate(611.127 590.78)" fill="none"/>
      <rect id="Rectangle_159" data-name="Rectangle 159" width="8.716" height="8.716" rx="1.638" transform="translate(613.128 604.059)"/>
      <rect id="Rectangle_160" data-name="Rectangle 160" width="8.716" height="8.716" rx="1.638" transform="translate(624.406 604.059)"/>
      <rect id="Rectangle_161" data-name="Rectangle 161" width="8.716" height="8.716" rx="1.638" transform="translate(613.128 592.781)"/>
      <rect id="Rectangle_162" data-name="Rectangle 162" width="8.716" height="8.716" rx="1.638" transform="translate(624.406 592.781)"/>
    </g>
    <path id="Path_2976" data-name="Path 2976" d="M-51.608.176c-3.7,0-5.552-2.8-5.552-6,0-3.28,1.824-6.1,5.584-6.1a5.6,5.6,0,0,1,3.6,1.136l-.512,1.072a5.2,5.2,0,0,0-2.976-1.008c-2.96,0-4.208,2.32-4.208,4.9,0,2.592,1.248,4.816,4.208,4.816a5.827,5.827,0,0,0,2.64-.7V-4.8h-2.9l.1-1.168h4V-.96A6.95,6.95,0,0,1-51.608.176Zm12.256-4.448c0,1.744-.72,3.392-2.576,3.392-1.872,0-2.72-1.648-2.72-3.376,0-1.744.848-3.44,2.688-3.44C-40.024-7.7-39.352-6.1-39.352-4.272Zm1.36-.016c0-2.464-1.312-4.5-3.936-4.5-2.592,0-4.064,2.064-4.064,4.512,0,2.464,1.44,4.464,4.032,4.464C-39.384.192-37.992-1.92-37.992-4.288ZM-30.9-7.664h2.272v-.912H-30.9v-2.848l-.976.08-.336,2.768h-1.2l-.112.912h1.312v4.192c0,2.608.16,3.632,2.24,3.632.272,0,.512-.032,1.488-.112L-28.6-1.008c-.608.048-.928.08-1.072.08-1.04,0-1.232-.336-1.232-1.936Zm10,3.392c0,1.744-.72,3.392-2.576,3.392-1.872,0-2.72-1.648-2.72-3.376,0-1.744.848-3.44,2.688-3.44C-21.576-7.7-20.9-6.1-20.9-4.272Zm1.36-.016c0-2.464-1.312-4.5-3.936-4.5-2.592,0-4.064,2.064-4.064,4.512,0,2.464,1.44,4.464,4.032,4.464C-20.936.192-19.544-1.92-19.544-4.288ZM-14.12-1.9a8.859,8.859,0,0,0,3.872.9c1.664,0,2.544-.736,2.544-2.32,0-.944-.384-1.584-1.872-1.952l-2.3-.576C-13.5-6.256-14.5-7.12-14.5-8.672c0-2.272,1.7-3.248,4.256-3.248a6.938,6.938,0,0,1,3.5.848l-.4,1.088a7.2,7.2,0,0,0-3.12-.736c-1.856,0-2.832.624-2.832,1.968,0,.912.608,1.408,1.728,1.68l2.192.528c1.744.416,2.864,1.264,2.864,3.168,0,2.432-1.632,3.552-4.016,3.552a8.363,8.363,0,0,1-4.192-.96Zm11.408-5.76H-.44v-.912H-2.712v-2.848l-.976.08-.336,2.768h-1.2l-.112.912h1.312v4.192c0,2.608.16,3.632,2.24,3.632C-1.512.16-1.272.128-.3.048L-.408-1.008c-.608.048-.928.08-1.072.08-1.04,0-1.232-.336-1.232-1.936ZM3.448-.832a1.263,1.263,0,0,1-1.424-1.36c0-1.2.72-1.584,3.152-1.9.016,0,.784-.112.784-.112V-2.1A3.438,3.438,0,0,1,3.448-.832ZM5.992-.944,6.184,0H7.256V-6.3c0-1.92-1.328-2.48-3.024-2.48a6.819,6.819,0,0,0-3.008.656L1.592-7.1A6.629,6.629,0,0,1,4.264-7.68c1.184,0,1.7.544,1.7,1.584v.976l-.864.1C2.888-4.7.712-4.4.712-2.144A2.317,2.317,0,0,0,3.32.192,3.507,3.507,0,0,0,5.992-.944ZM9.32,0V-6.608C9.32-7.28,9.3-7.92,9.3-8.576h1.1l.1,1.488a2.673,2.673,0,0,1,2.512-1.488h.24l.1,1.2h-.32a2.228,2.228,0,0,0-2.4,2.352V0Zm7.1-7.664H18.7v-.912H16.424v-2.848l-.976.08-.336,2.768h-1.2l-.112.912h1.312v4.192c0,2.608.16,3.632,2.24,3.632.272,0,.512-.032,1.488-.112l-.112-1.056c-.608.048-.928.08-1.072.08-1.04,0-1.232-.336-1.232-1.936ZM27.272-6.08c-.528,0-2.032-.016-2.032-.016v-4.352h2.416c1.44,0,2.48.56,2.48,1.936C30.136-7.344,29.928-6.08,27.272-6.08ZM25.24,0V-4.992c.592.048,1.424.112,1.9.112,3.456,0,4.4-1.488,4.4-3.664,0-2.256-1.7-3.136-3.92-3.136H23.848V0ZM35.32-.832A1.263,1.263,0,0,1,33.9-2.192c0-1.2.72-1.584,3.152-1.9.016,0,.784-.112.784-.112V-2.1A3.438,3.438,0,0,1,35.32-.832Zm2.544-.112L38.056,0h1.072V-6.3c0-1.92-1.328-2.48-3.024-2.48a6.819,6.819,0,0,0-3.008.656L33.464-7.1a6.629,6.629,0,0,1,2.672-.576c1.184,0,1.7.544,1.7,1.584v.976l-.864.1c-2.208.32-4.384.624-4.384,2.88A2.317,2.317,0,0,0,35.192.192,3.507,3.507,0,0,0,37.864-.944Zm4.9,4.864h1.392c4,0,4.336-2.32,4.336-4.544V-8.576H47.224v1.152a3.037,3.037,0,0,0-2.592-1.36c-2.608,0-3.776,2.1-3.776,4.528C40.856-2.288,42.008,0,44.536,0a2.93,2.93,0,0,0,2.64-1.408v.752c0,2.16-.3,3.392-2.992,3.392h-1.6Zm1.968-5.04c-1.76,0-2.528-1.744-2.528-3.216,0-1.488.7-3.328,2.544-3.328,1.776,0,2.48,1.36,2.48,2.992v.64C47.224-2.5,46.568-1.12,44.728-1.12Zm9.3,1.312c-2.448,0-3.936-1.744-3.936-4.5,0-2.56,1.536-4.416,3.776-4.48,2.128,0,3.456,1.616,3.456,4.144,0,.128-.016.448-.016.592H51.432c0,1.936,1.136,3.12,2.64,3.12a4.722,4.722,0,0,0,2.72-.864l.4.96A4.807,4.807,0,0,1,54.024.192ZM51.48-4.96h4.576c0-1.824-.912-2.752-2.192-2.752C52.568-7.712,51.624-6.64,51.48-4.96Z" transform="translate(485 780)"/>
  </g>
</svg>
