<svg xmlns="http://www.w3.org/2000/svg" width="123.898" height="28" viewBox="0 0 123.898 28">
  <g id="ic-search-2" transform="translate(-20257 -8976)">
    <g id="ic-search" transform="translate(20257 8976)">
      <g id="Group_213" data-name="Group 213" transform="translate(-778.62 -576.813)" opacity="0.7">
        <path id="Path_2765" data-name="Path 2765" d="M802.333,598.934l-5.908-5.908a8.237,8.237,0,1,0-1.655,1.63l5.921,5.921a1.162,1.162,0,1,0,1.643-1.643ZM784.087,588.05a5.81,5.81,0,1,1,5.81,5.81A5.81,5.81,0,0,1,784.087,588.05Z" transform="translate(0.442 0.436)"/>
        <rect id="Rectangle_109" data-name="Rectangle 109" width="28" height="28" transform="translate(778.62 576.813)" fill="none"/>
      </g>
    </g>
    <path id="Path_3970" data-name="Path 3970" d="M2.793-4.629a3.92,3.92,0,0,0,.576,1.982A3.819,3.819,0,0,0,6.777-1.221,6.033,6.033,0,0,0,8.77-1.533,2.214,2.214,0,0,0,10.508-3.7a1.872,1.872,0,0,0-.732-1.67,7.4,7.4,0,0,0-2.324-.85L5.508-6.66a8.8,8.8,0,0,1-2.7-.947,3,3,0,0,1-1.367-2.686,4.135,4.135,0,0,1,1.338-3.174,5.368,5.368,0,0,1,3.789-1.24,6.581,6.581,0,0,1,3.833,1.089,3.93,3.93,0,0,1,1.577,3.481H10.156A3.6,3.6,0,0,0,9.531-11.9a3.631,3.631,0,0,0-3.018-1.123,3.491,3.491,0,0,0-2.471.723,2.262,2.262,0,0,0-.752,1.68A1.64,1.64,0,0,0,4.17-9.082,12.9,12.9,0,0,0,6.777-8.3l2.012.459a6.164,6.164,0,0,1,2.246.908A3.4,3.4,0,0,1,12.4-4.014,3.645,3.645,0,0,1,10.669-.605,7.763,7.763,0,0,1,6.641.42,6.024,6.024,0,0,1,2.451-.947,4.613,4.613,0,0,1,.967-4.629Zm13.456-9.717H26.708v1.758H18.143v4.355h7.92v1.66h-7.92v4.863h8.711V0H16.249ZM37.966-5.879l-2.178-6.338L33.474-5.879Zm-3.193-8.467h2.2L42.175,0H40.046L38.591-4.3H32.918L31.365,0H29.373Zm17.04,6.572a3.766,3.766,0,0,0,2.163-.547,2.226,2.226,0,0,0,.8-1.973,2.116,2.116,0,0,0-1.113-2.09,3.638,3.638,0,0,0-1.592-.293H47.321v4.9Zm-6.436-6.572h6.641a6.623,6.623,0,0,1,2.705.479,3.388,3.388,0,0,1,2.021,3.389,3.811,3.811,0,0,1-.532,2.109,3.846,3.846,0,0,1-1.489,1.318,2.935,2.935,0,0,1,1.265.9,3.227,3.227,0,0,1,.474,1.807l.068,1.924A5.914,5.914,0,0,0,56.666-1.2a1.2,1.2,0,0,0,.625.879V0H54.909a1.792,1.792,0,0,1-.156-.479,9.185,9.185,0,0,1-.1-1.133L54.537-4a2.01,2.01,0,0,0-1.045-1.885,4.322,4.322,0,0,0-1.748-.264H47.321V0H45.377Zm21.454-.391A5.879,5.879,0,0,1,71.06-13.3a5.07,5.07,0,0,1,1.67,3.262H70.835a3.943,3.943,0,0,0-1.284-2.2,4.07,4.07,0,0,0-2.7-.811,4.33,4.33,0,0,0-3.423,1.489,6.789,6.789,0,0,0-1.3,4.565A6.631,6.631,0,0,0,63.3-2.905a4.112,4.112,0,0,0,3.511,1.567,3.709,3.709,0,0,0,3.271-1.65,6.277,6.277,0,0,0,.889-2.285h1.895a6.474,6.474,0,0,1-1.68,3.8A5.977,5.977,0,0,1,66.577.371a6.084,6.084,0,0,1-4.2-1.514q-2.236-2-2.236-6.182a7.9,7.9,0,0,1,1.68-5.205A6.135,6.135,0,0,1,66.831-14.736Zm9.647.391h1.963v5.928H85.9v-5.928h1.963V0H85.9V-6.709H78.441V0H76.479Z" transform="translate(20293.033 8996.736)"/>
  </g>
</svg>
