<svg xmlns="http://www.w3.org/2000/svg" xmlns:xlink="http://www.w3.org/1999/xlink" width="70.136" height="98.505" viewBox="0 0 70.136 98.505">
  <defs>
    <clipPath id="clip-path">
      <rect id="SVGID" width="49" height="4" transform="translate(375.711 497.49)" fill="none"/>
    </clipPath>
    <clipPath id="clip-path-2">
      <rect id="SVGID-2" data-name="SVGID" width="48" height="15" transform="translate(377.211 486.99)" fill="none"/>
    </clipPath>
  </defs>
  <g id="ic-take-order" transform="translate(-365.781 -486.989)">
    <g id="Rectangle_133" data-name="Rectangle 133">
      <rect id="Rectangle_135" data-name="Rectangle 135" width="66" height="88" rx="6" transform="translate(366.781 492.015)" fill="#ffee85" stroke="#000" stroke-width="2"/>
    </g>
    <g id="Group_245" data-name="Group 245">
      <g id="Group_244" data-name="Group 244" clip-path="url(#clip-path)">
        <g id="Repeat_Grid_8" data-name="Repeat Grid 8">
          <g id="Group_238" data-name="Group 238">
            <g id="Ellipse_87" data-name="Ellipse 87">
              <circle id="Ellipse_88" data-name="Ellipse 88" cx="2" cy="2" r="2" transform="translate(375.711 497.49)"/>
            </g>
          </g>
          <g id="Group_239" data-name="Group 239">
            <g id="Ellipse_87-2" data-name="Ellipse 87-2">
              <circle id="Ellipse_89" data-name="Ellipse 89" cx="2" cy="2" r="2" transform="translate(384.711 497.49)"/>
            </g>
          </g>
          <g id="Group_240" data-name="Group 240">
            <g id="Ellipse_87-3" data-name="Ellipse 87-3">
              <circle id="Ellipse_90" data-name="Ellipse 90" cx="2" cy="2" r="2" transform="translate(393.711 497.49)"/>
            </g>
          </g>
          <g id="Group_241" data-name="Group 241">
            <g id="Ellipse_87-4" data-name="Ellipse 87-4">
              <circle id="Ellipse_91" data-name="Ellipse 91" cx="2" cy="2" r="2" transform="translate(402.711 497.49)"/>
            </g>
          </g>
          <g id="Group_242" data-name="Group 242">
            <g id="Ellipse_87-5" data-name="Ellipse 87-5">
              <circle id="Ellipse_92" data-name="Ellipse 92" cx="2" cy="2" r="2" transform="translate(411.711 497.49)"/>
            </g>
          </g>
          <g id="Group_243" data-name="Group 243">
            <g id="Ellipse_87-6" data-name="Ellipse 87-6">
              <circle id="Ellipse_93" data-name="Ellipse 93" cx="2" cy="2" r="2" transform="translate(420.711 497.49)"/>
            </g>
          </g>
        </g>
      </g>
    </g>
    <g id="Group_259" data-name="Group 259">
      <g id="Group_258" data-name="Group 258" clip-path="url(#clip-path-2)">
        <g id="Repeat_Grid_7" data-name="Repeat Grid 7">
          <g id="Group_246" data-name="Group 246">
            <g id="Line_42" data-name="Line 42">
              <path id="Path_2822" data-name="Path 2822" d="M378.211,500.99a1,1,0,0,1-1-1v-12a1,1,0,0,1,2,0v12A1,1,0,0,1,378.211,500.99Z" fill="#ff8aff"/>
            </g>
          </g>
          <g id="Group_247" data-name="Group 247">
            <g id="Line_42-2" data-name="Line 42-2">
              <path id="Path_2823" data-name="Path 2823" d="M387.211,500.99a1,1,0,0,1-1-1v-12a1,1,0,0,1,2,0v12A1,1,0,0,1,387.211,500.99Z" fill="#ff8aff"/>
            </g>
          </g>
          <g id="Group_248" data-name="Group 248">
            <g id="Line_42-3" data-name="Line 42-3">
              <path id="Path_2824" data-name="Path 2824" d="M396.211,500.99a1,1,0,0,1-1-1v-12a1,1,0,0,1,2,0v12A1,1,0,0,1,396.211,500.99Z" fill="#ff8aff"/>
            </g>
          </g>
          <g id="Group_249" data-name="Group 249">
            <g id="Line_42-4" data-name="Line 42-4">
              <path id="Path_2825" data-name="Path 2825" d="M405.211,500.99a1,1,0,0,1-1-1v-12a1,1,0,0,1,2,0v12A1,1,0,0,1,405.211,500.99Z" fill="#ff8aff"/>
            </g>
          </g>
          <g id="Group_250" data-name="Group 250">
            <g id="Line_42-5" data-name="Line 42-5">
              <path id="Path_2826" data-name="Path 2826" d="M414.211,500.99a1,1,0,0,1-1-1v-12a1,1,0,0,1,2,0v12A1,1,0,0,1,414.211,500.99Z" fill="#ff8aff"/>
            </g>
          </g>
          <g id="Group_251" data-name="Group 251">
            <g id="Line_42-6" data-name="Line 42-6">
              <path id="Path_2827" data-name="Path 2827" d="M423.211,500.99a1,1,0,0,1-1-1v-12a1,1,0,0,1,2,0v12A1,1,0,0,1,423.211,500.99Z" fill="#ff8aff"/>
            </g>
          </g>
        </g>
        <g id="Repeat_Grid_7-2" data-name="Repeat Grid 7">
          <g id="Group_252" data-name="Group 252">
            <g id="Line_42-2-2" data-name="Line 42">
              <path id="Path_2828" data-name="Path 2828" d="M378.211,495.49a1,1,0,0,1-1-1v-6.5a1,1,0,0,1,2,0v6.5A1,1,0,0,1,378.211,495.49Z" fill="#ffb1ff"/>
            </g>
          </g>
          <g id="Group_253" data-name="Group 253">
            <g id="Line_42-2-3" data-name="Line 42-2">
              <path id="Path_2829" data-name="Path 2829" d="M387.211,495.49a1,1,0,0,1-1-1v-6.5a1,1,0,0,1,2,0v6.5A1,1,0,0,1,387.211,495.49Z" fill="#ffb1ff"/>
            </g>
          </g>
          <g id="Group_254" data-name="Group 254">
            <g id="Line_42-3-2" data-name="Line 42-3">
              <path id="Path_2830" data-name="Path 2830" d="M396.211,495.49a1,1,0,0,1-1-1v-6.5a1,1,0,0,1,2,0v6.5A1,1,0,0,1,396.211,495.49Z" fill="#ffb1ff"/>
            </g>
          </g>
          <g id="Group_255" data-name="Group 255">
            <g id="Line_42-4-2" data-name="Line 42-4">
              <path id="Path_2831" data-name="Path 2831" d="M405.211,495.49a1,1,0,0,1-1-1v-6.5a1,1,0,0,1,2,0v6.5A1,1,0,0,1,405.211,495.49Z" fill="#ffb1ff"/>
            </g>
          </g>
          <g id="Group_256" data-name="Group 256">
            <g id="Line_42-5-2" data-name="Line 42-5">
              <path id="Path_2832" data-name="Path 2832" d="M414.211,495.49a1,1,0,0,1-1-1v-6.5a1,1,0,0,1,2,0v6.5A1,1,0,0,1,414.211,495.49Z" fill="#ffb1ff"/>
            </g>
          </g>
          <g id="Group_257" data-name="Group 257">
            <g id="Line_42-6-2" data-name="Line 42-6">
              <path id="Path_2833" data-name="Path 2833" d="M423.211,495.49a1,1,0,0,1-1-1v-6.5a1,1,0,0,1,2,0v6.5A1,1,0,0,1,423.211,495.49Z" fill="#ffb1ff"/>
            </g>
          </g>
        </g>
      </g>
    </g>
    <g id="Group_261" data-name="Group 261">
      <g id="Group_260" data-name="Group 260">
        <path id="Path_2834" data-name="Path 2834" d="M388.034,509.71a3.033,3.033,0,0,0-3.042.875,5.763,5.763,0,0,0-1.335,3.026,5.881,5.881,0,0,0,.1,2.981,3.161,3.161,0,0,0,2.374,2.085,5.011,5.011,0,0,0,5.217-2.561,4.938,4.938,0,0,0-.74-5.65,4.745,4.745,0,0,0-3.016-1.579,2.563,2.563,0,0,0-2.908,1.917.774.774,0,0,0,.524.923.756.756,0,0,0,.922-.524c.118-.751.885-.928,1.548-.8a3.322,3.322,0,0,1,1.751.991,3.448,3.448,0,0,1,.778,3.65,3.632,3.632,0,0,1-3.064,2.216,1.9,1.9,0,0,1-1.833-.85,3.414,3.414,0,0,1-.271-1.964c.113-1.255.811-3.864,2.592-3.294.921.295,1.316-1.153.4-1.446Z"/>
      </g>
    </g>
    <g id="Group_263" data-name="Group 263">
      <g id="Group_262" data-name="Group 262">
        <path id="Path_2835" data-name="Path 2835" d="M392,514.353a7.35,7.35,0,0,1,.472.723q.107.188.2.381c.032.065.062.13.092.2.006.014.066.154.043.1a6.684,6.684,0,0,1,.262.776q.057.209.1.42c.014.07.028.141.041.211,0,.019.037.236.025.142a.751.751,0,0,0,1.473.2,32.486,32.486,0,0,1,1.15-3.083c.223-.51.452-1.02.706-1.515.015-.029.078-.111.075-.141.005.069-.15.118-.217.131a.318.318,0,0,1-.147-.007c-.021-.005-.116-.081-.055-.027s-.02-.045-.031-.051c.007,0,.036.133.02.044a1.967,1.967,0,0,1,0,.42.75.75,0,0,0,1.5,0,1.626,1.626,0,0,0-1.066-1.837,1.171,1.171,0,0,0-1.255.505,6.474,6.474,0,0,0-.472.937,35.753,35.753,0,0,0-1.656,4.225l1.474.2a7.955,7.955,0,0,0-1.443-3.7.774.774,0,0,0-1.026-.269.756.756,0,0,0-.269,1.026Z"/>
      </g>
    </g>
    <g id="Group_265" data-name="Group 265">
      <g id="Group_264" data-name="Group 264">
        <path id="Path_2836" data-name="Path 2836" d="M400.9,511.553c-1.79.269-3.851,1.145-4.216,3.133a2.65,2.65,0,0,0,2.406,3.3c2.079,0,3.414-2.325,4.01-4.031a9.108,9.108,0,0,0-.185-6.394.754.754,0,0,0-1.473.2c-.015,1.762-.043,3.525-.044,5.286a5.822,5.822,0,0,0,.785,3.487c1.67,2.308,4.846.874,6.156-1.031.941-1.37,2.05-6-1.01-5.525-2.061.319-4.005,3.457-2.823,5.357a2.655,2.655,0,0,0,3.213.878c1.568-.559,2.367-2.074,3.577-3.11l-1.253-.331c.251,1.137.679,6.345,2.994,4.479a12.992,12.992,0,0,0,2.148-3.062c.217-.33,2.375-3.82,2.841-2.454.311.908,1.76.518,1.447-.4a1.974,1.974,0,0,0-2-1.364,3.182,3.182,0,0,0-2.354,1.606c-.842,1.185-1.607,2.432-2.406,3.646.018-.027-.465.758-.428.75l-.264-1.2-.53-2.4a.758.758,0,0,0-1.253-.331c-.736.629-1.284,1.426-1.986,2.087-.61.573-2.428,1.467-2.59-.021a2.967,2.967,0,0,1,1.385-2.424c1.383-.575.64,1.935.326,2.526-.935,1.758-3.867,3.161-4.385.362a16.844,16.844,0,0,1-.075-3.152l.031-3.66-1.473.2a7.556,7.556,0,0,1-.923,7.6c-.433.516-1.3,1.289-2,.758a1.485,1.485,0,0,1-.364-1.48c.338-1.3,1.983-1.674,3.119-1.845.952-.143.547-1.589-.4-1.446Z"/>
      </g>
    </g>
    <g id="Group_267" data-name="Group 267">
      <g id="Group_266" data-name="Group 266">
        <path id="Path_2837" data-name="Path 2837" d="M376.605,529.464c1.518-1.143,2.734,2.255,3.469,3.068a3.185,3.185,0,0,0,3.813.7c1.848-.8,3.368-2.049,5.324-2.674.678-.217,2.434-.944,2.79-.095.254.6.07,1.316.384,1.939a3.053,3.053,0,0,0,3.139,1.464c1.814-.22,3.269-1.639,4.8-2.512a22.9,22.9,0,0,1,2.954-1.418,10.438,10.438,0,0,1,1.177-.42c.754-.194,1.158.118,1.794.429,1.015.495,2.511.343,2.735-.977.161-.944-1.285-1.35-1.446-.4-.052.3-1.879-.587-2.162-.626a4.376,4.376,0,0,0-2.091.393,24.717,24.717,0,0,0-4.832,2.4c-1.136.729-4.083,3.025-4.844.657-.378-1.175-.022-2.574-1.663-2.847-1.494-.248-3.454.616-4.788,1.195a17.836,17.836,0,0,0-2.3,1.211c-.8.492-1.731,1.274-2.716,1.116-1.517-.242-1.966-2.59-3.063-3.516a2.559,2.559,0,0,0-3.233-.38c-.762.573-.015,1.876.757,1.295Z"/>
      </g>
    </g>
    <g id="Group_269" data-name="Group 269">
      <g id="Group_268" data-name="Group 268">
        <path id="Path_2838" data-name="Path 2838" d="M377.088,544.155a2.378,2.378,0,0,1,3.654-1.522c1.111.858,1.483,2.441,2.439,3.456,2.491,2.648,6.869.346,9.665-.54a18.289,18.289,0,0,1,5.3-1.321,2.768,2.768,0,0,1,2.073.713c.476.481.673,1.147,1.352,1.406a2.384,2.384,0,0,0,2.009-.465c.876-.47,1.741-.96,2.612-1.44l6.1-3.359-1.1-.847-.328,1.064c-.285.924,1.162,1.319,1.446.4l.328-1.063a.758.758,0,0,0-1.1-.847l-6.53,3.6c-.758.418-2.467,1.815-3.214,1.165-.517-.45-.754-1-1.4-1.345a6.461,6.461,0,0,0-4.5-.16c-1.988.486-3.937,1.214-5.887,1.832s-4.532,1.8-6.041-.2c-.917-1.218-1.382-2.8-2.8-3.573a3.92,3.92,0,0,0-5.567,3.047c-.118.956,1.383.947,1.5,0Z"/>
      </g>
    </g>
    <g id="Group_271" data-name="Group 271">
      <g id="Group_270" data-name="Group 270">
        <path id="Path_2839" data-name="Path 2839" d="M377.2,554.135c-.734,1.288-1.424,3.1-.085,4.284,1.4,1.23,3.544-.258,4.907-.85l3.274-1.421c.692-.3,3.068-1.737,3.705-1.391.68.37.063,1.651.034,2.337a2.2,2.2,0,0,0,.776,1.908c1.358,1.05,3.345.018,4.7-.473a41.56,41.56,0,0,1,6.332-2.23c.263-.047.918-.17,1.187.012.429.288.249.93.411,1.347a1.548,1.548,0,0,0,1.276.963,5.008,5.008,0,0,0,2.424-.572l3.7-1.423c1.232-.474,2.465-.944,3.7-1.422.662-.257,1.6-.559,1.653-1.416a1.01,1.01,0,0,0-2.015-.147c-.093.96,1.408.953,1.5,0l.013-.141-.371.648a1.326,1.326,0,0,0-1.641-.213l-.924.356-1.386.533-3.234,1.245c-.616.237-1.231.478-1.849.711-.164.062-.958.434-1.168.362-.382-.13-.418-1.315-.742-1.691-.8-.934-2.3-.793-3.363-.492-2.072.585-4.1,1.472-6.12,2.2-.631.229-2.094,1.021-2.775.779-1.075-.381-.293-1.911-.3-2.676-.006-1.222-.787-2.347-2.119-2.138a11.742,11.742,0,0,0-2.632,1.062l-3.056,1.326-2.838,1.231c-.551.239-1.826,1.118-2.288.174-.307-.629.314-1.51.61-2.029a.75.75,0,0,0-1.295-.757Z"/>
      </g>
    </g>
    <g id="Group_273" data-name="Group 273">
      <g id="Group_272" data-name="Group 272">
        <path id="Path_2840" data-name="Path 2840" d="M412.892,572.3a18.448,18.448,0,0,0-.333,4.535h.75a22.628,22.628,0,0,1-.01-4.712,8.241,8.241,0,0,1,2.032-4.4c.247-.284.5-.574.769-.836a1.28,1.28,0,0,1,.617-.426c.4-.073.68.15.6.552a5.93,5.93,0,0,1-1.3,2.011,20.709,20.709,0,0,1-3.379,3.382.378.378,0,0,0,.075.589,14.092,14.092,0,0,0,1.268.955,2.311,2.311,0,0,0,1.234.179,3.159,3.159,0,0,0,2.2-1.361,6.34,6.34,0,0,0,.917-2.91c.136-1.151.12-2.464,1.017-3.323l-.626-.166c.6,1.652-1.114,3.1-1.443,4.648a.377.377,0,0,0,.685.289,10.985,10.985,0,0,1,3.9-3.655l-.564-.324a8.609,8.609,0,0,1-.979,3.609.378.378,0,0,0,.513.513,3.168,3.168,0,0,0,1.708-2.347.38.38,0,0,0-.551-.423,32.535,32.535,0,0,0-9.3,7.878.375.375,0,0,0,.53.531,39.033,39.033,0,0,1,13.031-6.784.375.375,0,0,0-.2-.723,40,40,0,0,0-13.361,6.976l.53.531a32,32,0,0,1,9.143-7.762l-.55-.423a2.479,2.479,0,0,1-1.364,1.9l.513.513a9.513,9.513,0,0,0,1.082-3.987.378.378,0,0,0-.564-.324,11.775,11.775,0,0,0-4.172,3.925l.685.289c.369-1.731,2.132-3.147,1.443-5.047a.38.38,0,0,0-.627-.166c-1.357,1.3-1.011,3.316-1.44,4.983a3.036,3.036,0,0,1-1.8,2.3,1.705,1.705,0,0,1-1.368-.057c-.416-.226-.708-.633-1.115-.879l.076.589a20.99,20.99,0,0,0,4.248-4.562c.4-.588.95-1.413.566-2.145a1.3,1.3,0,0,0-1.827-.354,7.838,7.838,0,0,0-1.99,2.1,8.087,8.087,0,0,0-1.331,2.687,18.127,18.127,0,0,0-.274,6.169c.035.477.775.485.75,0a17.667,17.667,0,0,1,.306-4.336c.093-.471-.63-.673-.723-.2Z"/>
      </g>
    </g>
    <g id="Group_278" data-name="Group 278">
      <g id="Rectangle_134" data-name="Rectangle 134">
        <g id="Group_274" data-name="Group 274">
          <path id="Path_2841" data-name="Path 2841" d="M412.113,546.974l4.469-2.242h0l18.538,36.959a2.322,2.322,0,0,1-1.3,2.987h0a2.322,2.322,0,0,1-3.171-.746l-18.537-36.958Z" fill="#bdccfb"/>
        </g>
      </g>
      <g id="Line_43" data-name="Line 43">
        <g id="Group_275" data-name="Group 275">
          <path id="Path_2842" data-name="Path 2842" d="M413,543.171a.5.5,0,0,1-.671-.223l-.9-1.788a.5.5,0,0,1,.894-.448l.9,1.788A.5.5,0,0,1,413,543.171Z"/>
        </g>
      </g>
      <g id="Group_277" data-name="Group 277">
        <g id="Group_276" data-name="Group 276">
          <path id="Path_2843" data-name="Path 2843" d="M416.584,544.726l-4.469,2.242-.006-4.472.894-.448Z" fill="#7193ff" stroke="#000" stroke-linecap="round" stroke-linejoin="round" stroke-width="1"/>
        </g>
      </g>
    </g>
    <g id="Rectangle_134-2" data-name="Rectangle 134">
      <g id="Group_279" data-name="Group 279">
        <path id="Path_2844" data-name="Path 2844" d="M412.113,546.974l4.469-2.242h0l18.538,36.959a2.322,2.322,0,0,1-1.3,2.987h0a2.322,2.322,0,0,1-3.171-.746l-18.537-36.958Z" fill="#4672ff" stroke="#000" stroke-linecap="round" stroke-linejoin="round" stroke-width="1"/>
      </g>
    </g>
  </g>
</svg>
