<svg xmlns="http://www.w3.org/2000/svg" width="58.297" height="20.601" viewBox="0 0 58.297 20.601">
  <g id="ic-upi" transform="translate(-18585 -13657.4)">
    <g id="XMLID_1_" transform="translate(18493.65 13572.101)">
      <g id="XMLID_13_" transform="translate(91.349 102.88)">
        <path id="XMLID_65_" d="M91.816,340.7h.436l-.409,1.7a.72.72,0,0,0,.035.568.515.515,0,0,0,.464.187.825.825,0,0,0,.554-.187,1.066,1.066,0,0,0,.3-.568l.409-1.7h.443l-.416,1.739a1.478,1.478,0,0,1-.485.845,1.394,1.394,0,0,1-.907.284.9.9,0,0,1-.769-.277,1.008,1.008,0,0,1-.076-.845Z" transform="translate(-91.349 -340.589)" fill="#3d3d3c"/>
        <path id="XMLID_63_" d="M129.5,342l.693-2.9,1.316,1.7c.035.048.069.1.1.152s.069.118.111.187l.464-1.933h.409l-.693,2.9-1.344-1.739-.1-.145a.746.746,0,0,1-.083-.166L129.909,342H129.5Z" transform="translate(-126.857 -339.1)" fill="#3d3d3c"/>
        <path id="XMLID_61_" d="M173.7,343.491l.665-2.791h.443l-.665,2.791Z" transform="translate(-167.996 -340.589)" fill="#3d3d3c"/>
        <path id="XMLID_59_" d="M189.2,343.491l.665-2.791h1.517l-.09.388h-1.074l-.166.693h1.074l-.1.395h-1.074l-.312,1.309H189.2Z" transform="translate(-182.422 -340.589)" fill="#3d3d3c"/>
        <path id="XMLID_57_" d="M218.2,343.491l.665-2.791h.443l-.665,2.791Z" transform="translate(-209.414 -340.589)" fill="#3d3d3c"/>
        <path id="XMLID_55_" d="M233.7,343.491l.665-2.791h1.517l-.09.388h-1.074l-.166.7h1.074l-.1.395h-1.074l-.215.9h1.074l-.1.409Z" transform="translate(-223.84 -340.589)" fill="#3d3d3c"/>
        <path id="XMLID_52_" d="M263,343.491l.665-2.791h.6a3.432,3.432,0,0,1,.8.062.825.825,0,0,1,.367.2.881.881,0,0,1,.242.471,1.667,1.667,0,0,1-.035.658,2.165,2.165,0,0,1-.277.658,1.607,1.607,0,0,1-.471.471,1.355,1.355,0,0,1-.457.2,3.089,3.089,0,0,1-.72.062H263Zm.54-.416h.374a2.065,2.065,0,0,0,.471-.042.9.9,0,0,0,.3-.139,1.128,1.128,0,0,0,.312-.339,1.521,1.521,0,0,0,.187-.471,1.235,1.235,0,0,0,.035-.464.638.638,0,0,0-.152-.339.468.468,0,0,0-.242-.139,2.065,2.065,0,0,0-.492-.042h-.319Z" transform="translate(-251.11 -340.589)" fill="#3d3d3c"/>
        <path id="XMLID_49_" d="M320.913,342.238l-.3,1.254H320.2l.665-2.791h.672a2.02,2.02,0,0,1,.429.035.425.425,0,0,1,.215.111.462.462,0,0,1,.139.263.916.916,0,0,1-.014.36,1.159,1.159,0,0,1-.159.367.951.951,0,0,1-.263.263.926.926,0,0,1-.27.111,2.279,2.279,0,0,1-.443.035h-.256Zm.118-.374h.111a1.125,1.125,0,0,0,.513-.083.432.432,0,0,0,.194-.291.3.3,0,0,0-.055-.312.778.778,0,0,0-.457-.09h-.111Z" transform="translate(-304.348 -340.589)" fill="#3d3d3c"/>
        <path id="XMLID_46_" d="M343.168,342l-.139-.72h-1.081l-.485.72H341l2.009-2.9.623,2.9Zm-.956-1.1h.755l-.125-.637a.853.853,0,0,1-.014-.139,1.391,1.391,0,0,1-.007-.173,4.559,4.559,0,0,1-.173.319Z" transform="translate(-323.708 -339.1)" fill="#3d3d3c"/>
        <path id="XMLID_44_" d="M384.849,343.585l.3-1.274-.554-1.51h.464l.346.949c.007.028.014.055.028.1s.021.083.035.125l.083-.125c.028-.042.055-.076.083-.111l.81-.935h.443l-1.3,1.5-.3,1.274h-.443Z" transform="translate(-364.288 -340.682)" fill="#3d3d3c"/>
        <path id="XMLID_42_" d="M411.405,340.624c0-.021.007-.083.021-.18s.014-.145.021-.2c-.028.062-.055.125-.09.194a1.522,1.522,0,0,1-.125.194l-1.067,1.489-.346-1.517c-.014-.062-.028-.125-.035-.18a1.458,1.458,0,0,1-.014-.173c-.014.055-.035.118-.055.187a1.551,1.551,0,0,1-.083.2l-.623,1.371H408.6l1.337-2.909.381,1.759a1.232,1.232,0,0,1,.021.139c.007.062.021.145.035.242.048-.083.111-.18.194-.3a.624.624,0,0,0,.048-.076l1.205-1.759-.042,2.909h-.409Z" transform="translate(-386.625 -339.1)" fill="#3d3d3c"/>
        <path id="XMLID_40_" d="M459.7,343.491l.665-2.791h1.517l-.09.388h-1.074l-.166.7h1.074l-.1.395h-1.074l-.215.9h1.074l-.1.409Z" transform="translate(-434.186 -340.589)" fill="#3d3d3c"/>
        <path id="XMLID_38_" d="M488.9,342l.693-2.9,1.316,1.7c.035.048.069.1.1.152s.069.118.111.187l.464-1.933H492l-.693,2.9-1.344-1.739-.1-.145a.746.746,0,0,1-.083-.166L489.309,342H488.9Z" transform="translate(-461.363 -339.1)" fill="#3d3d3c"/>
        <path id="XMLID_36_" d="M538.364,340.988l-.575,2.4h-.443l.575-2.4h-.72l.09-.388h1.884l-.09.388Z" transform="translate(-506.318 -340.496)" fill="#3d3d3c"/>
        <path id="XMLID_34_" d="M560.693,342.093l.395-.166a.373.373,0,0,0,.118.284.486.486,0,0,0,.319.1.526.526,0,0,0,.339-.111.5.5,0,0,0,.187-.3q.062-.249-.291-.436a.441.441,0,0,0-.076-.042,1.334,1.334,0,0,1-.5-.409.6.6,0,0,1-.042-.443.965.965,0,0,1,.36-.554,1.045,1.045,0,0,1,.644-.215.87.87,0,0,1,.478.118.459.459,0,0,1,.2.339l-.388.18a.417.417,0,0,0-.132-.194.337.337,0,0,0-.208-.062.5.5,0,0,0-.3.1.44.44,0,0,0-.166.256c-.042.166.076.326.346.471a.4.4,0,0,0,.048.028,1.126,1.126,0,0,1,.464.374.623.623,0,0,1,.042.457,1.1,1.1,0,0,1-.395.63,1.147,1.147,0,0,1-.713.236.781.781,0,0,1-.533-.166A.543.543,0,0,1,560.693,342.093Z" transform="translate(-528.183 -339.752)" fill="#3d3d3c"/>
        <path id="XMLID_32_" d="M607.8,343.491l.665-2.791h.443l-.665,2.791Z" transform="translate(-572.028 -340.589)" fill="#3d3d3c"/>
        <path id="XMLID_30_" d="M623.4,342l.693-2.9,1.316,1.7c.035.048.069.1.1.152s.069.118.111.187l.464-1.933h.409l-.693,2.9-1.344-1.739-.1-.145a.744.744,0,0,1-.083-.166L623.809,342H623.4Z" transform="translate(-586.547 -339.1)" fill="#3d3d3c"/>
        <path id="XMLID_28_" d="M672.864,340.988l-.575,2.4h-.443l.575-2.4h-.72l.09-.388h1.884l-.09.388Z" transform="translate(-631.501 -340.496)" fill="#3d3d3c"/>
        <path id="XMLID_26_" d="M695.4,343.491l.665-2.791h1.524l-.09.388h-1.074l-.166.7h1.074l-.1.395h-1.074l-.215.9h1.074l-.1.409Z" transform="translate(-653.56 -340.589)" fill="#3d3d3c"/>
        <path id="XMLID_23_" d="M725.313,342.145l-.3,1.247H724.6l.665-2.791h.616a1.935,1.935,0,0,1,.409.035.45.45,0,0,1,.229.118.477.477,0,0,1,.132.263.884.884,0,0,1-.014.353,1.02,1.02,0,0,1-.284.526.941.941,0,0,1-.519.229l.63,1.268h-.5l-.6-1.247Zm.111-.353h.083a.992.992,0,0,0,.485-.083.449.449,0,0,0,.187-.3c.035-.152.021-.263-.048-.326a.692.692,0,0,0-.436-.1h-.083Z" transform="translate(-680.737 -340.496)" fill="#3d3d3c"/>
        <path id="XMLID_21_" d="M755.4,343.491l.665-2.791h1.517l-.09.388h-1.074l-.166.693h1.074l-.1.395h-1.074l-.312,1.309H755.4Z" transform="translate(-709.404 -340.589)" fill="#3d3d3c"/>
        <path id="XMLID_18_" d="M779.068,342l-.139-.72h-1.081l-.485.72H776.9l2.009-2.9.623,2.9Zm-.963-1.1h.755l-.125-.637a.849.849,0,0,1-.014-.139,1.385,1.385,0,0,1-.007-.173,4.559,4.559,0,0,1-.173.319Z" transform="translate(-729.415 -339.1)" fill="#3d3d3c"/>
        <path id="XMLID_16_" d="M822.409,340.448a.88.88,0,0,0-.339-.242,1.023,1.023,0,0,0-.423-.083,1.216,1.216,0,0,0-.8.291,1.381,1.381,0,0,0-.464.762.905.905,0,0,0,.1.748.7.7,0,0,0,.616.291,1.3,1.3,0,0,0,.478-.09,1.975,1.975,0,0,0,.485-.263l-.125.513a1.53,1.53,0,0,1-.436.194,1.757,1.757,0,0,1-.471.062,1.387,1.387,0,0,1-.554-.1.967.967,0,0,1-.395-.312.989.989,0,0,1-.194-.471,1.406,1.406,0,0,1,.035-.582,1.917,1.917,0,0,1,.242-.575,1.826,1.826,0,0,1,.423-.471,1.77,1.77,0,0,1,.54-.312,1.729,1.729,0,0,1,.589-.1,1.322,1.322,0,0,1,.443.069,1.162,1.162,0,0,1,.367.215Z" transform="translate(-769.41 -339.658)" fill="#3d3d3c"/>
        <path id="XMLID_14_" d="M857.1,343.491l.665-2.791h1.517l-.09.388h-1.074l-.166.7h1.074l-.1.395h-1.074l-.215.9h1.074l-.1.409Z" transform="translate(-804.06 -340.589)" fill="#3d3d3c"/>
      </g>
      <g id="XMLID_2_" transform="translate(92.884 85.3)">
        <g id="XMLID_6_" transform="translate(0 0)">
          <path id="XMLID_11_" d="M699.841,100.559H696.8L701.025,85.3h3.041Z" transform="translate(-656.399 -85.3)" fill="#70706e"/>
          <g id="XMLID_9_" transform="translate(19.947 0.042)">
            <path id="XMLID_10_" d="M423.416,86.336a1.118,1.118,0,0,0-.977-.436H405.732l-.824,2.992h15.2l-.887,3.193H407.062v-.007h-3.041l-2.521,9.108h3.041l1.69-6.109H419.9a1.926,1.926,0,0,0,1.205-.436,2.029,2.029,0,0,0,.741-1.081l1.69-6.109A1.239,1.239,0,0,0,423.416,86.336Z" transform="translate(-401.5 -85.9)" fill="#70706e"/>
          </g>
          <path id="XMLID_7_" d="M131.693,100.162a1.4,1.4,0,0,1-1.344,1.025H114.674a1.1,1.1,0,0,1-.956-.436,1.2,1.2,0,0,1-.132-1.081L117.41,85.9h3.041l-3.415,12.3H129.2l3.415-12.3h3.041Z" transform="translate(-113.518 -85.858)" fill="#70706e"/>
        </g>
        <g id="XMLID_3_" transform="translate(45.97 0.028)">
          <path id="XMLID_5_" d="M820.539,85.7l3.844,7.647-8.083,7.647Z" transform="translate(-813.592 -85.7)" fill="#098041"/>
          <path id="XMLID_4_" d="M781.446,85.7l3.844,7.647-8.09,7.647Z" transform="translate(-777.2 -85.7)" fill="#e97626"/>
        </g>
      </g>
    </g>
  </g>
</svg>
