<svg xmlns="http://www.w3.org/2000/svg" xmlns:xlink="http://www.w3.org/1999/xlink" width="134.803" height="100.709" viewBox="0 0 134.803 100.709">
  <defs>
    <clipPath id="clip-path">
      <rect width="85" height="4" fill="none"/>
    </clipPath>
  </defs>
  <g id="ic-very-fast" transform="translate(-18573 -16714.191)">
    <path id="Path_3069" data-name="Path 3069" d="M-34.68-1.9-39.1-14.6h-1.86L-35.62,0h1.86l5.36-14.6h-1.82C-31.78-10.26-34.68-1.9-34.68-1.9ZM-22.56.24c-3.06,0-4.92-2.18-4.92-5.62,0-3.2,1.92-5.52,4.72-5.6,2.66,0,4.32,2.02,4.32,5.18,0,.16-.02.56-.02.74H-25.8c0,2.42,1.42,3.9,3.3,3.9a5.9,5.9,0,0,0,3.4-1.08l.5,1.2A6.009,6.009,0,0,1-22.56.24ZM-25.74-6.2h5.72c0-2.28-1.14-3.44-2.74-3.44C-24.38-9.64-25.56-8.3-25.74-6.2ZM-16.18,0V-8.26c0-.84-.02-1.64-.02-2.46h1.38l.12,1.86a3.341,3.341,0,0,1,3.14-1.86h.3l.12,1.5h-.4a2.785,2.785,0,0,0-3,2.94V0Zm7.22-10.72,3.38,8.7c.84-2.56,2.82-8.7,2.82-8.7h1.74L-4.92.46c-.9,2.6-1.9,4.44-4.94,4.44h-.5l-.2-1.48h.28c2.3,0,2.64-.34,3.76-3.64l-4.16-10.5ZM13.12-8.18H7.1V-13.1h6.22l.14-1.5H5.38V0H7.1V-6.78h6.02Zm5.36,7.14a1.579,1.579,0,0,1-1.78-1.7c0-1.5.9-1.98,3.94-2.38.02,0,.98-.14.98-.14v2.64A4.3,4.3,0,0,1,18.48-1.04Zm3.18-.14L21.9,0h1.34V-7.88c0-2.4-1.66-3.1-3.78-3.1a8.524,8.524,0,0,0-3.76.82l.46,1.28A8.286,8.286,0,0,1,19.5-9.6c1.48,0,2.12.68,2.12,1.98V-6.4l-1.08.12c-2.76.4-5.48.78-5.48,3.6,0,2,1.5,2.92,3.26,2.92A4.384,4.384,0,0,0,21.66-1.18Zm11.38-1.7C32.98-.86,31.54.24,29.5.24a6.8,6.8,0,0,1-3.72-1l.42-1.26a5.9,5.9,0,0,0,3.04.9h.16a1.852,1.852,0,0,0,2.1-1.72v-.1c0-.68-.42-1.32-1.62-1.66L28.46-5c-2.14-.6-2.76-1.66-2.78-2.96,0-1.5,1.18-3,3.58-3.02a6.953,6.953,0,0,1,3.24.7L32.12-9.1a7.2,7.2,0,0,0-2.74-.58c-1.18,0-2.06.62-2.06,1.72,0,.66.38,1.18,1.54,1.48l1.48.4c1.74.46,2.7,1.38,2.7,3.16Zm4.58-6.7h2.84v-1.14H37.62v-3.56l-1.22.1-.42,3.46h-1.5l-.14,1.14h1.64v5.24c0,3.26.2,4.54,2.8,4.54.34,0,.64-.04,1.86-.14L40.5-1.26c-.76.06-1.16.1-1.34.1-1.3,0-1.54-.42-1.54-2.42Z" transform="translate(18639.961 16810)"/>
    <g id="ic-very-fast-2" data-name="ic-very-fast" transform="translate(18465 16275.615)">
      <g id="Group_408" data-name="Group 408" transform="translate(108 438.576)">
        <path id="Union_6" data-name="Union 6" d="M53.095,57.337l-19.557-26.5H7.1a7.1,7.1,0,1,1,0-14.19H34.973L53.765,0h9.588L57.358,16.647h48.057a7.108,7.108,0,0,1,1.805.232l5.025-7.624h4.549L113.675,24.1l3.118,16.623h-4.549l-5.857-9.95a7.161,7.161,0,0,1-.973.066H55.695l6.242,26.5Z" transform="translate(0 0)" fill="#dc0000"/>
        <g id="Repeat_Grid_10" data-name="Repeat Grid 10" transform="translate(15.901 23.809)" clip-path="url(#clip-path)">
          <g transform="translate(-126 -458)">
            <rect id="Rectangle_235" data-name="Rectangle 235" width="7" height="4" rx="2" transform="translate(126 458)" fill="maroon"/>
          </g>
          <g transform="translate(-115 -458)">
            <rect id="Rectangle_235-2" data-name="Rectangle 235" width="7" height="4" rx="2" transform="translate(126 458)" fill="maroon"/>
          </g>
          <g transform="translate(-104 -458)">
            <rect id="Rectangle_235-3" data-name="Rectangle 235" width="7" height="4" rx="2" transform="translate(126 458)" fill="maroon"/>
          </g>
          <g transform="translate(-93 -458)">
            <rect id="Rectangle_235-4" data-name="Rectangle 235" width="7" height="4" rx="2" transform="translate(126 458)" fill="maroon"/>
          </g>
          <g transform="translate(-82 -458)">
            <rect id="Rectangle_235-5" data-name="Rectangle 235" width="7" height="4" rx="2" transform="translate(126 458)" fill="maroon"/>
          </g>
          <g transform="translate(-71 -458)">
            <rect id="Rectangle_235-6" data-name="Rectangle 235" width="7" height="4" rx="2" transform="translate(126 458)" fill="maroon"/>
          </g>
          <g transform="translate(-60 -458)">
            <rect id="Rectangle_235-7" data-name="Rectangle 235" width="7" height="4" rx="2" transform="translate(126 458)" fill="maroon"/>
          </g>
          <g transform="translate(-49 -458)">
            <rect id="Rectangle_235-8" data-name="Rectangle 235" width="7" height="4" rx="2" transform="translate(126 458)" fill="maroon"/>
          </g>
        </g>
      </g>
      <line id="Line_67" data-name="Line 67" x2="22.299" transform="translate(186.554 446.608)" fill="none" stroke="#000" stroke-linecap="round" stroke-width="1"/>
      <line id="Line_70" data-name="Line 70" x2="17.231" transform="translate(175.405 478.03)" fill="none" stroke="#000" stroke-linecap="round" stroke-width="1"/>
      <line id="Line_71" data-name="Line 71" x2="8.109" transform="translate(124.724 450.662)" fill="none" stroke="#000" stroke-linecap="round" stroke-width="1"/>
      <line id="Line_72" data-name="Line 72" x2="8.109" transform="translate(122.697 472.961)" fill="none" stroke="#000" stroke-linecap="round" stroke-width="1"/>
      <line id="Line_73" data-name="Line 73" x2="20.272" transform="translate(221.017 454.717)" fill="none" stroke="#000" stroke-linecap="round" stroke-width="1"/>
      <line id="Line_74" data-name="Line 74" x2="29.395" transform="translate(212.908 461.812)" fill="none" stroke="#000" stroke-linecap="round" stroke-width="1"/>
      <line id="Line_75" data-name="Line 75" x2="7.095" transform="translate(221.017 468.907)" fill="none" stroke="#000" stroke-linecap="round" stroke-width="1"/>
      <path id="Path_2958" data-name="Path 2958" d="M0,0H12.163" transform="translate(226.085 477.016)" fill="none" stroke="#000" stroke-linecap="round" stroke-width="1"/>
    </g>
  </g>
</svg>
