<svg xmlns="http://www.w3.org/2000/svg" width="31.406" height="31.406" viewBox="0 0 31.406 31.406">
  <path id="prep-time" d="M15.7,0a15.7,15.7,0,1,0,15.7,15.7A15.709,15.709,0,0,0,15.7,0Zm0,2.387a1.256,1.256,0,1,1-1.256,1.256A1.26,1.26,0,0,1,15.7,2.387ZM3.643,16.959A1.256,1.256,0,1,1,4.9,15.7,1.26,1.26,0,0,1,3.643,16.959Zm4.428,8.166a1.266,1.266,0,1,1,0-1.79A1.31,1.31,0,0,1,8.071,25.125Zm0-17.053a1.266,1.266,0,1,1,0-1.79A1.31,1.31,0,0,1,8.071,8.071ZM15.7,29.019a1.256,1.256,0,1,1,1.256-1.256A1.26,1.26,0,0,1,15.7,29.019Zm6.658-6.658a.607.607,0,0,1-.879,0l-6.407-6.407V8.7a.628.628,0,1,1,1.256,0v6.752l6.03,6.03A.607.607,0,0,1,22.361,22.361Zm2.764,2.764a1.266,1.266,0,1,1,0-1.79A1.31,1.31,0,0,1,25.125,25.125Zm0-17.053a1.266,1.266,0,1,1,0-1.79A1.31,1.31,0,0,1,25.125,8.071Zm2.638,8.888A1.256,1.256,0,1,1,29.019,15.7,1.26,1.26,0,0,1,27.763,16.959Z"/>
</svg>
